<?xml version="1.0" encoding="UTF-8"?>
<svg width="890px" height="556px" viewBox="0 0 890 556" version="1.1" xmlns="http://www.w3.org/2000/svg" xmlns:xlink="http://www.w3.org/1999/xlink">
    <!-- Generator: Sketch 48.1 (47250) - http://www.bohemiancoding.com/sketch -->
    <title>Path 4 + Path 4 Mask</title>
    <desc>Created with Sketch.</desc>
    <defs>
        <path d="M339.741361,39.904018 C290.896734,73.1803421 249.259059,108.42691 162.517492,118.989308 C75.7759246,129.551706 -12.4472948,175.944806 1.45359745,285.460197 C15.3544897,394.975588 63.5314773,358.838138 19.4416367,433.601827 C-24.648204,508.365517 65.6945574,606.135938 184.130159,526.084079 C302.565761,446.032219 359.626875,462.804758 405.011615,508.365517 C450.396356,553.926275 577.421761,575.847473 571.861404,447.430949 C566.301048,319.014425 582.066132,312.25412 646.208979,285.460197 C710.351826,258.666274 889.442592,320.482886 889.998628,181.503963 C890.554663,42.5250409 722.02043,109.949395 635.834899,39.904018 C549.649367,-30.1413589 388.585989,6.62769383 339.741361,39.904018 Z" id="path-1"></path>
    </defs>
    <g id="Path-4-+-Path-4-Mask" stroke="none" stroke-width="1" fill="none" fill-rule="evenodd">
        <g>
            <mask id="mask-2" fill="white">
                <use xlink:href="#path-1"></use>
            </mask>
            <use id="Mask" fill="#FFDEB2" opacity="0.416553442" transform="translate(445.000000, 278.000000) scale(-1, 1) translate(-445.000000, -278.000000) " xlink:href="#path-1"></use>
            <path d="M884.216495,607.372228 C884.216495,694.459547 885.065623,719.396814 704.206695,778.725051 C523.347767,838.053287 412.762339,926.229198 542.414221,1026.37962 C672.066102,1126.53003 921.564262,1258.7939 1114.40782,1086.79644 C1307.25137,914.798987 1348.10806,786.345191 1210.28484,796.142514 C1072.46162,805.939838 923.743285,801.041176 1019.07555,715.042448 C1114.40782,629.04372 1474.49141,526.171824 1325.22831,385.199225 C1175.96522,244.226627 910.669146,-26.8326552 878.528553,165.848039 C846.387961,358.528734 712.378032,387.376408 742.339602,465.2107 C772.301171,543.044992 884.216495,520.284908 884.216495,607.372228 Z" id="Path-4" stroke="#FFFFFF" mask="url(#mask-2)"></path>
            <path d="M456.216495,424.372228 C456.216495,511.459547 457.065623,536.396814 276.206695,595.725051 C95.3477673,655.053287 -15.2376615,743.229198 114.414221,843.379615 C244.066102,943.530033 493.564262,1075.7939 686.407817,903.796443 C879.251373,731.798987 920.108058,603.345191 782.284839,613.142514 C644.46162,622.939838 495.743285,618.041176 591.075551,532.042448 C686.407817,446.04372 1046.49141,343.171824 897.228315,202.199225 C747.965224,61.2266269 482.669146,-209.832655 450.528553,-17.1519607 C418.387961,175.528734 284.378032,204.376408 314.339602,282.2107 C344.301171,360.044992 456.216495,337.284908 456.216495,424.372228 Z" id="Path-4" stroke="#FFFFFF" mask="url(#mask-2)" transform="translate(495.500000, 451.500000) scale(-1, -1) rotate(31.000000) translate(-495.500000, -451.500000) "></path>
        </g>
    </g>
</svg>