<?xml version="1.0" encoding="UTF-8"?>
<svg width="222px" height="290px" viewBox="0 0 222 290" version="1.1" xmlns="http://www.w3.org/2000/svg" xmlns:xlink="http://www.w3.org/1999/xlink">
    <!-- Generator: Sketch 48.1 (47250) - http://www.bohemiancoding.com/sketch -->
    <title>Group 19</title>
    <desc>Created with Sketch.</desc>
    <defs>
        <linearGradient x1="0%" y1="13.1605936%" x2="100%" y2="100%" id="linearGradient-1">
            <stop stop-color="#242120" offset="0%"></stop>
            <stop stop-color="#1F1B19" offset="100%"></stop>
        </linearGradient>
        <path d="M0,0 L100,0 L100,267 L0,267 L0,0 Z M90,258 C89.4477153,258 89,258.447715 89,259 L89,261 C89,261.552285 89.4477153,262 90,262 L94,262 C94.5522847,262 95,261.552285 95,261 L95,259 C95,258.447715 94.5522847,258 94,258 L90,258 Z M90,249 C89.4477153,249 89,249.447715 89,250 L89,252 C89,252.552285 89.4477153,253 90,253 L94,253 C94.5522847,253 95,252.552285 95,252 L95,250 C95,249.447715 94.5522847,249 94,249 L90,249 Z M90,240 C89.4477153,240 89,240.447715 89,241 L89,243 C89,243.552285 89.4477153,244 90,244 L94,244 C94.5522847,244 95,243.552285 95,243 L95,241 C95,240.447715 94.5522847,240 94,240 L90,240 Z M90,231 C89.4477153,231 89,231.447715 89,232 L89,234 C89,234.552285 89.4477153,235 90,235 L94,235 C94.5522847,235 95,234.552285 95,234 L95,232 C95,231.447715 94.5522847,231 94,231 L90,231 Z M90,222 C89.4477153,222 89,222.447715 89,223 L89,225 C89,225.552285 89.4477153,226 90,226 L94,226 C94.5522847,226 95,225.552285 95,225 L95,223 C95,222.447715 94.5522847,222 94,222 L90,222 Z M90,213 C89.4477153,213 89,213.447715 89,214 L89,216 C89,216.552285 89.4477153,217 90,217 L94,217 C94.5522847,217 95,216.552285 95,216 L95,214 C95,213.447715 94.5522847,213 94,213 L90,213 Z M90,204 C89.4477153,204 89,204.447715 89,205 L89,207 C89,207.552285 89.4477153,208 90,208 L94,208 C94.5522847,208 95,207.552285 95,207 L95,205 C95,204.447715 94.5522847,204 94,204 L90,204 Z M90,195 C89.4477153,195 89,195.447715 89,196 L89,198 C89,198.552285 89.4477153,199 90,199 L94,199 C94.5522847,199 95,198.552285 95,198 L95,196 C95,195.447715 94.5522847,195 94,195 L90,195 Z M90,186 C89.4477153,186 89,186.447715 89,187 L89,189 C89,189.552285 89.4477153,190 90,190 L94,190 C94.5522847,190 95,189.552285 95,189 L95,187 C95,186.447715 94.5522847,186 94,186 L90,186 Z M90,177 C89.4477153,177 89,177.447715 89,178 L89,180 C89,180.552285 89.4477153,181 90,181 L94,181 C94.5522847,181 95,180.552285 95,180 L95,178 C95,177.447715 94.5522847,177 94,177 L90,177 Z M90,168 C89.4477153,168 89,168.447715 89,169 L89,171 C89,171.552285 89.4477153,172 90,172 L94,172 C94.5522847,172 95,171.552285 95,171 L95,169 C95,168.447715 94.5522847,168 94,168 L90,168 Z M90,159 C89.4477153,159 89,159.447715 89,160 L89,162 C89,162.552285 89.4477153,163 90,163 L94,163 C94.5522847,163 95,162.552285 95,162 L95,160 C95,159.447715 94.5522847,159 94,159 L90,159 Z M90,150 C89.4477153,150 89,150.447715 89,151 L89,153 C89,153.552285 89.4477153,154 90,154 L94,154 C94.5522847,154 95,153.552285 95,153 L95,151 C95,150.447715 94.5522847,150 94,150 L90,150 Z M90,141 C89.4477153,141 89,141.447715 89,142 L89,144 C89,144.552285 89.4477153,145 90,145 L94,145 C94.5522847,145 95,144.552285 95,144 L95,142 C95,141.447715 94.5522847,141 94,141 L90,141 Z M90,132 C89.4477153,132 89,132.447715 89,133 L89,135 C89,135.552285 89.4477153,136 90,136 L94,136 C94.5522847,136 95,135.552285 95,135 L95,133 C95,132.447715 94.5522847,132 94,132 L90,132 Z M90,123 C89.4477153,123 89,123.447715 89,124 L89,126 C89,126.552285 89.4477153,127 90,127 L94,127 C94.5522847,127 95,126.552285 95,126 L95,124 C95,123.447715 94.5522847,123 94,123 L90,123 Z M90,114 C89.4477153,114 89,114.447715 89,115 L89,117 C89,117.552285 89.4477153,118 90,118 L94,118 C94.5522847,118 95,117.552285 95,117 L95,115 C95,114.447715 94.5522847,114 94,114 L90,114 Z M90,105 C89.4477153,105 89,105.447715 89,106 L89,108 C89,108.552285 89.4477153,109 90,109 L94,109 C94.5522847,109 95,108.552285 95,108 L95,106 C95,105.447715 94.5522847,105 94,105 L90,105 Z M90,96 C89.4477153,96 89,96.4477153 89,97 L89,99 C89,99.5522847 89.4477153,100 90,100 L94,100 C94.5522847,100 95,99.5522847 95,99 L95,97 C95,96.4477153 94.5522847,96 94,96 L90,96 Z M90,87 C89.4477153,87 89,87.4477153 89,88 L89,90 C89,90.5522847 89.4477153,91 90,91 L94,91 C94.5522847,91 95,90.5522847 95,90 L95,88 C95,87.4477153 94.5522847,87 94,87 L90,87 Z M90,77 C89.4477153,77 89,77.4477153 89,78 L89,80 C89,80.5522847 89.4477153,81 90,81 L94,81 C94.5522847,81 95,80.5522847 95,80 L95,78 C95,77.4477153 94.5522847,77 94,77 L90,77 Z M90,68 C89.4477153,68 89,68.4477153 89,69 L89,71 C89,71.5522847 89.4477153,72 90,72 L94,72 C94.5522847,72 95,71.5522847 95,71 L95,69 C95,68.4477153 94.5522847,68 94,68 L90,68 Z M90,59 C89.4477153,59 89,59.4477153 89,60 L89,62 C89,62.5522847 89.4477153,63 90,63 L94,63 C94.5522847,63 95,62.5522847 95,62 L95,60 C95,59.4477153 94.5522847,59 94,59 L90,59 Z M90,50 C89.4477153,50 89,50.4477153 89,51 L89,53 C89,53.5522847 89.4477153,54 90,54 L94,54 C94.5522847,54 95,53.5522847 95,53 L95,51 C95,50.4477153 94.5522847,50 94,50 L90,50 Z M90,41 C89.4477153,41 89,41.4477153 89,42 L89,44 C89,44.5522847 89.4477153,45 90,45 L94,45 C94.5522847,45 95,44.5522847 95,44 L95,42 C95,41.4477153 94.5522847,41 94,41 L90,41 Z M90,32 C89.4477153,32 89,32.4477153 89,33 L89,35 C89,35.5522847 89.4477153,36 90,36 L94,36 C94.5522847,36 95,35.5522847 95,35 L95,33 C95,32.4477153 94.5522847,32 94,32 L90,32 Z M90,23 C89.4477153,23 89,23.4477153 89,24 L89,26 C89,26.5522847 89.4477153,27 90,27 L94,27 C94.5522847,27 95,26.5522847 95,26 L95,24 C95,23.4477153 94.5522847,23 94,23 L90,23 Z M90,14 C89.4477153,14 89,14.4477153 89,15 L89,17 C89,17.5522847 89.4477153,18 90,18 L94,18 C94.5522847,18 95,17.5522847 95,17 L95,15 C95,14.4477153 94.5522847,14 94,14 L90,14 Z M90,5 C89.4477153,5 89,5.44771525 89,6 L89,8 C89,8.55228475 89.4477153,9 90,9 L94,9 C94.5522847,9 95,8.55228475 95,8 L95,6 C95,5.44771525 94.5522847,5 94,5 L90,5 Z M6,258 C5.44771525,258 5,258.447715 5,259 L5,261 C5,261.552285 5.44771525,262 6,262 L10,262 C10.5522847,262 11,261.552285 11,261 L11,259 C11,258.447715 10.5522847,258 10,258 L6,258 Z M6,249 C5.44771525,249 5,249.447715 5,250 L5,252 C5,252.552285 5.44771525,253 6,253 L10,253 C10.5522847,253 11,252.552285 11,252 L11,250 C11,249.447715 10.5522847,249 10,249 L6,249 Z M6,240 C5.44771525,240 5,240.447715 5,241 L5,243 C5,243.552285 5.44771525,244 6,244 L10,244 C10.5522847,244 11,243.552285 11,243 L11,241 C11,240.447715 10.5522847,240 10,240 L6,240 Z M6,231 C5.44771525,231 5,231.447715 5,232 L5,234 C5,234.552285 5.44771525,235 6,235 L10,235 C10.5522847,235 11,234.552285 11,234 L11,232 C11,231.447715 10.5522847,231 10,231 L6,231 Z M6,222 C5.44771525,222 5,222.447715 5,223 L5,225 C5,225.552285 5.44771525,226 6,226 L10,226 C10.5522847,226 11,225.552285 11,225 L11,223 C11,222.447715 10.5522847,222 10,222 L6,222 Z M6,213 C5.44771525,213 5,213.447715 5,214 L5,216 C5,216.552285 5.44771525,217 6,217 L10,217 C10.5522847,217 11,216.552285 11,216 L11,214 C11,213.447715 10.5522847,213 10,213 L6,213 Z M6,204 C5.44771525,204 5,204.447715 5,205 L5,207 C5,207.552285 5.44771525,208 6,208 L10,208 C10.5522847,208 11,207.552285 11,207 L11,205 C11,204.447715 10.5522847,204 10,204 L6,204 Z M6,195 C5.44771525,195 5,195.447715 5,196 L5,198 C5,198.552285 5.44771525,199 6,199 L10,199 C10.5522847,199 11,198.552285 11,198 L11,196 C11,195.447715 10.5522847,195 10,195 L6,195 Z M6,186 C5.44771525,186 5,186.447715 5,187 L5,189 C5,189.552285 5.44771525,190 6,190 L10,190 C10.5522847,190 11,189.552285 11,189 L11,187 C11,186.447715 10.5522847,186 10,186 L6,186 Z M6,177 C5.44771525,177 5,177.447715 5,178 L5,180 C5,180.552285 5.44771525,181 6,181 L10,181 C10.5522847,181 11,180.552285 11,180 L11,178 C11,177.447715 10.5522847,177 10,177 L6,177 Z M6,168 C5.44771525,168 5,168.447715 5,169 L5,171 C5,171.552285 5.44771525,172 6,172 L10,172 C10.5522847,172 11,171.552285 11,171 L11,169 C11,168.447715 10.5522847,168 10,168 L6,168 Z M6,159 C5.44771525,159 5,159.447715 5,160 L5,162 C5,162.552285 5.44771525,163 6,163 L10,163 C10.5522847,163 11,162.552285 11,162 L11,160 C11,159.447715 10.5522847,159 10,159 L6,159 Z M6,150 C5.44771525,150 5,150.447715 5,151 L5,153 C5,153.552285 5.44771525,154 6,154 L10,154 C10.5522847,154 11,153.552285 11,153 L11,151 C11,150.447715 10.5522847,150 10,150 L6,150 Z M6,141 C5.44771525,141 5,141.447715 5,142 L5,144 C5,144.552285 5.44771525,145 6,145 L10,145 C10.5522847,145 11,144.552285 11,144 L11,142 C11,141.447715 10.5522847,141 10,141 L6,141 Z M6,132 C5.44771525,132 5,132.447715 5,133 L5,135 C5,135.552285 5.44771525,136 6,136 L10,136 C10.5522847,136 11,135.552285 11,135 L11,133 C11,132.447715 10.5522847,132 10,132 L6,132 Z M6,123 C5.44771525,123 5,123.447715 5,124 L5,126 C5,126.552285 5.44771525,127 6,127 L10,127 C10.5522847,127 11,126.552285 11,126 L11,124 C11,123.447715 10.5522847,123 10,123 L6,123 Z M6,114 C5.44771525,114 5,114.447715 5,115 L5,117 C5,117.552285 5.44771525,118 6,118 L10,118 C10.5522847,118 11,117.552285 11,117 L11,115 C11,114.447715 10.5522847,114 10,114 L6,114 Z M6,105 C5.44771525,105 5,105.447715 5,106 L5,108 C5,108.552285 5.44771525,109 6,109 L10,109 C10.5522847,109 11,108.552285 11,108 L11,106 C11,105.447715 10.5522847,105 10,105 L6,105 Z M6,96 C5.44771525,96 5,96.4477153 5,97 L5,99 C5,99.5522847 5.44771525,100 6,100 L10,100 C10.5522847,100 11,99.5522847 11,99 L11,97 C11,96.4477153 10.5522847,96 10,96 L6,96 Z M6,87 C5.44771525,87 5,87.4477153 5,88 L5,90 C5,90.5522847 5.44771525,91 6,91 L10,91 C10.5522847,91 11,90.5522847 11,90 L11,88 C11,87.4477153 10.5522847,87 10,87 L6,87 Z M6,77 C5.44771525,77 5,77.4477153 5,78 L5,80 C5,80.5522847 5.44771525,81 6,81 L10,81 C10.5522847,81 11,80.5522847 11,80 L11,78 C11,77.4477153 10.5522847,77 10,77 L6,77 Z M6,68 C5.44771525,68 5,68.4477153 5,69 L5,71 C5,71.5522847 5.44771525,72 6,72 L10,72 C10.5522847,72 11,71.5522847 11,71 L11,69 C11,68.4477153 10.5522847,68 10,68 L6,68 Z M6,59 C5.44771525,59 5,59.4477153 5,60 L5,62 C5,62.5522847 5.44771525,63 6,63 L10,63 C10.5522847,63 11,62.5522847 11,62 L11,60 C11,59.4477153 10.5522847,59 10,59 L6,59 Z M6,50 C5.44771525,50 5,50.4477153 5,51 L5,53 C5,53.5522847 5.44771525,54 6,54 L10,54 C10.5522847,54 11,53.5522847 11,53 L11,51 C11,50.4477153 10.5522847,50 10,50 L6,50 Z M6,41 C5.44771525,41 5,41.4477153 5,42 L5,44 C5,44.5522847 5.44771525,45 6,45 L10,45 C10.5522847,45 11,44.5522847 11,44 L11,42 C11,41.4477153 10.5522847,41 10,41 L6,41 Z M6,32 C5.44771525,32 5,32.4477153 5,33 L5,35 C5,35.5522847 5.44771525,36 6,36 L10,36 C10.5522847,36 11,35.5522847 11,35 L11,33 C11,32.4477153 10.5522847,32 10,32 L6,32 Z M6,23 C5.44771525,23 5,23.4477153 5,24 L5,26 C5,26.5522847 5.44771525,27 6,27 L10,27 C10.5522847,27 11,26.5522847 11,26 L11,24 C11,23.4477153 10.5522847,23 10,23 L6,23 Z M6,14 C5.44771525,14 5,14.4477153 5,15 L5,17 C5,17.5522847 5.44771525,18 6,18 L10,18 C10.5522847,18 11,17.5522847 11,17 L11,15 C11,14.4477153 10.5522847,14 10,14 L6,14 Z M6,5 C5.44771525,5 5,5.44771525 5,6 L5,8 C5,8.55228475 5.44771525,9 6,9 L10,9 C10.5522847,9 11,8.55228475 11,8 L11,6 C11,5.44771525 10.5522847,5 10,5 L6,5 Z" id="path-2"></path>
        <filter x="-7.0%" y="-1.9%" width="114.0%" height="105.2%" filterUnits="objectBoundingBox" id="filter-3">
            <feOffset dx="0" dy="2" in="SourceAlpha" result="shadowOffsetOuter1"></feOffset>
            <feGaussianBlur stdDeviation="2" in="shadowOffsetOuter1" result="shadowBlurOuter1"></feGaussianBlur>
            <feColorMatrix values="0 0 0 0 0   0 0 0 0 0   0 0 0 0 0  0 0 0 0.5 0" type="matrix" in="shadowBlurOuter1"></feColorMatrix>
        </filter>
        <rect id="path-4" x="0" y="0" width="68" height="45" rx="2"></rect>
        <rect id="path-6" x="0" y="0" width="68" height="45" rx="2"></rect>
        <rect id="path-8" x="0" y="0" width="68" height="45" rx="2"></rect>
        <rect id="path-10" x="0" y="0" width="68" height="45" rx="2"></rect>
        <rect id="path-12" x="0" y="0" width="68" height="45" rx="2"></rect>
    </defs>
    <g id="Group-19" stroke="none" stroke-width="1" fill="none" fill-rule="evenodd" transform="translate(5.000000, 2.000000)">
        <g transform="translate(106.821833, 141.347082) rotate(28.000000) translate(-106.821833, -141.347082) translate(56.821833, 7.847082)">
            <g id="Combined-Shape">
                <use fill="black" fill-opacity="1" filter="url(#filter-3)" xlink:href="#path-2"></use>
                <use fill="url(#linearGradient-1)" fill-rule="evenodd" xlink:href="#path-2"></use>
            </g>
            <g id="Oval-11-+-Rectangle-69-+-Rectangle-69-Mask" transform="translate(16.000000, 9.000000)">
                <mask id="mask-5" fill="white">
                    <use xlink:href="#path-4"></use>
                </mask>
                <use id="Mask" fill="#3C3C3C" xlink:href="#path-4"></use>
                <path d="M43.5514369,49.3298242 L43.6451613,49.4263187 L-9,49.4263187 L13.7359405,26.0184047 C15.6599228,24.0375581 18.8254121,23.9914604 20.8062587,25.9154426 C20.8410773,25.9492617 20.8754017,25.9835861 20.9092207,26.0184047 L30.3343,35.7220475 L45.4097404,16.7592092 C46.4408095,15.4622656 48.3280366,15.2467317 49.6249802,16.2778007 C49.8031971,16.419483 49.9647063,16.5809922 50.1063886,16.7592092 L76,49.3298242 L43.5514369,49.3298242 Z M14.5,20 C10.9101491,20 8,17.0898509 8,13.5 C8,9.91014913 10.9101491,7 14.5,7 C18.0898509,7 21,9.91014913 21,13.5 C21,17.0898509 18.0898509,20 14.5,20 Z" id="Combined-Shape" fill="#FFFFFF" opacity="0.0670289855" mask="url(#mask-5)"></path>
            </g>
            <g id="Oval-11-+-Rectangle-69-+-Rectangle-69-Mask" transform="translate(16.000000, 60.000000)">
                <mask id="mask-7" fill="white">
                    <use xlink:href="#path-6"></use>
                </mask>
                <use id="Mask" fill="#3C3C3C" xlink:href="#path-6"></use>
                <path d="M43.5514369,49.3298242 L43.6451613,49.4263187 L-9,49.4263187 L13.7359405,26.0184047 C15.6599228,24.0375581 18.8254121,23.9914604 20.8062587,25.9154426 C20.8410773,25.9492617 20.8754017,25.9835861 20.9092207,26.0184047 L30.3343,35.7220475 L45.4097404,16.7592092 C46.4408095,15.4622656 48.3280366,15.2467317 49.6249802,16.2778007 C49.8031971,16.419483 49.9647063,16.5809922 50.1063886,16.7592092 L76,49.3298242 L43.5514369,49.3298242 Z M14.5,20 C10.9101491,20 8,17.0898509 8,13.5 C8,9.91014913 10.9101491,7 14.5,7 C18.0898509,7 21,9.91014913 21,13.5 C21,17.0898509 18.0898509,20 14.5,20 Z" id="Combined-Shape" fill="#FFFFFF" opacity="0.0670289855" mask="url(#mask-7)"></path>
            </g>
            <g id="Oval-11-+-Rectangle-69-+-Rectangle-69-Mask" transform="translate(16.000000, 111.000000)">
                <mask id="mask-9" fill="white">
                    <use xlink:href="#path-8"></use>
                </mask>
                <use id="Mask" fill="#3C3C3C" xlink:href="#path-8"></use>
                <path d="M43.5514369,49.3298242 L43.6451613,49.4263187 L-9,49.4263187 L13.7359405,26.0184047 C15.6599228,24.0375581 18.8254121,23.9914604 20.8062587,25.9154426 C20.8410773,25.9492617 20.8754017,25.9835861 20.9092207,26.0184047 L30.3343,35.7220475 L45.4097404,16.7592092 C46.4408095,15.4622656 48.3280366,15.2467317 49.6249802,16.2778007 C49.8031971,16.419483 49.9647063,16.5809922 50.1063886,16.7592092 L76,49.3298242 L43.5514369,49.3298242 Z M14.5,20 C10.9101491,20 8,17.0898509 8,13.5 C8,9.91014913 10.9101491,7 14.5,7 C18.0898509,7 21,9.91014913 21,13.5 C21,17.0898509 18.0898509,20 14.5,20 Z" id="Combined-Shape" fill="#FFFFFF" opacity="0.0670289855" mask="url(#mask-9)"></path>
            </g>
            <g id="Oval-11-+-Rectangle-69-+-Rectangle-69-Mask" transform="translate(16.000000, 162.000000)">
                <mask id="mask-11" fill="white">
                    <use xlink:href="#path-10"></use>
                </mask>
                <use id="Mask" fill="#3C3C3C" xlink:href="#path-10"></use>
                <path d="M43.5514369,49.3298242 L43.6451613,49.4263187 L-9,49.4263187 L13.7359405,26.0184047 C15.6599228,24.0375581 18.8254121,23.9914604 20.8062587,25.9154426 C20.8410773,25.9492617 20.8754017,25.9835861 20.9092207,26.0184047 L30.3343,35.7220475 L45.4097404,16.7592092 C46.4408095,15.4622656 48.3280366,15.2467317 49.6249802,16.2778007 C49.8031971,16.419483 49.9647063,16.5809922 50.1063886,16.7592092 L76,49.3298242 L43.5514369,49.3298242 Z M14.5,20 C10.9101491,20 8,17.0898509 8,13.5 C8,9.91014913 10.9101491,7 14.5,7 C18.0898509,7 21,9.91014913 21,13.5 C21,17.0898509 18.0898509,20 14.5,20 Z" id="Combined-Shape" fill="#FFFFFF" opacity="0.0670289855" mask="url(#mask-11)"></path>
            </g>
            <g id="Oval-11-+-Rectangle-69-+-Rectangle-69-Mask" transform="translate(16.000000, 213.000000)">
                <mask id="mask-13" fill="white">
                    <use xlink:href="#path-12"></use>
                </mask>
                <use id="Mask" fill="#3C3C3C" xlink:href="#path-12"></use>
                <path d="M43.5514369,49.3298242 L43.6451613,49.4263187 L-9,49.4263187 L13.7359405,26.0184047 C15.6599228,24.0375581 18.8254121,23.9914604 20.8062587,25.9154426 C20.8410773,25.9492617 20.8754017,25.9835861 20.9092207,26.0184047 L30.3343,35.7220475 L45.4097404,16.7592092 C46.4408095,15.4622656 48.3280366,15.2467317 49.6249802,16.2778007 C49.8031971,16.419483 49.9647063,16.5809922 50.1063886,16.7592092 L76,49.3298242 L43.5514369,49.3298242 Z M14.5,20 C10.9101491,20 8,17.0898509 8,13.5 C8,9.91014913 10.9101491,7 14.5,7 C18.0898509,7 21,9.91014913 21,13.5 C21,17.0898509 18.0898509,20 14.5,20 Z" id="Combined-Shape" fill="#FFFFFF" opacity="0.0670289855" mask="url(#mask-13)"></path>
            </g>
        </g>
    </g>
</svg>