<?xml version="1.0" encoding="UTF-8"?>
<svg width="1070px" height="1025px" viewBox="0 0 1070 1025" version="1.1" xmlns="http://www.w3.org/2000/svg" xmlns:xlink="http://www.w3.org/1999/xlink">
    <!-- Generator: Sketch 48.1 (47250) - http://www.bohemiancoding.com/sketch -->
    <title>Path 4 + Path 4 Mask</title>
    <desc>Created with Sketch.</desc>
    <defs>
        <path d="M436.093348,382.623952 C436.093348,489.430547 426.200872,516.391378 204.828976,589.153371 C-16.5429205,661.915363 -28.7220019,748.031913 129.972309,870.859498 C288.66662,993.687082 594.053152,1155.8996 830.09427,944.956573 C1066.13539,734.013548 1116.1441,576.473821 947.448046,588.489562 C778.751993,600.505304 812.311912,486.577272 866.660775,453.884038 C921.009638,421.190803 991.204538,324.539728 937.875926,148.193349 C884.547315,-28.1530313 721.495995,-90.8738375 638.385716,73.5384275 C555.275437,237.950693 347.514613,140.895652 342.546938,226.759503 C337.579263,312.623354 436.093348,275.817357 436.093348,382.623952 Z" id="path-1"></path>
    </defs>
    <g id="Path-4-+-Path-4-Mask" stroke="none" stroke-width="1" fill="none" fill-rule="evenodd">
        <g>
            <mask id="mask-2" fill="white">
                <use xlink:href="#path-1"></use>
            </mask>
            <use id="Mask" fill="#FFDDC3" opacity="0.300724638" transform="translate(535.000000, 512.500000) scale(1, -1) rotate(-90.000000) translate(-535.000000, -512.500000) " xlink:href="#path-1"></use>
            <path d="M617.416989,667.242516 C617.416989,774.00783 618.456322,804.579848 397.084995,877.313717 C175.713667,950.047587 40.3571024,1058.14747 199.051006,1180.92758 C357.744909,1303.70769 663.130657,1465.85751 899.171169,1254.99601 C1135.21168,1044.13452 1185.22026,886.655682 1016.52464,898.66678 C847.829023,910.677878 665.797781,904.672329 782.484475,799.241582 C899.171169,693.810835 1339.91348,567.694309 1157.21546,394.867958 C974.517434,222.041607 649.795034,-110.265431 610.454949,125.952825 C571.114864,362.171081 407.086711,397.537091 443.759672,492.95859 C480.432633,588.380088 617.416989,560.477203 617.416989,667.242516 Z" id="Path-4" stroke="#FFFFFF" mask="url(#mask-2)"></path>
            <path d="M93.4169894,444.242516 C93.4169894,551.00783 94.4563224,581.579848 -126.915005,654.313717 C-348.286333,727.047587 -483.642898,835.147467 -324.948994,957.927577 C-166.255091,1080.70769 139.130657,1242.85751 375.171169,1031.99601 C611.211681,821.134519 661.220264,663.655682 492.524643,675.66678 C323.829023,687.677878 141.797781,681.672329 258.484475,576.241582 C375.171169,470.810835 815.91348,344.694309 633.215457,171.867958 C450.517434,-0.958393014 125.795034,-333.265431 86.4549491,-97.047175 C47.1148638,139.171081 -116.913289,174.537091 -80.2403277,269.95859 C-43.5673668,365.380088 93.4169894,337.477203 93.4169894,444.242516 Z" id="Path-4" stroke="#FFFFFF" mask="url(#mask-2)" transform="translate(141.500000, 477.500000) scale(-1, -1) rotate(31.000000) translate(-141.500000, -477.500000) "></path>
        </g>
    </g>
</svg>