<?xml version="1.0" encoding="UTF-8"?>
<svg width="70px" height="490px" viewBox="0 0 70 490" version="1.1" xmlns="http://www.w3.org/2000/svg" xmlns:xlink="http://www.w3.org/1999/xlink">
    <!-- Generator: Sketch 49.1 (51147) - http://www.bohemiancoding.com/sketch -->
    <title>Toolbar (details)</title>
    <desc>Created with Sketch.</desc>
    <defs>
        <rect id="path-1" x="0" y="0" width="70" height="490"></rect>
        <path d="M0.585786438,6.41421356 L6.41421356,0.585786438 C6.78928632,0.210713681 7.29799415,1.8737958e-15 7.82842712,1.77635684e-15 L16,0 C17.1045695,-2.02906125e-16 18,0.8954305 18,2 L18,20 C18,21.1045695 17.1045695,22 16,22 L2,22 C0.8954305,22 1.3527075e-16,21.1045695 0,20 L8.8817842e-16,7.82842712 C1.05877868e-15,7.29799415 0.210713681,6.78928632 0.585786438,6.41421356 Z M7,4 L7,6 L14,6 L14,4 L7,4 Z M4,8 L4,10 L14,10 L14,8 L4,8 Z M4,12 L4,14 L14,14 L14,12 L4,12 Z M4,16 L4,18 L14,18 L14,16 L4,16 Z" id="path-3"></path>
        <path d="M10.6761822,0.337885153 L17.9822512,4.92304957 C18.616052,5.32081213 19,6.01123232 19,6.75317828 L19,15.2468217 C19,15.9887677 18.616052,16.6791879 17.9822512,17.0769504 L10.6761822,21.6621148 C9.95832726,22.1126284 9.04167274,22.1126284 8.32381779,21.6621148 L1.01774881,17.0769504 C0.383948038,16.6791879 3.89720438e-15,15.9887677 0,15.2468217 L0,6.75317828 C0,6.01123232 0.383948038,5.32081213 1.01774881,4.92304957 L8.32381779,0.337885153 C9.04167274,-0.112628384 9.95832726,-0.112628384 10.6761822,0.337885153 Z" id="path-5"></path>
    </defs>
    <g id="Landing-Page" stroke="none" stroke-width="1" fill="none" fill-rule="evenodd">
        <g transform="translate(-770.000000, -4458.000000)" id="Event-Editor-(feature)">
            <g transform="translate(170.000000, 4330.000000)">
                <g id="Details-(sidebar)" transform="translate(600.000000, 61.000000)">
                    <g id="Toolbar-(details)" transform="translate(0.000000, 67.000000)">
                        <mask id="mask-2" fill="white">
                            <use xlink:href="#path-1"></use>
                        </mask>
                        <use id="Mask" fill="#000000" xlink:href="#path-1"></use>
                        <g id="Details" mask="url(#mask-2)">
                            <rect id="Selected" fill="#1D1D1D" x="0" y="0" width="70" height="70"></rect>
                            <path d="M17.046875,54 L17.046875,45.4746094 L19.5957031,45.4746094 C20.2597689,45.4746094 20.8691379,45.5800771 21.4238281,45.7910156 C21.9785184,46.0019542 22.4453106,46.29492 22.8242188,46.6699219 C23.2031269,47.0449237 23.4970693,47.4960911 23.7060547,48.0234375 C23.9150401,48.5507839 24.0195312,49.12695 24.0195312,49.7519531 C24.0195312,51.0214907 23.6240274,52.0468711 22.8330078,52.828125 C22.0419882,53.6093789 20.9746161,54 19.6308594,54 L17.046875,54 Z M18.0898438,53.0507812 L19.5664062,53.0507812 C20.070315,53.0507812 20.533201,52.9687508 20.9550781,52.8046875 C21.3769552,52.6406242 21.7324204,52.4130874 22.0214844,52.1220703 C22.3105483,51.8310532 22.536132,51.4824239 22.6982422,51.0761719 C22.8603524,50.6699198 22.9414062,50.228518 22.9414062,49.7519531 C22.9414062,49.1074187 22.8027358,48.5332056 22.5253906,48.0292969 C22.2480455,47.5253881 21.8564478,47.1318374 21.3505859,46.8486328 C20.844724,46.5654283 20.2656283,46.4238281 19.6132812,46.4238281 L18.0898438,46.4238281 L18.0898438,53.0507812 Z M25.2910156,51.0820312 C25.2910156,50.6484353 25.3632805,50.2451191 25.5078125,49.8720703 C25.6523445,49.4990216 25.8486316,49.1826185 26.0966797,48.9228516 C26.3447278,48.6630846 26.6406233,48.4589851 26.984375,48.3105469 C27.3281267,48.1621086 27.6953105,48.0878906 28.0859375,48.0878906 C28.6210964,48.0878906 29.0957011,48.2128894 29.5097656,48.4628906 C29.9238302,48.7128919 30.2431629,49.057615 30.4677734,49.4970703 C30.6923839,49.9365256 30.8046875,50.433591 30.8046875,50.9882812 C30.8046875,51.1367195 30.794922,51.2695307 30.7753906,51.3867188 L26.2871094,51.3867188 C26.3496097,51.9296902 26.558592,52.3642562 26.9140625,52.6904297 C27.269533,53.0166032 27.7089818,53.1796875 28.2324219,53.1796875 C28.5800799,53.1796875 28.8925767,53.1083992 29.1699219,52.9658203 C29.447267,52.8232415 29.6835928,52.6328137 29.8789062,52.3945312 L30.5585938,52.9746094 C30.2968737,53.3144548 29.9658223,53.5830068 29.5654297,53.7802734 C29.1650371,53.97754 28.7089869,54.0761719 28.1972656,54.0761719 C27.7871073,54.0761719 27.4033221,54.0029304 27.0458984,53.8564453 C26.6884748,53.7099602 26.3808607,53.5078138 26.1230469,53.25 C25.8652331,52.9921862 25.6621101,52.6757831 25.5136719,52.3007812 C25.3652336,51.9257794 25.2910156,51.5195334 25.2910156,51.0820312 Z M26.3105469,50.578125 L29.8378906,50.578125 C29.7597652,50.0937476 29.5712906,49.7070327 29.2724609,49.4179688 C28.9736313,49.1289048 28.5957054,48.984375 28.1386719,48.984375 C27.6777321,48.984375 27.2802751,49.1279283 26.9462891,49.4150391 C26.612303,49.7021499 26.4003911,50.0898413 26.3105469,50.578125 Z M31.6660156,49.0019531 L31.6660156,48.1582031 L32.4101562,48.1582031 L32.4101562,46.1601562 L33.3828125,46.0546875 L33.3828125,48.1582031 L35.3164062,48.1582031 L35.3164062,49.0019531 L33.3828125,49.0019531 L33.3828125,52.1132812 C33.3828125,52.4804706 33.4355463,52.7470695 33.5410156,52.9130859 C33.6464849,53.0791024 33.8320299,53.1621094 34.0976562,53.1621094 C34.4062515,53.1621094 34.7343733,53.062501 35.0820312,52.8632812 L35.3398438,53.7128906 C35.1445303,53.8261724 34.9384776,53.9150387 34.7216797,53.9794922 C34.5048817,54.0439456 34.2402359,54.0761719 33.9277344,54.0761719 C32.9160106,54.0761719 32.4101562,53.4707092 32.4101562,52.2597656 L32.4101562,49.0019531 L31.6660156,49.0019531 Z M36.03125,51.1171875 C36.03125,50.5468721 36.1533191,50.0312523 36.3974609,49.5703125 C36.6416028,49.1093727 36.9824197,48.7470716 37.4199219,48.4833984 C37.8574241,48.2197252 38.3476535,48.0878906 38.890625,48.0878906 C39.2929708,48.0878906 39.6669905,48.1679679 40.0126953,48.328125 C40.3584002,48.4882821 40.6523425,48.7207016 40.8945312,49.0253906 L40.9179688,49.0253906 L40.9179688,48.1582031 L41.890625,48.1582031 L41.890625,54 L40.9589844,54 L40.9589844,53.0742188 L40.9414062,53.0742188 C40.7031238,53.3906266 40.4091814,53.6367179 40.0595703,53.8125 C39.7099592,53.9882821 39.3222678,54.0761719 38.8964844,54.0761719 C38.4980449,54.0761719 38.1230486,54.0048835 37.7714844,53.8623047 C37.4199201,53.7197258 37.1162122,53.5214856 36.8603516,53.2675781 C36.6044909,53.0136706 36.4023445,52.7011737 36.2539062,52.3300781 C36.105468,51.9589825 36.03125,51.5546897 36.03125,51.1171875 Z M37.0214844,51.1230469 C37.0214844,51.7207061 37.2031232,52.2138652 37.5664062,52.6025391 C37.9296893,52.9912129 38.4042939,53.1855469 38.9902344,53.1855469 C39.2519544,53.1855469 39.5019519,53.1357427 39.7402344,53.0361328 C39.9785168,52.9365229 40.1874991,52.7978525 40.3671875,52.6201172 C40.5468759,52.4423819 40.6894526,52.2236341 40.7949219,51.9638672 C40.9003912,51.7041003 40.953125,51.4238296 40.953125,51.1230469 C40.953125,50.7285137 40.8691415,50.3671891 40.7011719,50.0390625 C40.5332023,49.7109359 40.2998062,49.4521494 40.0009766,49.2626953 C39.7021469,49.0732412 39.3691425,48.9785156 39.0019531,48.9785156 C38.435544,48.9785156 37.9638691,49.1757793 37.5869141,49.5703125 C37.2099591,49.9648457 37.0214844,50.4824187 37.0214844,51.1230469 Z M43.5664062,46.3945312 C43.5664062,46.203124 43.6328118,46.0410163 43.765625,45.9082031 C43.8984382,45.77539 44.062499,45.7089844 44.2578125,45.7089844 C44.4492197,45.7089844 44.612304,45.77539 44.7470703,45.9082031 C44.8818366,46.0410163 44.9492188,46.203124 44.9492188,46.3945312 C44.9492188,46.5820322 44.8818366,46.7421868 44.7470703,46.875 C44.612304,47.0078132 44.4492197,47.0742188 44.2578125,47.0742188 C44.062499,47.0742188 43.8984382,47.0078132 43.765625,46.875 C43.6328118,46.7421868 43.5664062,46.5820322 43.5664062,46.3945312 Z M43.765625,54 L43.765625,48.1582031 L44.7324219,48.1582031 L44.7324219,54 L43.765625,54 Z M46.765625,54 L46.765625,45.1640625 L47.7324219,45.1640625 L47.7324219,54 L46.765625,54 Z M49.1621094,53.2324219 L49.6660156,52.4941406 C49.9121106,52.7246105 50.1748033,52.8984369 50.4541016,53.015625 C50.7333998,53.1328131 51.0664043,53.1914062 51.453125,53.1914062 C51.7929704,53.1914062 52.062499,53.1171882 52.2617188,52.96875 C52.4609385,52.8203118 52.5605469,52.6347667 52.5605469,52.4121094 C52.5605469,52.3535153 52.5546876,52.2988284 52.5429688,52.2480469 C52.5312499,52.1972654 52.5078127,52.1494143 52.4726562,52.1044922 C52.4374998,52.0595701 52.404297,52.020508 52.3730469,51.9873047 C52.3417967,51.9541014 52.2919925,51.9179689 52.2236328,51.8789062 C52.1552731,51.8398436 52.0966799,51.8076173 52.0478516,51.7822266 C51.9990232,51.7568358 51.9257817,51.7255861 51.828125,51.6884766 C51.7304683,51.651367 51.6513675,51.6220704 51.5908203,51.6005859 C51.5302731,51.5791015 51.4375006,51.5449221 51.3125,51.4980469 C51.2499997,51.4785155 51.2031252,51.4628907 51.171875,51.4511719 C50.9531239,51.3769528 50.7685554,51.306641 50.6181641,51.2402344 C50.4677727,51.1738278 50.3105477,51.0888677 50.1464844,50.9853516 C49.9824211,50.8818354 49.851563,50.771485 49.7539062,50.6542969 C49.6562495,50.5371088 49.5751956,50.392579 49.5107422,50.2207031 C49.4462887,50.0488273 49.4140625,49.859376 49.4140625,49.6523438 C49.4140625,49.207029 49.5976544,48.8349624 49.9648438,48.5361328 C50.3320331,48.2373032 50.792966,48.0878906 51.3476562,48.0878906 C52.1015663,48.0878906 52.7714814,48.3281226 53.3574219,48.8085938 L52.8535156,49.5761719 C52.3847633,49.1699198 51.8671903,48.9667969 51.3007812,48.9667969 C51.0664051,48.9667969 50.8583993,49.0302728 50.6767578,49.1572266 C50.4951163,49.2841803 50.4042969,49.4492177 50.4042969,49.6523438 C50.4042969,49.7617193 50.4306638,49.8613277 50.4833984,49.9511719 C50.5361331,50.0410161 50.6181635,50.1230465 50.7294922,50.1972656 C50.8408209,50.2714847 50.9531244,50.3349607 51.0664062,50.3876953 C51.1796881,50.44043 51.3281241,50.5019528 51.5117188,50.5722656 L51.7929688,50.6777344 C51.9921885,50.7558598 52.139648,50.8134764 52.2353516,50.8505859 C52.3310552,50.8876955 52.4550774,50.9414059 52.6074219,51.0117188 C52.7597664,51.0820316 52.87207,51.1435544 52.9443359,51.1962891 C53.0166019,51.2490237 53.0996089,51.3193355 53.1933594,51.4072266 C53.2871098,51.4951176 53.354492,51.5839839 53.3955078,51.6738281 C53.4365236,51.7636723 53.4726561,51.8701166 53.5039062,51.9931641 C53.5351564,52.1162116 53.5507812,52.2519524 53.5507812,52.4003906 C53.5507812,52.6308605 53.5068364,52.8466787 53.4189453,53.0478516 C53.3310542,53.2490244 53.2021493,53.426757 53.0322266,53.5810547 C52.8623038,53.7353523 52.6416029,53.8564449 52.3701172,53.9443359 C52.0986315,54.032227 51.7929704,54.0761719 51.453125,54.0761719 C50.5585893,54.0761719 49.794925,53.7949247 49.1621094,53.2324219 Z" fill="#FFFFFF"></path>
                            <g id="Icon" transform="translate(24.000000, 14.000000)">
                                <rect id="Rectangle-11" opacity="0.308140851" x="0" y="0" width="22" height="22"></rect>
                                <rect id="Rectangle-12" fill="#FFFFFF" x="2" y="0" width="18" height="22" rx="2"></rect>
                                <path d="M6,7 C5.44771525,7 5,6.55228475 5,6 C5,5.44771525 5.44771525,5 6,5 C6.55228475,5 7,5.44771525 7,6 C7,6.55228475 6.55228475,7 6,7 Z M9,5 L17,5 L17,7 L9,7 L9,5 Z M6,17 C5.44771525,17 5,16.5522847 5,16 C5,15.4477153 5.44771525,15 6,15 C6.55228475,15 7,15.4477153 7,16 C7,16.5522847 6.55228475,17 6,17 Z M9,15 L17,15 L17,17 L9,17 L9,15 Z M6,12 C5.44771525,12 5,11.5522847 5,11 C5,10.4477153 5.44771525,10 6,10 C6.55228475,10 7,10.4477153 7,11 C7,11.5522847 6.55228475,12 6,12 Z M9,10 L17,10 L17,12 L9,12 L9,10 Z" id="Combined-Shape" fill="#1D1D1D"></path>
                            </g>
                        </g>
                        <g id="Details" mask="url(#mask-2)">
                            <g transform="translate(0.000000, 280.000000)">
                                <rect id="Selected" fill="none" x="0" y="0" width="70" height="70"></rect>
                                <path d="M11.93,54 L11.138,54 L8.198,45.6 L9.35,45.6 L11.534,52.2 L13.706,45.6 L14.858,45.6 L11.93,54 Z M20.534,48.552 L20.534,54 L19.502,54 L19.502,53.052 C19.3259991,53.3880017 19.0640017,53.651999 18.716,53.844 C18.3679983,54.036001 17.994002,54.132 17.594,54.132 C17.1779979,54.132 16.7980017,54.0560008 16.454,53.904 C16.1099983,53.7519992 15.8160012,53.5440013 15.572,53.28 C15.3279988,53.0159987 15.1380007,52.7120017 15.002,52.368 C14.8659993,52.0239983 14.798,51.6600019 14.798,51.276 C14.798,50.8919981 14.8659993,50.5260017 15.002,50.178 C15.1380007,49.8299983 15.3279988,49.5240013 15.572,49.26 C15.8160012,48.9959987 16.1099983,48.7880008 16.454,48.636 C16.7980017,48.4839992 17.1779979,48.408 17.594,48.408 C17.994002,48.408 18.3679983,48.503999 18.716,48.696 C19.0640017,48.888001 19.3259991,49.1519983 19.502,49.488 L19.502,48.552 L20.534,48.552 Z M17.654,53.196 C17.9340014,53.196 18.1879989,53.1440005 18.416,53.04 C18.6440011,52.9359995 18.8379992,52.7980009 18.998,52.626 C19.1580008,52.4539991 19.2819996,52.2520012 19.37,52.02 C19.4580004,51.7879988 19.502,51.5400013 19.502,51.276 C19.502,51.0119987 19.4580004,50.7640012 19.37,50.532 C19.2819996,50.2999988 19.1580008,50.0960009 18.998,49.92 C18.8379992,49.7439991 18.6440011,49.6040005 18.416,49.5 C18.1879989,49.3959995 17.9340014,49.344 17.654,49.344 C17.3739986,49.344 17.1220011,49.3959995 16.898,49.5 C16.6739989,49.6040005 16.4840008,49.7439991 16.328,49.92 C16.1719992,50.0960009 16.0500004,50.2999988 15.962,50.532 C15.8739996,50.7640012 15.83,51.0119987 15.83,51.276 C15.83,51.5400013 15.8739996,51.7879988 15.962,52.02 C16.0500004,52.2520012 16.1719992,52.4539991 16.328,52.626 C16.4840008,52.7980009 16.6739989,52.9359995 16.898,53.04 C17.1220011,53.1440005 17.3739986,53.196 17.654,53.196 Z M25.778,49.512 C25.6659994,49.4879999 25.5760003,49.472 25.508,49.464 C25.4399997,49.456 25.3580005,49.452 25.262,49.452 C24.653997,49.452 24.2000015,49.647998 23.9,50.04 C23.5999985,50.432002 23.45,50.9559967 23.45,51.612 L23.45,54 L22.406,54 L22.406,48.552 L23.45,48.552 L23.45,49.62 C23.5940007,49.2759983 23.8359983,48.9980011 24.176,48.786 C24.5160017,48.5739989 24.8779981,48.468 25.262,48.468 C25.470001,48.468 25.6419993,48.4959997 25.778,48.552 L25.778,49.512 Z M26.786,48.552 L27.83,48.552 L27.83,54 L26.786,54 L26.786,48.552 Z M26.474,46.488 C26.474,46.2559988 26.5539992,46.0560008 26.714,45.888 C26.8740008,45.7199992 27.0699988,45.636 27.302,45.636 C27.5340012,45.636 27.7339992,45.7199992 27.902,45.888 C28.0700008,46.0560008 28.154,46.2559988 28.154,46.488 C28.154,46.7200012 28.0700008,46.9159992 27.902,47.076 C27.7339992,47.2360008 27.5340012,47.316 27.302,47.316 C27.0699988,47.316 26.8740008,47.2360008 26.714,47.076 C26.5539992,46.9159992 26.474,46.7200012 26.474,46.488 Z M34.994,48.552 L34.994,54 L33.962,54 L33.962,53.052 C33.7859991,53.3880017 33.5240017,53.651999 33.176,53.844 C32.8279983,54.036001 32.454002,54.132 32.054,54.132 C31.6379979,54.132 31.2580017,54.0560008 30.914,53.904 C30.5699983,53.7519992 30.2760012,53.5440013 30.032,53.28 C29.7879988,53.0159987 29.5980007,52.7120017 29.462,52.368 C29.3259993,52.0239983 29.258,51.6600019 29.258,51.276 C29.258,50.8919981 29.3259993,50.5260017 29.462,50.178 C29.5980007,49.8299983 29.7879988,49.5240013 30.032,49.26 C30.2760012,48.9959987 30.5699983,48.7880008 30.914,48.636 C31.2580017,48.4839992 31.6379979,48.408 32.054,48.408 C32.454002,48.408 32.8279983,48.503999 33.176,48.696 C33.5240017,48.888001 33.7859991,49.1519983 33.962,49.488 L33.962,48.552 L34.994,48.552 Z M32.114,53.196 C32.3940014,53.196 32.6479989,53.1440005 32.876,53.04 C33.1040011,52.9359995 33.2979992,52.7980009 33.458,52.626 C33.6180008,52.4539991 33.7419996,52.2520012 33.83,52.02 C33.9180004,51.7879988 33.962,51.5400013 33.962,51.276 C33.962,51.0119987 33.9180004,50.7640012 33.83,50.532 C33.7419996,50.2999988 33.6180008,50.0960009 33.458,49.92 C33.2979992,49.7439991 33.1040011,49.6040005 32.876,49.5 C32.6479989,49.3959995 32.3940014,49.344 32.114,49.344 C31.8339986,49.344 31.5820011,49.3959995 31.358,49.5 C31.1339989,49.6040005 30.9440008,49.7439991 30.788,49.92 C30.6319992,50.0960009 30.5100004,50.2999988 30.422,50.532 C30.3339996,50.7640012 30.29,51.0119987 30.29,51.276 C30.29,51.5400013 30.3339996,51.7879988 30.422,52.02 C30.5100004,52.2520012 30.6319992,52.4539991 30.788,52.626 C30.9440008,52.7980009 31.1339989,52.9359995 31.358,53.04 C31.5820011,53.1440005 31.8339986,53.196 32.114,53.196 Z M39.83,54 C39.7259995,54.0160001 39.5880009,54.0319999 39.416,54.048 C39.2439991,54.0640001 39.0700009,54.072 38.894,54.072 C38.7259992,54.072 38.542001,54.0560002 38.342,54.024 C38.141999,53.9919998 37.9560009,53.9140006 37.784,53.79 C37.6119991,53.6659994 37.4680006,53.4760013 37.352,53.22 C37.2359994,52.9639987 37.178,52.6120022 37.178,52.164 L37.178,49.428 L36.17,49.428 L36.17,48.552 L37.178,48.552 L37.178,46.716 L38.222,46.716 L38.222,48.552 L39.638,48.552 L39.638,49.428 L38.222,49.428 L38.222,51.936 C38.222,52.2000013 38.2439998,52.4099992 38.288,52.566 C38.3320002,52.7220008 38.3939996,52.8419996 38.474,52.926 C38.5540004,53.0100004 38.6479995,53.0639999 38.756,53.088 C38.8640005,53.1120001 38.9859993,53.124 39.122,53.124 C39.2340006,53.124 39.3599993,53.12 39.5,53.112 C39.6400007,53.104 39.7499996,53.0920001 39.83,53.076 L39.83,54 Z M40.946,48.552 L41.99,48.552 L41.99,54 L40.946,54 L40.946,48.552 Z M40.634,46.488 C40.634,46.2559988 40.7139992,46.0560008 40.874,45.888 C41.0340008,45.7199992 41.2299988,45.636 41.462,45.636 C41.6940012,45.636 41.8939992,45.7199992 42.062,45.888 C42.2300008,46.0560008 42.314,46.2559988 42.314,46.488 C42.314,46.7200012 42.2300008,46.9159992 42.062,47.076 C41.8939992,47.2360008 41.6940012,47.316 41.462,47.316 C41.2299988,47.316 41.0340008,47.2360008 40.874,47.076 C40.7139992,46.9159992 40.634,46.7200012 40.634,46.488 Z M46.274,54.132 C45.8419978,54.132 45.4500018,54.0560008 45.098,53.904 C44.7459982,53.7519992 44.4460012,53.5440013 44.198,53.28 C43.9499988,53.0159987 43.7580007,52.7120017 43.622,52.368 C43.4859993,52.0239983 43.418,51.6600019 43.418,51.276 C43.418,50.8919981 43.4859993,50.5260017 43.622,50.178 C43.7580007,49.8299983 43.9499988,49.5240013 44.198,49.26 C44.4460012,48.9959987 44.7459982,48.7880008 45.098,48.636 C45.4500018,48.4839992 45.8419978,48.408 46.274,48.408 C46.7140022,48.408 47.1099982,48.4839992 47.462,48.636 C47.8140018,48.7880008 48.1159987,48.9959987 48.368,49.26 C48.6200013,49.5240013 48.8139993,49.8299983 48.95,50.178 C49.0860007,50.5260017 49.154,50.8919981 49.154,51.276 C49.154,51.6600019 49.0860007,52.0239983 48.95,52.368 C48.8139993,52.7120017 48.6200013,53.0159987 48.368,53.28 C48.1159987,53.5440013 47.8140018,53.7519992 47.462,53.904 C47.1099982,54.0560008 46.7140022,54.132 46.274,54.132 Z M46.274,53.196 C46.5540014,53.196 46.8079989,53.1440005 47.036,53.04 C47.2640011,52.9359995 47.4579992,52.7980009 47.618,52.626 C47.7780008,52.4539991 47.9019996,52.2520012 47.99,52.02 C48.0780004,51.7879988 48.122,51.5400013 48.122,51.276 C48.122,51.0119987 48.0780004,50.7640012 47.99,50.532 C47.9019996,50.2999988 47.7780008,50.0960009 47.618,49.92 C47.4579992,49.7439991 47.2640011,49.6040005 47.036,49.5 C46.8079989,49.3959995 46.5540014,49.344 46.274,49.344 C45.9939986,49.344 45.7420011,49.3959995 45.518,49.5 C45.2939989,49.6040005 45.1040008,49.7439991 44.948,49.92 C44.7919992,50.0960009 44.6700004,50.2999988 44.582,50.532 C44.4939996,50.7640012 44.45,51.0119987 44.45,51.276 C44.45,51.5400013 44.4939996,51.7879988 44.582,52.02 C44.6700004,52.2520012 44.7919992,52.4539991 44.948,52.626 C45.1040008,52.7980009 45.2939989,52.9359995 45.518,53.04 C45.7420011,53.1440005 45.9939986,53.196 46.274,53.196 Z M50.582,48.552 L51.626,48.552 L51.626,49.512 C51.7860008,49.1759983 52.0299984,48.908001 52.358,48.708 C52.6860016,48.507999 53.0819977,48.408 53.546,48.408 C53.9300019,48.408 54.2579986,48.4699994 54.53,48.594 C54.8020014,48.7180006 55.0179992,48.8959988 55.178,49.128 C55.3300008,49.336001 55.4379997,49.5679987 55.502,49.824 C55.5660003,50.0800013 55.598,50.3999981 55.598,50.784 L55.598,54 L54.554,54 L54.554,51.108 C54.554,50.8599988 54.5300002,50.6260011 54.482,50.406 C54.4339998,50.1859989 54.3560005,49.9980008 54.248,49.842 C54.1399995,49.6859992 53.9980009,49.5620005 53.822,49.47 C53.6459991,49.3779995 53.4300013,49.332 53.174,49.332 C52.9099987,49.332 52.682001,49.3839995 52.49,49.488 C52.297999,49.5920005 52.1380006,49.7299991 52.01,49.902 C51.8819994,50.0740009 51.7860003,50.2719989 51.722,50.496 C51.6579997,50.7200011 51.626,50.9519988 51.626,51.192 L51.626,54 L50.582,54 L50.582,48.552 Z M59.666,50.964 C59.874001,51.0280003 60.075999,51.0959996 60.272,51.168 C60.468001,51.2400004 60.6419992,51.3319994 60.794,51.444 C60.9460008,51.5560006 61.0679995,51.6959992 61.16,51.864 C61.2520005,52.0320008 61.298,52.2439987 61.298,52.5 C61.298,52.7720014 61.2440005,53.009999 61.136,53.214 C61.0279995,53.418001 60.878001,53.5879993 60.686,53.724 C60.493999,53.8600007 60.2680013,53.9619997 60.008,54.03 C59.7479987,54.0980003 59.4660015,54.132 59.162,54.132 C58.8579985,54.132 58.5700014,54.0920004 58.298,54.012 C58.0259986,53.9319996 57.788001,53.8100008 57.584,53.646 C57.379999,53.4819992 57.2160006,53.2760012 57.092,53.028 C56.9679994,52.7799988 56.906,52.4920016 56.906,52.164 L57.926,52.164 C57.926,52.5800021 58.0479988,52.8739991 58.292,53.046 C58.5360012,53.2180009 58.8419982,53.304 59.21,53.304 C59.5460017,53.304 59.811999,53.2420006 60.008,53.118 C60.204001,52.9939994 60.302,52.7960014 60.302,52.524 C60.302,52.3719992 60.2620004,52.2500005 60.182,52.158 C60.1019996,52.0659995 59.9880007,51.9840004 59.84,51.912 C59.6919993,51.8399996 59.5100011,51.7740003 59.294,51.714 C59.0779989,51.6539997 58.8340014,51.5760005 58.562,51.48 C58.353999,51.4159997 58.1600009,51.3480004 57.98,51.276 C57.7999991,51.2039996 57.6440007,51.1120006 57.512,51 C57.3799993,50.8879994 57.2760004,50.7520008 57.2,50.592 C57.1239996,50.4319992 57.086,50.2280012 57.086,49.98 C57.086,49.7239987 57.1379995,49.498001 57.242,49.302 C57.3460005,49.105999 57.4899991,48.9420007 57.674,48.81 C57.8580009,48.6779993 58.0739988,48.5780003 58.322,48.51 C58.5700012,48.4419997 58.8339986,48.408 59.114,48.408 C59.4100015,48.408 59.6859987,48.4519996 59.942,48.54 C60.1980013,48.6280004 60.4199991,48.7539992 60.608,48.918 C60.7960009,49.0820008 60.9439995,49.2759989 61.052,49.5 C61.1600005,49.7240011 61.214,49.9719986 61.214,50.244 L60.206,50.244 C60.206,49.9239984 60.1120009,49.6780009 59.924,49.506 C59.7359991,49.3339991 59.4620018,49.248 59.102,49.248 C58.8139986,49.248 58.574001,49.3119994 58.382,49.44 C58.189999,49.5680006 58.094,49.7559988 58.094,50.004 C58.094,50.1400007 58.1279997,50.2519996 58.196,50.34 C58.2640003,50.4280004 58.3659993,50.5039997 58.502,50.568 C58.6380007,50.6320003 58.801999,50.6939997 58.994,50.754 L59.666,50.964 Z" id="Variations" fill="#4C4C4C" fill-rule="evenodd"></path>
                                <g id="Group-46" stroke-width="1" fill="none" fill-rule="evenodd" transform="translate(24.000000, 14.000000)">
                                    <rect id="Rectangle-73" stroke="#333333" stroke-width="2" x="1" y="1" width="20" height="20" rx="2"></rect>
                                    <rect id="Rectangle-74" fill="#333333" x="7" y="2" width="2" height="18"></rect>
                                    <rect id="Rectangle-74" fill="#333333" x="13" y="2" width="2" height="18"></rect>
                                    <rect id="Rectangle-74" fill="#333333" x="2" y="7" width="18" height="2"></rect>
                                    <rect id="Rectangle-74" fill="#333333" x="2" y="13" width="18" height="2"></rect>
                                </g>
                            </g>
                        </g>
                        <g id="Details" mask="url(#mask-2)">
                            <g transform="translate(0.000000, 350.000000)">
                                <rect id="Selected" fill="none" x="0" y="0" width="70" height="70"></rect>
                                <path d="M19.688,45.6 L22.64,45.6 C23.0800022,45.6 23.4759982,45.6759992 23.828,45.828 C24.1800018,45.9800008 24.4819987,46.1879987 24.734,46.452 C24.9860013,46.7160013 25.1799993,47.0199983 25.316,47.364 C25.4520007,47.7080017 25.52,48.0719981 25.52,48.456 C25.52,48.8400019 25.4520007,49.2059983 25.316,49.554 C25.1799993,49.9020017 24.9860013,50.2079987 24.734,50.472 C24.4819987,50.7360013 24.1800018,50.9439992 23.828,51.096 C23.4759982,51.2480008 23.0800022,51.324 22.64,51.324 L20.78,51.324 L20.78,54 L19.688,54 L19.688,45.6 Z M22.64,50.328 C22.9120014,50.328 23.1579989,50.2780005 23.378,50.178 C23.5980011,50.0779995 23.7859992,49.9440008 23.942,49.776 C24.0980008,49.6079992 24.2179996,49.4100011 24.302,49.182 C24.3860004,48.9539989 24.428,48.7120013 24.428,48.456 C24.428,48.2079988 24.3860004,47.9700011 24.302,47.742 C24.2179996,47.5139989 24.0980008,47.3140009 23.942,47.142 C23.7859992,46.9699991 23.5980011,46.8340005 23.378,46.734 C23.1579989,46.6339995 22.9120014,46.584 22.64,46.584 L20.78,46.584 L20.78,50.328 L22.64,50.328 Z M28.82,54.132 C28.3879978,54.132 27.9960018,54.0560008 27.644,53.904 C27.2919982,53.7519992 26.9920012,53.5440013 26.744,53.28 C26.4959988,53.0159987 26.3040007,52.7120017 26.168,52.368 C26.0319993,52.0239983 25.964,51.6600019 25.964,51.276 C25.964,50.8919981 26.0319993,50.5260017 26.168,50.178 C26.3040007,49.8299983 26.4959988,49.5240013 26.744,49.26 C26.9920012,48.9959987 27.2919982,48.7880008 27.644,48.636 C27.9960018,48.4839992 28.3879978,48.408 28.82,48.408 C29.2600022,48.408 29.6559982,48.4839992 30.008,48.636 C30.3600018,48.7880008 30.6619987,48.9959987 30.914,49.26 C31.1660013,49.5240013 31.3599993,49.8299983 31.496,50.178 C31.6320007,50.5260017 31.7,50.8919981 31.7,51.276 C31.7,51.6600019 31.6320007,52.0239983 31.496,52.368 C31.3599993,52.7120017 31.1660013,53.0159987 30.914,53.28 C30.6619987,53.5440013 30.3600018,53.7519992 30.008,53.904 C29.6559982,54.0560008 29.2600022,54.132 28.82,54.132 Z M28.82,53.196 C29.1000014,53.196 29.3539989,53.1440005 29.582,53.04 C29.8100011,52.9359995 30.0039992,52.7980009 30.164,52.626 C30.3240008,52.4539991 30.4479996,52.2520012 30.536,52.02 C30.6240004,51.7879988 30.668,51.5400013 30.668,51.276 C30.668,51.0119987 30.6240004,50.7640012 30.536,50.532 C30.4479996,50.2999988 30.3240008,50.0960009 30.164,49.92 C30.0039992,49.7439991 29.8100011,49.6040005 29.582,49.5 C29.3539989,49.3959995 29.1000014,49.344 28.82,49.344 C28.5399986,49.344 28.2880011,49.3959995 28.064,49.5 C27.8399989,49.6040005 27.6500008,49.7439991 27.494,49.92 C27.3379992,50.0960009 27.2160004,50.2999988 27.128,50.532 C27.0399996,50.7640012 26.996,51.0119987 26.996,51.276 C26.996,51.5400013 27.0399996,51.7879988 27.128,52.02 C27.2160004,52.2520012 27.3379992,52.4539991 27.494,52.626 C27.6500008,52.7980009 27.8399989,52.9359995 28.064,53.04 C28.2880011,53.1440005 28.5399986,53.196 28.82,53.196 Z M33.128,45.6 L34.172,45.6 L34.172,54 L33.128,54 L33.128,45.6 Z M36.044,48.552 L37.088,48.552 L37.088,54 L36.044,54 L36.044,48.552 Z M35.732,46.488 C35.732,46.2559988 35.8119992,46.0560008 35.972,45.888 C36.1320008,45.7199992 36.3279988,45.636 36.56,45.636 C36.7920012,45.636 36.9919992,45.7199992 37.16,45.888 C37.3280008,46.0560008 37.412,46.2559988 37.412,46.488 C37.412,46.7200012 37.3280008,46.9159992 37.16,47.076 C36.9919992,47.2360008 36.7920012,47.316 36.56,47.316 C36.3279988,47.316 36.1320008,47.2360008 35.972,47.076 C35.8119992,46.9159992 35.732,46.7200012 35.732,46.488 Z M42.788,50.532 C42.7479998,50.1959983 42.6140011,49.9140011 42.386,49.686 C42.1579989,49.4579989 41.7880026,49.344 41.276,49.344 C40.9959986,49.344 40.7500011,49.3959995 40.538,49.5 C40.3259989,49.6040005 40.1500007,49.7459991 40.01,49.926 C39.8699993,50.1060009 39.7640004,50.3119988 39.692,50.544 C39.6199996,50.7760012 39.584,51.0199987 39.584,51.276 C39.584,51.5320013 39.6179997,51.7759988 39.686,52.008 C39.7540003,52.2400012 39.8599993,52.4439991 40.004,52.62 C40.1480007,52.7960009 40.3299989,52.9359995 40.55,53.04 C40.7700011,53.1440005 41.0319985,53.196 41.336,53.196 C41.7920023,53.196 42.1279989,53.100001 42.344,52.908 C42.5600011,52.715999 42.7119996,52.4560016 42.8,52.128 L43.844,52.128 C43.8039998,52.4080014 43.7200006,52.6699988 43.592,52.914 C43.4639994,53.1580012 43.2940011,53.3699991 43.082,53.55 C42.8699989,53.7300009 42.6120015,53.8719995 42.308,53.976 C42.0039985,54.0800005 41.656002,54.132 41.264,54.132 C40.8159978,54.132 40.4240017,54.0520008 40.088,53.892 C39.7519983,53.7319992 39.4680012,53.5200013 39.236,53.256 C39.0039988,52.9919987 38.8300006,52.6880017 38.714,52.344 C38.5979994,51.9999983 38.54,51.6440018 38.54,51.276 C38.54,50.9079982 38.5979994,50.5520017 38.714,50.208 C38.8300006,49.8639983 39.0019989,49.5580013 39.23,49.29 C39.4580011,49.0219987 39.7419983,48.8080008 40.082,48.648 C40.4220017,48.4879992 40.8119978,48.408 41.252,48.408 C41.6920022,48.408 42.0699984,48.4699994 42.386,48.594 C42.7020016,48.7180006 42.961999,48.877999 43.166,49.074 C43.370001,49.270001 43.5259995,49.4959987 43.634,49.752 C43.7420005,50.0080013 43.8079999,50.2679987 43.832,50.532 L42.788,50.532 Z M47.756,57.072 C46.9799961,57.072 46.3660023,56.876002 45.914,56.484 C45.4619977,56.091998 45.2280001,55.500004 45.212,54.708 L46.268,54.708 C46.3000002,55.2040025 46.4459987,55.5739988 46.706,55.818 C46.9660013,56.0620012 47.3239977,56.184 47.78,56.184 C48.0120012,56.184 48.2219991,56.1580003 48.41,56.106 C48.5980009,56.0539997 48.7579993,55.9660006 48.89,55.842 C49.0220007,55.7179994 49.1239996,55.552001 49.196,55.344 C49.2680004,55.135999 49.304,54.8760016 49.304,54.564 L49.304,53.028 C49.1439992,53.3640017 48.9020016,53.631999 48.578,53.832 C48.2539984,54.032001 47.8600023,54.132 47.396,54.132 C46.995998,54.132 46.6620013,54.0720006 46.394,53.952 C46.1259987,53.8319994 45.9080008,53.6600011 45.74,53.436 C45.5879992,53.227999 45.4820003,52.9940013 45.422,52.734 C45.3619997,52.4739987 45.332,52.140002 45.332,51.732 L45.332,48.552 L46.376,48.552 L46.376,51.408 C46.376,51.6720013 46.3979998,51.9139989 46.442,52.134 C46.4860002,52.3540011 46.5619995,52.5439992 46.67,52.704 C46.7780005,52.8640008 46.9199991,52.9879996 47.096,53.076 C47.2720009,53.1640004 47.4959986,53.208 47.768,53.208 C48.0320013,53.208 48.259999,53.1580005 48.452,53.058 C48.644001,52.9579995 48.8019994,52.8220009 48.926,52.65 C49.0500006,52.4779991 49.1439997,52.2800011 49.208,52.056 C49.2720003,51.8319989 49.304,51.5960012 49.304,51.348 L49.304,48.552 L50.348,48.552 L50.348,54.564 C50.348,55.4360044 50.1280022,56.071998 49.688,56.472 C49.2479978,56.872002 48.6040042,57.072 47.756,57.072 Z" id="Policy" fill="#4C4C4C" fill-rule="evenodd"></path>
                                <g id="Group-16" stroke-width="1" fill="none" fill-rule="evenodd" transform="translate(24.000000, 14.000000)">
                                    <rect id="Rectangle-38" opacity="0.144757699" x="0" y="0" width="22" height="22"></rect>
                                    <g id="Rectangle-42" transform="translate(2.000000, 0.000000)">
                                        <mask id="mask-4" fill="white">
                                            <use xlink:href="#path-3"></use>
                                        </mask>
                                        <use id="Mask" fill="#333333" xlink:href="#path-3"></use>
                                        <path d="M7,0 L7,5.5 C7,6.32842712 6.32842712,7 5.5,7 L0,7 L7,0 Z" fill="#676767" mask="url(#mask-4)"></path>
                                    </g>
                                </g>
                            </g>
                        </g>
                        <g id="Details" mask="url(#mask-2)">
                            <g transform="translate(0.000000, 420.000000)">
                                <rect id="Selected" fill="none" x="0" y="0" width="70" height="70"></rect>
                                <path d="M18.692,45.6 L21.644,45.6 C22.0840022,45.6 22.4799982,45.6759992 22.832,45.828 C23.1840018,45.9800008 23.4859987,46.1879987 23.738,46.452 C23.9900013,46.7160013 24.1839993,47.0199983 24.32,47.364 C24.4560007,47.7080017 24.524,48.0719981 24.524,48.456 C24.524,48.8400019 24.4560007,49.2059983 24.32,49.554 C24.1839993,49.9020017 23.9900013,50.2079987 23.738,50.472 C23.4859987,50.7360013 23.1840018,50.9439992 22.832,51.096 C22.4799982,51.2480008 22.0840022,51.324 21.644,51.324 L19.784,51.324 L19.784,54 L18.692,54 L18.692,45.6 Z M21.644,50.328 C21.9160014,50.328 22.1619989,50.2780005 22.382,50.178 C22.6020011,50.0779995 22.7899992,49.9440008 22.946,49.776 C23.1020008,49.6079992 23.2219996,49.4100011 23.306,49.182 C23.3900004,48.9539989 23.432,48.7120013 23.432,48.456 C23.432,48.2079988 23.3900004,47.9700011 23.306,47.742 C23.2219996,47.5139989 23.1020008,47.3140009 22.946,47.142 C22.7899992,46.9699991 22.6020011,46.8340005 22.382,46.734 C22.1619989,46.6339995 21.9160014,46.584 21.644,46.584 L19.784,46.584 L19.784,50.328 L21.644,50.328 Z M29.156,49.512 C29.0439994,49.4879999 28.9540003,49.472 28.886,49.464 C28.8179997,49.456 28.7360005,49.452 28.64,49.452 C28.031997,49.452 27.5780015,49.647998 27.278,50.04 C26.9779985,50.432002 26.828,50.9559967 26.828,51.612 L26.828,54 L25.784,54 L25.784,48.552 L26.828,48.552 L26.828,49.62 C26.9720007,49.2759983 27.2139983,48.9980011 27.554,48.786 C27.8940017,48.5739989 28.2559981,48.468 28.64,48.468 C28.848001,48.468 29.0199993,48.4959997 29.156,48.552 L29.156,49.512 Z M32.3,54.132 C31.8679978,54.132 31.4760018,54.0560008 31.124,53.904 C30.7719982,53.7519992 30.4720012,53.5440013 30.224,53.28 C29.9759988,53.0159987 29.7840007,52.7120017 29.648,52.368 C29.5119993,52.0239983 29.444,51.6600019 29.444,51.276 C29.444,50.8919981 29.5119993,50.5260017 29.648,50.178 C29.7840007,49.8299983 29.9759988,49.5240013 30.224,49.26 C30.4720012,48.9959987 30.7719982,48.7880008 31.124,48.636 C31.4760018,48.4839992 31.8679978,48.408 32.3,48.408 C32.7400022,48.408 33.1359982,48.4839992 33.488,48.636 C33.8400018,48.7880008 34.1419987,48.9959987 34.394,49.26 C34.6460013,49.5240013 34.8399993,49.8299983 34.976,50.178 C35.1120007,50.5260017 35.18,50.8919981 35.18,51.276 C35.18,51.6600019 35.1120007,52.0239983 34.976,52.368 C34.8399993,52.7120017 34.6460013,53.0159987 34.394,53.28 C34.1419987,53.5440013 33.8400018,53.7519992 33.488,53.904 C33.1359982,54.0560008 32.7400022,54.132 32.3,54.132 Z M32.3,53.196 C32.5800014,53.196 32.8339989,53.1440005 33.062,53.04 C33.2900011,52.9359995 33.4839992,52.7980009 33.644,52.626 C33.8040008,52.4539991 33.9279996,52.2520012 34.016,52.02 C34.1040004,51.7879988 34.148,51.5400013 34.148,51.276 C34.148,51.0119987 34.1040004,50.7640012 34.016,50.532 C33.9279996,50.2999988 33.8040008,50.0960009 33.644,49.92 C33.4839992,49.7439991 33.2900011,49.6040005 33.062,49.5 C32.8339989,49.3959995 32.5800014,49.344 32.3,49.344 C32.0199986,49.344 31.7680011,49.3959995 31.544,49.5 C31.3199989,49.6040005 31.1300008,49.7439991 30.974,49.92 C30.8179992,50.0960009 30.6960004,50.2999988 30.608,50.532 C30.5199996,50.7640012 30.476,51.0119987 30.476,51.276 C30.476,51.5400013 30.5199996,51.7879988 30.608,52.02 C30.6960004,52.2520012 30.8179992,52.4539991 30.974,52.626 C31.1300008,52.7980009 31.3199989,52.9359995 31.544,53.04 C31.7680011,53.1440005 32.0199986,53.196 32.3,53.196 Z M39.584,46.56 C39.4879995,46.5279998 39.3920005,46.5040001 39.296,46.488 C39.1999995,46.4719999 39.0920006,46.464 38.972,46.464 C38.8599994,46.464 38.7480006,46.4719999 38.636,46.488 C38.5239994,46.5040001 38.4220005,46.5459997 38.33,46.614 C38.2379995,46.6820003 38.1640003,46.7839993 38.108,46.92 C38.0519997,47.0560007 38.024,47.2479988 38.024,47.496 L38.024,48.552 L39.584,48.552 L39.584,49.428 L38.024,49.428 L38.024,54 L36.98,54 L36.98,49.428 L35.804,49.428 L35.804,48.552 L36.98,48.552 L36.98,47.604 C36.98,47.1079975 37.0459993,46.7220014 37.178,46.446 C37.3100007,46.1699986 37.471999,45.9640007 37.664,45.828 C37.856001,45.6919993 38.0599989,45.6080002 38.276,45.576 C38.4920011,45.5439998 38.6799992,45.528 38.84,45.528 C39.0080008,45.528 39.1539994,45.5419999 39.278,45.57 C39.4020006,45.5980001 39.5039996,45.6319998 39.584,45.672 L39.584,46.56 Z M40.844,48.552 L41.888,48.552 L41.888,54 L40.844,54 L40.844,48.552 Z M40.568,46.5 C40.568,46.2679988 40.6439992,46.0740008 40.796,45.918 C40.9480008,45.7619992 41.1359989,45.684 41.36,45.684 C41.5920012,45.684 41.7859992,45.7619992 41.942,45.918 C42.0980008,46.0740008 42.176,46.2679988 42.176,46.5 C42.176,46.7240011 42.0980008,46.9119992 41.942,47.064 C41.7859992,47.2160008 41.5920012,47.292 41.36,47.292 C41.1359989,47.292 40.9480008,47.2160008 40.796,47.064 C40.6439992,46.9119992 40.568,46.7240011 40.568,46.5 Z M43.964,45.6 L45.008,45.6 L45.008,54 L43.964,54 L43.964,45.6 Z M49.124,49.212 C48.6519976,49.212 48.2680015,49.3459987 47.972,49.614 C47.6759985,49.8820013 47.5200001,50.2639975 47.504,50.76 L50.66,50.76 C50.66,50.2799976 50.5140015,49.9020014 50.222,49.626 C49.9299985,49.3499986 49.5640022,49.212 49.124,49.212 Z M47.492,51.552 C47.5,51.7840012 47.5379997,52.001999 47.606,52.206 C47.6740003,52.410001 47.7739993,52.5899992 47.906,52.746 C48.0380007,52.9020008 48.207999,53.0259995 48.416,53.118 C48.624001,53.2100005 48.8799985,53.256 49.184,53.256 C49.592002,53.256 49.9019989,53.1700009 50.114,52.998 C50.3260011,52.8259991 50.4759996,52.6240012 50.564,52.392 L51.62,52.392 C51.5719998,52.6240012 51.4840006,52.843999 51.356,53.052 C51.2279994,53.260001 51.060001,53.4439992 50.852,53.604 C50.643999,53.7640008 50.4000014,53.8919995 50.12,53.988 C49.8399986,54.0840005 49.5280017,54.132 49.184,54.132 C48.7279977,54.132 48.3280017,54.0560008 47.984,53.904 C47.6399983,53.7519992 47.3560011,53.5480013 47.132,53.292 C46.9079989,53.0359987 46.7400006,52.7340017 46.628,52.386 C46.5159994,52.0379983 46.46,51.668002 46.46,51.276 C46.46,50.867998 46.5199994,50.4880018 46.64,50.136 C46.7600006,49.7839982 46.9339989,49.4800013 47.162,49.224 C47.3900011,48.9679987 47.6699983,48.7680007 48.002,48.624 C48.3340017,48.4799993 48.7159978,48.408 49.148,48.408 C49.5000018,48.408 49.8299985,48.4699994 50.138,48.594 C50.4460015,48.7180006 50.7139989,48.8919989 50.942,49.116 C51.1700011,49.3400011 51.3479994,49.6019985 51.476,49.902 C51.6040006,50.2020015 51.668,50.5239983 51.668,50.868 C51.668,50.9480004 51.666,51.0439994 51.662,51.156 C51.658,51.2680006 51.6440001,51.3999992 51.62,51.552 L47.492,51.552 Z" id="Profile" fill="#4C4C4C" fill-rule="evenodd"></path>
                                <g id="Group-45" stroke-width="1" fill="none" fill-rule="evenodd" transform="translate(24.000000, 14.000000)">
                                    <rect id="Rectangle-72" fill="#333333" x="0" y="0" width="22" height="22" rx="2"></rect>
                                    <path d="M11,5 C12.6533333,5 14,6.34666667 14,8 C14,9.65333333 12.6533333,11 11,11 C9.34666667,11 8,9.65333333 8,8 C8,6.34666667 9.34666667,5 11,5 Z M16,17 L6,17 L6.15097495,16.0222575 C6.29231737,15.106897 6.84854476,14.308145 7.6580493,13.858073 L9.05628232,13.080677 C10.2649677,12.4086666 11.7350323,12.4086666 12.9437177,13.080677 L14.3419507,13.858073 C15.1514552,14.308145 15.7076826,15.106897 15.8490251,16.0222575 L16,17 Z" id="Combined-Shape" fill="#000000"></path>
                                </g>
                            </g>
                        </g>
                        <g id="Details" mask="url(#mask-2)">
                            <g transform="translate(0.000000, 70.000000)">
                                <rect id="Selected" fill="none" x="0" y="0" width="70" height="70"></rect>
                                <path d="M27.164,54 L26.06,54 L26.06,48.144 L23.648,54 L22.808,54 L20.384,48.144 L20.384,54 L19.292,54 L19.292,45.6 L20.348,45.6 L23.228,52.32 L26.108,45.6 L27.164,45.6 L27.164,54 Z M31.28,49.212 C30.8079976,49.212 30.4240015,49.3459987 30.128,49.614 C29.8319985,49.8820013 29.6760001,50.2639975 29.66,50.76 L32.816,50.76 C32.816,50.2799976 32.6700015,49.9020014 32.378,49.626 C32.0859985,49.3499986 31.7200022,49.212 31.28,49.212 Z M29.648,51.552 C29.656,51.7840012 29.6939997,52.001999 29.762,52.206 C29.8300003,52.410001 29.9299993,52.5899992 30.062,52.746 C30.1940007,52.9020008 30.363999,53.0259995 30.572,53.118 C30.780001,53.2100005 31.0359985,53.256 31.34,53.256 C31.748002,53.256 32.0579989,53.1700009 32.27,52.998 C32.4820011,52.8259991 32.6319996,52.6240012 32.72,52.392 L33.776,52.392 C33.7279998,52.6240012 33.6400006,52.843999 33.512,53.052 C33.3839994,53.260001 33.216001,53.4439992 33.008,53.604 C32.799999,53.7640008 32.5560014,53.8919995 32.276,53.988 C31.9959986,54.0840005 31.6840017,54.132 31.34,54.132 C30.8839977,54.132 30.4840017,54.0560008 30.14,53.904 C29.7959983,53.7519992 29.5120011,53.5480013 29.288,53.292 C29.0639989,53.0359987 28.8960006,52.7340017 28.784,52.386 C28.6719994,52.0379983 28.616,51.668002 28.616,51.276 C28.616,50.867998 28.6759994,50.4880018 28.796,50.136 C28.9160006,49.7839982 29.0899989,49.4800013 29.318,49.224 C29.5460011,48.9679987 29.8259983,48.7680007 30.158,48.624 C30.4900017,48.4799993 30.8719978,48.408 31.304,48.408 C31.6560018,48.408 31.9859985,48.4699994 32.294,48.594 C32.6020015,48.7180006 32.8699989,48.8919989 33.098,49.116 C33.3260011,49.3400011 33.5039994,49.6019985 33.632,49.902 C33.7600006,50.2020015 33.824,50.5239983 33.824,50.868 C33.824,50.9480004 33.822,51.0439994 33.818,51.156 C33.814,51.2680006 33.8000001,51.3999992 33.776,51.552 L29.648,51.552 Z M39.596,53.052 C39.4199991,53.3880017 39.1580017,53.651999 38.81,53.844 C38.4619983,54.036001 38.088002,54.132 37.688,54.132 C37.2719979,54.132 36.8920017,54.0560008 36.548,53.904 C36.2039983,53.7519992 35.9100012,53.5440013 35.666,53.28 C35.4219988,53.0159987 35.2320007,52.7120017 35.096,52.368 C34.9599993,52.0239983 34.892,51.6600019 34.892,51.276 C34.892,50.8919981 34.9599993,50.5260017 35.096,50.178 C35.2320007,49.8299983 35.4219988,49.5240013 35.666,49.26 C35.9100012,48.9959987 36.2039983,48.7880008 36.548,48.636 C36.8920017,48.4839992 37.2719979,48.408 37.688,48.408 C38.088002,48.408 38.4619983,48.503999 38.81,48.696 C39.1580017,48.888001 39.4199991,49.1519983 39.596,49.488 L39.596,45.6 L40.628,45.6 L40.628,54 L39.596,54 L39.596,53.052 Z M37.748,53.196 C38.0280014,53.196 38.2819989,53.1440005 38.51,53.04 C38.7380011,52.9359995 38.9319992,52.7980009 39.092,52.626 C39.2520008,52.4539991 39.3759996,52.2520012 39.464,52.02 C39.5520004,51.7879988 39.596,51.5400013 39.596,51.276 C39.596,51.0119987 39.5520004,50.7640012 39.464,50.532 C39.3759996,50.2999988 39.2520008,50.0960009 39.092,49.92 C38.9319992,49.7439991 38.7380011,49.6040005 38.51,49.5 C38.2819989,49.3959995 38.0280014,49.344 37.748,49.344 C37.4679986,49.344 37.2160011,49.3959995 36.992,49.5 C36.7679989,49.6040005 36.5780008,49.7439991 36.422,49.92 C36.2659992,50.0960009 36.1440004,50.2999988 36.056,50.532 C35.9679996,50.7640012 35.924,51.0119987 35.924,51.276 C35.924,51.5400013 35.9679996,51.7879988 36.056,52.02 C36.1440004,52.2520012 36.2659992,52.4539991 36.422,52.626 C36.5780008,52.7980009 36.7679989,52.9359995 36.992,53.04 C37.2160011,53.1440005 37.4679986,53.196 37.748,53.196 Z M42.5,48.552 L43.544,48.552 L43.544,54 L42.5,54 L42.5,48.552 Z M42.188,46.488 C42.188,46.2559988 42.2679992,46.0560008 42.428,45.888 C42.5880008,45.7199992 42.7839988,45.636 43.016,45.636 C43.2480012,45.636 43.4479992,45.7199992 43.616,45.888 C43.7840008,46.0560008 43.868,46.2559988 43.868,46.488 C43.868,46.7200012 43.7840008,46.9159992 43.616,47.076 C43.4479992,47.2360008 43.2480012,47.316 43.016,47.316 C42.7839988,47.316 42.5880008,47.2360008 42.428,47.076 C42.2679992,46.9159992 42.188,46.7200012 42.188,46.488 Z M50.708,48.552 L50.708,54 L49.676,54 L49.676,53.052 C49.4999991,53.3880017 49.2380017,53.651999 48.89,53.844 C48.5419983,54.036001 48.168002,54.132 47.768,54.132 C47.3519979,54.132 46.9720017,54.0560008 46.628,53.904 C46.2839983,53.7519992 45.9900012,53.5440013 45.746,53.28 C45.5019988,53.0159987 45.3120007,52.7120017 45.176,52.368 C45.0399993,52.0239983 44.972,51.6600019 44.972,51.276 C44.972,50.8919981 45.0399993,50.5260017 45.176,50.178 C45.3120007,49.8299983 45.5019988,49.5240013 45.746,49.26 C45.9900012,48.9959987 46.2839983,48.7880008 46.628,48.636 C46.9720017,48.4839992 47.3519979,48.408 47.768,48.408 C48.168002,48.408 48.5419983,48.503999 48.89,48.696 C49.2380017,48.888001 49.4999991,49.1519983 49.676,49.488 L49.676,48.552 L50.708,48.552 Z M47.828,53.196 C48.1080014,53.196 48.3619989,53.1440005 48.59,53.04 C48.8180011,52.9359995 49.0119992,52.7980009 49.172,52.626 C49.3320008,52.4539991 49.4559996,52.2520012 49.544,52.02 C49.6320004,51.7879988 49.676,51.5400013 49.676,51.276 C49.676,51.0119987 49.6320004,50.7640012 49.544,50.532 C49.4559996,50.2999988 49.3320008,50.0960009 49.172,49.92 C49.0119992,49.7439991 48.8180011,49.6040005 48.59,49.5 C48.3619989,49.3959995 48.1080014,49.344 47.828,49.344 C47.5479986,49.344 47.2960011,49.3959995 47.072,49.5 C46.8479989,49.6040005 46.6580008,49.7439991 46.502,49.92 C46.3459992,50.0960009 46.2240004,50.2999988 46.136,50.532 C46.0479996,50.7640012 46.004,51.0119987 46.004,51.276 C46.004,51.5400013 46.0479996,51.7879988 46.136,52.02 C46.2240004,52.2520012 46.3459992,52.4539991 46.502,52.626 C46.6580008,52.7980009 46.8479989,52.9359995 47.072,53.04 C47.2960011,53.1440005 47.5479986,53.196 47.828,53.196 Z" id="Media" fill="#4C4C4C" fill-rule="evenodd"></path>
                                <g id="Group-38" stroke-width="1" fill="none" fill-rule="evenodd" transform="translate(24.000000, 14.000000)">
                                    <path d="M14,22 L8,22 L8,20 L14,20 L14,22 Z M17,22 L17,20 L20,20 L20,17 L22,17 L22,20 C22,21.1045695 21.1045695,22 20,22 L17,22 Z M5,22 L2,22 C0.8954305,22 0,21.1045695 0,20 L0,17 L2,17 L2,20 L5,20 L5,22 Z M14,0 L14,2 L8,2 L8,0 L14,0 Z M17,0 L20,0 C21.1045695,0 22,0.8954305 22,2 L22,5 L20,5 L20,2 L17,2 L17,0 Z M5,0 L5,2 L2,2 L2,5 L0,5 L0,2 C0,0.8954305 0.8954305,0 2,0 L5,0 Z M22,14 L20,14 L20,8 L22,8 L22,14 Z M0,14 L0,8 L2,8 L2,14 L0,14 Z" id="Combined-Shape" fill="#FFFFFF" fill-rule="nonzero" opacity="0.201030344"></path>
                                    <path d="M13.0833333,10.5578828 L12.0397454,15.4847023 C11.9257472,16.0228924 11.3779093,16.4591818 10.8253775,16.4591818 L11.1746225,16.4591818 C10.6179439,16.4591818 10.0727135,16.0156252 9.96025459,15.4847023 L8.91666667,10.5578828 L6,10.5578828 L10.3256778,5.87173191 C10.6980956,5.46827919 11.2977991,5.46383184 11.6743222,5.87173191 L16,10.5578828 L13.0833333,10.5578828 Z" id="Combined-Shape" fill="#FFFFFF" opacity="0.402909873"></path>
                                </g>
                            </g>
                        </g>
                        <g id="Details" mask="url(#mask-2)">
                            <g transform="translate(0.000000, 140.000000)">
                                <rect id="Selected" fill="none" x="0" y="0" width="70" height="70"></rect>
                                <path d="M10.76,45.6 L11.888,45.6 L11.888,54 L10.76,54 L10.76,45.6 Z M13.76,48.552 L14.804,48.552 L14.804,49.512 C14.9640008,49.1759983 15.2079984,48.908001 15.536,48.708 C15.8640016,48.507999 16.2599977,48.408 16.724,48.408 C17.1080019,48.408 17.4359986,48.4699994 17.708,48.594 C17.9800014,48.7180006 18.1959992,48.8959988 18.356,49.128 C18.5080008,49.336001 18.6159997,49.5679987 18.68,49.824 C18.7440003,50.0800013 18.776,50.3999981 18.776,50.784 L18.776,54 L17.732,54 L17.732,51.108 C17.732,50.8599988 17.7080002,50.6260011 17.66,50.406 C17.6119998,50.1859989 17.5340005,49.9980008 17.426,49.842 C17.3179995,49.6859992 17.1760009,49.5620005 17,49.47 C16.8239991,49.3779995 16.6080013,49.332 16.352,49.332 C16.0879987,49.332 15.860001,49.3839995 15.668,49.488 C15.475999,49.5920005 15.3160006,49.7299991 15.188,49.902 C15.0599994,50.0740009 14.9640003,50.2719989 14.9,50.496 C14.8359997,50.7200011 14.804,50.9519988 14.804,51.192 L14.804,54 L13.76,54 L13.76,48.552 Z M20.78,48.552 L22.484,52.512 L24.212,48.552 L25.34,48.552 L22.844,54 L22.124,54 L19.652,48.552 L20.78,48.552 Z M28.268,49.212 C27.7959976,49.212 27.4120015,49.3459987 27.116,49.614 C26.8199985,49.8820013 26.6640001,50.2639975 26.648,50.76 L29.804,50.76 C29.804,50.2799976 29.6580015,49.9020014 29.366,49.626 C29.0739985,49.3499986 28.7080022,49.212 28.268,49.212 Z M26.636,51.552 C26.644,51.7840012 26.6819997,52.001999 26.75,52.206 C26.8180003,52.410001 26.9179993,52.5899992 27.05,52.746 C27.1820007,52.9020008 27.351999,53.0259995 27.56,53.118 C27.768001,53.2100005 28.0239985,53.256 28.328,53.256 C28.736002,53.256 29.0459989,53.1700009 29.258,52.998 C29.4700011,52.8259991 29.6199996,52.6240012 29.708,52.392 L30.764,52.392 C30.7159998,52.6240012 30.6280006,52.843999 30.5,53.052 C30.3719994,53.260001 30.204001,53.4439992 29.996,53.604 C29.787999,53.7640008 29.5440014,53.8919995 29.264,53.988 C28.9839986,54.0840005 28.6720017,54.132 28.328,54.132 C27.8719977,54.132 27.4720017,54.0560008 27.128,53.904 C26.7839983,53.7519992 26.5000011,53.5480013 26.276,53.292 C26.0519989,53.0359987 25.8840006,52.7340017 25.772,52.386 C25.6599994,52.0379983 25.604,51.668002 25.604,51.276 C25.604,50.867998 25.6639994,50.4880018 25.784,50.136 C25.9040006,49.7839982 26.0779989,49.4800013 26.306,49.224 C26.5340011,48.9679987 26.8139983,48.7680007 27.146,48.624 C27.4780017,48.4799993 27.8599978,48.408 28.292,48.408 C28.6440018,48.408 28.9739985,48.4699994 29.282,48.594 C29.5900015,48.7180006 29.8579989,48.8919989 30.086,49.116 C30.3140011,49.3400011 30.4919994,49.6019985 30.62,49.902 C30.7480006,50.2020015 30.812,50.5239983 30.812,50.868 C30.812,50.9480004 30.81,51.0439994 30.806,51.156 C30.802,51.2680006 30.7880001,51.3999992 30.764,51.552 L26.636,51.552 Z M32.324,48.552 L33.368,48.552 L33.368,49.512 C33.5280008,49.1759983 33.7719984,48.908001 34.1,48.708 C34.4280016,48.507999 34.8239977,48.408 35.288,48.408 C35.6720019,48.408 35.9999986,48.4699994 36.272,48.594 C36.5440014,48.7180006 36.7599992,48.8959988 36.92,49.128 C37.0720008,49.336001 37.1799997,49.5679987 37.244,49.824 C37.3080003,50.0800013 37.34,50.3999981 37.34,50.784 L37.34,54 L36.296,54 L36.296,51.108 C36.296,50.8599988 36.2720002,50.6260011 36.224,50.406 C36.1759998,50.1859989 36.0980005,49.9980008 35.99,49.842 C35.8819995,49.6859992 35.7400009,49.5620005 35.564,49.47 C35.3879991,49.3779995 35.1720013,49.332 34.916,49.332 C34.6519987,49.332 34.424001,49.3839995 34.232,49.488 C34.039999,49.5920005 33.8800006,49.7299991 33.752,49.902 C33.6239994,50.0740009 33.5280003,50.2719989 33.464,50.496 C33.3999997,50.7200011 33.368,50.9519988 33.368,51.192 L33.368,54 L32.324,54 L32.324,48.552 Z M42.068,54 C41.9639995,54.0160001 41.8260009,54.0319999 41.654,54.048 C41.4819991,54.0640001 41.3080009,54.072 41.132,54.072 C40.9639992,54.072 40.780001,54.0560002 40.58,54.024 C40.379999,53.9919998 40.1940009,53.9140006 40.022,53.79 C39.8499991,53.6659994 39.7060006,53.4760013 39.59,53.22 C39.4739994,52.9639987 39.416,52.6120022 39.416,52.164 L39.416,49.428 L38.408,49.428 L38.408,48.552 L39.416,48.552 L39.416,46.716 L40.46,46.716 L40.46,48.552 L41.876,48.552 L41.876,49.428 L40.46,49.428 L40.46,51.936 C40.46,52.2000013 40.4819998,52.4099992 40.526,52.566 C40.5700002,52.7220008 40.6319996,52.8419996 40.712,52.926 C40.7920004,53.0100004 40.8859995,53.0639999 40.994,53.088 C41.1020005,53.1120001 41.2239993,53.124 41.36,53.124 C41.4720006,53.124 41.5979993,53.12 41.738,53.112 C41.8780007,53.104 41.9879996,53.0920001 42.068,53.076 L42.068,54 Z M45.548,54.132 C45.1159978,54.132 44.7240018,54.0560008 44.372,53.904 C44.0199982,53.7519992 43.7200012,53.5440013 43.472,53.28 C43.2239988,53.0159987 43.0320007,52.7120017 42.896,52.368 C42.7599993,52.0239983 42.692,51.6600019 42.692,51.276 C42.692,50.8919981 42.7599993,50.5260017 42.896,50.178 C43.0320007,49.8299983 43.2239988,49.5240013 43.472,49.26 C43.7200012,48.9959987 44.0199982,48.7880008 44.372,48.636 C44.7240018,48.4839992 45.1159978,48.408 45.548,48.408 C45.9880022,48.408 46.3839982,48.4839992 46.736,48.636 C47.0880018,48.7880008 47.3899987,48.9959987 47.642,49.26 C47.8940013,49.5240013 48.0879993,49.8299983 48.224,50.178 C48.3600007,50.5260017 48.428,50.8919981 48.428,51.276 C48.428,51.6600019 48.3600007,52.0239983 48.224,52.368 C48.0879993,52.7120017 47.8940013,53.0159987 47.642,53.28 C47.3899987,53.5440013 47.0880018,53.7519992 46.736,53.904 C46.3839982,54.0560008 45.9880022,54.132 45.548,54.132 Z M45.548,53.196 C45.8280014,53.196 46.0819989,53.1440005 46.31,53.04 C46.5380011,52.9359995 46.7319992,52.7980009 46.892,52.626 C47.0520008,52.4539991 47.1759996,52.2520012 47.264,52.02 C47.3520004,51.7879988 47.396,51.5400013 47.396,51.276 C47.396,51.0119987 47.3520004,50.7640012 47.264,50.532 C47.1759996,50.2999988 47.0520008,50.0960009 46.892,49.92 C46.7319992,49.7439991 46.5380011,49.6040005 46.31,49.5 C46.0819989,49.3959995 45.8280014,49.344 45.548,49.344 C45.2679986,49.344 45.0160011,49.3959995 44.792,49.5 C44.5679989,49.6040005 44.3780008,49.7439991 44.222,49.92 C44.0659992,50.0960009 43.9440004,50.2999988 43.856,50.532 C43.7679996,50.7640012 43.724,51.0119987 43.724,51.276 C43.724,51.5400013 43.7679996,51.7879988 43.856,52.02 C43.9440004,52.2520012 44.0659992,52.4539991 44.222,52.626 C44.3780008,52.7980009 44.5679989,52.9359995 44.792,53.04 C45.0160011,53.1440005 45.2679986,53.196 45.548,53.196 Z M53.228,49.512 C53.1159994,49.4879999 53.0260003,49.472 52.958,49.464 C52.8899997,49.456 52.8080005,49.452 52.712,49.452 C52.103997,49.452 51.6500015,49.647998 51.35,50.04 C51.0499985,50.432002 50.9,50.9559967 50.9,51.612 L50.9,54 L49.856,54 L49.856,48.552 L50.9,48.552 L50.9,49.62 C51.0440007,49.2759983 51.2859983,48.9980011 51.626,48.786 C51.9660017,48.5739989 52.3279981,48.468 52.712,48.468 C52.920001,48.468 53.0919993,48.4959997 53.228,48.552 L53.228,49.512 Z M56.684,57.072 C55.9079961,57.072 55.2940023,56.876002 54.842,56.484 C54.3899977,56.091998 54.1560001,55.500004 54.14,54.708 L55.196,54.708 C55.2280002,55.2040025 55.3739987,55.5739988 55.634,55.818 C55.8940013,56.0620012 56.2519977,56.184 56.708,56.184 C56.9400012,56.184 57.1499991,56.1580003 57.338,56.106 C57.5260009,56.0539997 57.6859993,55.9660006 57.818,55.842 C57.9500007,55.7179994 58.0519996,55.552001 58.124,55.344 C58.1960004,55.135999 58.232,54.8760016 58.232,54.564 L58.232,53.028 C58.0719992,53.3640017 57.8300016,53.631999 57.506,53.832 C57.1819984,54.032001 56.7880023,54.132 56.324,54.132 C55.923998,54.132 55.5900013,54.0720006 55.322,53.952 C55.0539987,53.8319994 54.8360008,53.6600011 54.668,53.436 C54.5159992,53.227999 54.4100003,52.9940013 54.35,52.734 C54.2899997,52.4739987 54.26,52.140002 54.26,51.732 L54.26,48.552 L55.304,48.552 L55.304,51.408 C55.304,51.6720013 55.3259998,51.9139989 55.37,52.134 C55.4140002,52.3540011 55.4899995,52.5439992 55.598,52.704 C55.7060005,52.8640008 55.8479991,52.9879996 56.024,53.076 C56.2000009,53.1640004 56.4239986,53.208 56.696,53.208 C56.9600013,53.208 57.187999,53.1580005 57.38,53.058 C57.572001,52.9579995 57.7299994,52.8220009 57.854,52.65 C57.9780006,52.4779991 58.0719997,52.2800011 58.136,52.056 C58.2000003,51.8319989 58.232,51.5960012 58.232,51.348 L58.232,48.552 L59.276,48.552 L59.276,54.564 C59.276,55.4360044 59.0560022,56.071998 58.616,56.472 C58.1759978,56.872002 57.5320042,57.072 56.684,57.072 Z" id="Inventory" fill="#4C4C4C" fill-rule="evenodd"></path>
                                <g id="Group-44" stroke-width="1" fill="none" fill-rule="evenodd" transform="translate(24.000000, 14.000000)">
                                    <rect id="Rectangle-68" x="0" y="0" width="22" height="22"></rect>
                                    <g id="Polygon-3" transform="translate(2.000000, 0.000000)">
                                        <mask id="mask-6" fill="white">
                                            <use xlink:href="#path-5"></use>
                                        </mask>
                                        <use id="Mask" fill="#333333" xlink:href="#path-5"></use>
                                        <path d="M16.8663287,6.74704812 L10.75,10.2783122 C9.97649731,10.7248942 9.02350269,10.7248942 8.25,10.2783122 L2.13367127,6.74704812 C2.26831344,6.4232917 2.49949776,6.14280863 2.8034859,5.94897024 L8.5714351,2.27103087 C9.13816269,1.90965638 9.86183731,1.90965638 10.4285649,2.27103087 L16.1965141,5.94897024 C16.5005022,6.14280863 16.7316866,6.4232917 16.8663287,6.74704812 Z" id="Combined-Shape" fill="#000000" mask="url(#mask-6)"></path>
                                    </g>
                                </g>
                            </g>
                        </g>
                        <g id="Details" mask="url(#mask-2)">
                            <g transform="translate(0.000000, 210.000000)">
                                <rect id="Selected" fill="none" x="0" y="0" width="70" height="70"></rect>
                                <path d="M12.752,51.324 C12.752,51.9000029 12.9239983,52.3579983 13.268,52.698 C13.6120017,53.0380017 14.0719971,53.208 14.648,53.208 C15.1360024,53.208 15.5359984,53.0800013 15.848,52.824 C16.1600016,52.5679987 16.316,52.2200022 16.316,51.78 C16.316,51.5239987 16.2680005,51.3120008 16.172,51.144 C16.0759995,50.9759992 15.9500008,50.8340006 15.794,50.718 C15.6379992,50.6019994 15.4660009,50.5100003 15.278,50.442 C15.0899991,50.3739997 14.9040009,50.3120003 14.72,50.256 C14.3439981,50.1359994 13.9880017,50.0120006 13.652,49.884 C13.3159983,49.7559994 13.0220013,49.5980009 12.77,49.41 C12.5179987,49.2219991 12.3200007,48.9880014 12.176,48.708 C12.0319993,48.4279986 11.96,48.0760021 11.96,47.652 C11.96,47.3159983 12.0259993,47.0120014 12.158,46.74 C12.2900007,46.4679986 12.4719988,46.232001 12.704,46.032 C12.9360012,45.831999 13.2119984,45.6780005 13.532,45.57 C13.8520016,45.4619995 14.1999981,45.408 14.576,45.408 C14.9600019,45.408 15.3119984,45.4699994 15.632,45.594 C15.9520016,45.7180006 16.2279988,45.8919989 16.46,46.116 C16.6920012,46.3400011 16.8759993,46.6099984 17.012,46.926 C17.1480007,47.2420016 17.216,47.5919981 17.216,47.976 L16.124,47.976 C16.116,47.4959976 15.9780013,47.1120014 15.71,46.824 C15.4419987,46.5359986 15.0720024,46.392 14.6,46.392 C14.1359977,46.392 13.7620014,46.5039989 13.478,46.728 C13.1939986,46.9520011 13.052,47.259998 13.052,47.652 C13.052,47.8840012 13.0959996,48.0779992 13.184,48.234 C13.2720004,48.3900008 13.3879993,48.5219995 13.532,48.63 C13.6760007,48.7380005 13.8419991,48.8299996 14.03,48.906 C14.2180009,48.9820004 14.411999,49.0479997 14.612,49.104 C14.9320016,49.2080005 15.2579983,49.3239994 15.59,49.452 C15.9220017,49.5800006 16.2239986,49.739999 16.496,49.932 C16.7680014,50.124001 16.9879992,50.3579986 17.156,50.634 C17.3240008,50.9100014 17.408,51.251998 17.408,51.66 C17.408,52.068002 17.3340007,52.4299984 17.186,52.746 C17.0379993,53.0620016 16.8360013,53.3279989 16.58,53.544 C16.3239987,53.7600011 16.0240017,53.9219995 15.68,54.03 C15.3359983,54.1380005 14.964002,54.192 14.564,54.192 C14.155998,54.192 13.7760018,54.1260007 13.424,53.994 C13.0719982,53.8619993 12.7660013,53.6740012 12.506,53.43 C12.2459987,53.1859988 12.0400008,52.8860018 11.888,52.53 C11.7359992,52.1739982 11.66,51.7720022 11.66,51.324 L12.752,51.324 Z M18.908,45.6 L19.952,45.6 L19.952,49.512 C20.1120008,49.1759983 20.3559984,48.908001 20.684,48.708 C21.0120016,48.507999 21.4079977,48.408 21.872,48.408 C22.2560019,48.408 22.5839986,48.4699994 22.856,48.594 C23.1280014,48.7180006 23.3439992,48.8959988 23.504,49.128 C23.6560008,49.336001 23.7639997,49.5679987 23.828,49.824 C23.8920003,50.0800013 23.924,50.3999981 23.924,50.784 L23.924,54 L22.88,54 L22.88,51.108 C22.88,50.8599988 22.8560002,50.6260011 22.808,50.406 C22.7599998,50.1859989 22.6820005,49.9980008 22.574,49.842 C22.4659995,49.6859992 22.3240009,49.5620005 22.148,49.47 C21.9719991,49.3779995 21.7560013,49.332 21.5,49.332 C21.2359987,49.332 21.008001,49.3839995 20.816,49.488 C20.623999,49.5920005 20.4640006,49.7299991 20.336,49.902 C20.2079994,50.0740009 20.1120003,50.2719989 20.048,50.496 C19.9839997,50.7200011 19.952,50.9519988 19.952,51.192 L19.952,54 L18.908,54 L18.908,45.6 Z M25.688,48.552 L26.732,48.552 L26.732,54 L25.688,54 L25.688,48.552 Z M25.376,46.488 C25.376,46.2559988 25.4559992,46.0560008 25.616,45.888 C25.7760008,45.7199992 25.9719988,45.636 26.204,45.636 C26.4360012,45.636 26.6359992,45.7199992 26.804,45.888 C26.9720008,46.0560008 27.056,46.2559988 27.056,46.488 C27.056,46.7200012 26.9720008,46.9159992 26.804,47.076 C26.6359992,47.2360008 26.4360012,47.316 26.204,47.316 C25.9719988,47.316 25.7760008,47.2360008 25.616,47.076 C25.4559992,46.9159992 25.376,46.7200012 25.376,46.488 Z M29.648,49.488 C29.8240009,49.1519983 30.0839983,48.888001 30.428,48.696 C30.7720017,48.503999 31.143998,48.408 31.544,48.408 C31.9600021,48.408 32.3419983,48.4839992 32.69,48.636 C33.0380017,48.7880008 33.3339988,48.9959987 33.578,49.26 C33.8220012,49.5240013 34.0119993,49.8299983 34.148,50.178 C34.2840007,50.5260017 34.352,50.8919981 34.352,51.276 C34.352,51.6600019 34.2840007,52.0239983 34.148,52.368 C34.0119993,52.7120017 33.8220012,53.0159987 33.578,53.28 C33.3339988,53.5440013 33.0380017,53.7519992 32.69,53.904 C32.3419983,54.0560008 31.9600021,54.132 31.544,54.132 C31.143998,54.132 30.7720017,54.036001 30.428,53.844 C30.0839983,53.651999 29.8240009,53.3880017 29.648,53.052 L29.648,56.952 L28.604,56.952 L28.604,48.552 L29.648,48.552 L29.648,49.488 Z M31.496,49.344 C31.2159986,49.344 30.9620011,49.3959995 30.734,49.5 C30.5059989,49.6040005 30.3120008,49.7439991 30.152,49.92 C29.9919992,50.0960009 29.8680004,50.2999988 29.78,50.532 C29.6919996,50.7640012 29.648,51.0119987 29.648,51.276 C29.648,51.5400013 29.6919996,51.7879988 29.78,52.02 C29.8680004,52.2520012 29.9919992,52.4539991 30.152,52.626 C30.3120008,52.7980009 30.5059989,52.9359995 30.734,53.04 C30.9620011,53.1440005 31.2159986,53.196 31.496,53.196 C31.7680014,53.196 32.0159989,53.1440005 32.24,53.04 C32.4640011,52.9359995 32.6539992,52.7980009 32.81,52.626 C32.9660008,52.4539991 33.0879996,52.2520012 33.176,52.02 C33.2640004,51.7879988 33.308,51.5400013 33.308,51.276 C33.308,51.0119987 33.2640004,50.7640012 33.176,50.532 C33.0879996,50.2999988 32.9660008,50.0960009 32.81,49.92 C32.6539992,49.7439991 32.4640011,49.6040005 32.24,49.5 C32.0159989,49.3959995 31.7680014,49.344 31.496,49.344 Z M36.836,49.488 C37.0120009,49.1519983 37.2719983,48.888001 37.616,48.696 C37.9600017,48.503999 38.331998,48.408 38.732,48.408 C39.1480021,48.408 39.5299983,48.4839992 39.878,48.636 C40.2260017,48.7880008 40.5219988,48.9959987 40.766,49.26 C41.0100012,49.5240013 41.1999993,49.8299983 41.336,50.178 C41.4720007,50.5260017 41.54,50.8919981 41.54,51.276 C41.54,51.6600019 41.4720007,52.0239983 41.336,52.368 C41.1999993,52.7120017 41.0100012,53.0159987 40.766,53.28 C40.5219988,53.5440013 40.2260017,53.7519992 39.878,53.904 C39.5299983,54.0560008 39.1480021,54.132 38.732,54.132 C38.331998,54.132 37.9600017,54.036001 37.616,53.844 C37.2719983,53.651999 37.0120009,53.3880017 36.836,53.052 L36.836,56.952 L35.792,56.952 L35.792,48.552 L36.836,48.552 L36.836,49.488 Z M38.684,49.344 C38.4039986,49.344 38.1500011,49.3959995 37.922,49.5 C37.6939989,49.6040005 37.5000008,49.7439991 37.34,49.92 C37.1799992,50.0960009 37.0560004,50.2999988 36.968,50.532 C36.8799996,50.7640012 36.836,51.0119987 36.836,51.276 C36.836,51.5400013 36.8799996,51.7879988 36.968,52.02 C37.0560004,52.2520012 37.1799992,52.4539991 37.34,52.626 C37.5000008,52.7980009 37.6939989,52.9359995 37.922,53.04 C38.1500011,53.1440005 38.4039986,53.196 38.684,53.196 C38.9560014,53.196 39.2039989,53.1440005 39.428,53.04 C39.6520011,52.9359995 39.8419992,52.7980009 39.998,52.626 C40.1540008,52.4539991 40.2759996,52.2520012 40.364,52.02 C40.4520004,51.7879988 40.496,51.5400013 40.496,51.276 C40.496,51.0119987 40.4520004,50.7640012 40.364,50.532 C40.2759996,50.2999988 40.1540008,50.0960009 39.998,49.92 C39.8419992,49.7439991 39.6520011,49.6040005 39.428,49.5 C39.2039989,49.3959995 38.9560014,49.344 38.684,49.344 Z M42.98,48.552 L44.024,48.552 L44.024,54 L42.98,54 L42.98,48.552 Z M42.668,46.488 C42.668,46.2559988 42.7479992,46.0560008 42.908,45.888 C43.0680008,45.7199992 43.2639988,45.636 43.496,45.636 C43.7280012,45.636 43.9279992,45.7199992 44.096,45.888 C44.2640008,46.0560008 44.348,46.2559988 44.348,46.488 C44.348,46.7200012 44.2640008,46.9159992 44.096,47.076 C43.9279992,47.2360008 43.7280012,47.316 43.496,47.316 C43.2639988,47.316 43.0680008,47.2360008 42.908,47.076 C42.7479992,46.9159992 42.668,46.7200012 42.668,46.488 Z M45.896,48.552 L46.94,48.552 L46.94,49.512 C47.1000008,49.1759983 47.3439984,48.908001 47.672,48.708 C48.0000016,48.507999 48.3959977,48.408 48.86,48.408 C49.2440019,48.408 49.5719986,48.4699994 49.844,48.594 C50.1160014,48.7180006 50.3319992,48.8959988 50.492,49.128 C50.6440008,49.336001 50.7519997,49.5679987 50.816,49.824 C50.8800003,50.0800013 50.912,50.3999981 50.912,50.784 L50.912,54 L49.868,54 L49.868,51.108 C49.868,50.8599988 49.8440002,50.6260011 49.796,50.406 C49.7479998,50.1859989 49.6700005,49.9980008 49.562,49.842 C49.4539995,49.6859992 49.3120009,49.5620005 49.136,49.47 C48.9599991,49.3779995 48.7440013,49.332 48.488,49.332 C48.2239987,49.332 47.996001,49.3839995 47.804,49.488 C47.611999,49.5920005 47.4520006,49.7299991 47.324,49.902 C47.1959994,50.0740009 47.1000003,50.2719989 47.036,50.496 C46.9719997,50.7200011 46.94,50.9519988 46.94,51.192 L46.94,54 L45.896,54 L45.896,48.552 Z M55.088,49.344 C54.8079986,49.344 54.5560011,49.3959995 54.332,49.5 C54.1079989,49.6040005 53.9180008,49.7439991 53.762,49.92 C53.6059992,50.0960009 53.4840004,50.2999988 53.396,50.532 C53.3079996,50.7640012 53.264,51.0119987 53.264,51.276 C53.264,51.5400013 53.3079996,51.7879988 53.396,52.02 C53.4840004,52.2520012 53.6059992,52.4539991 53.762,52.626 C53.9180008,52.7980009 54.1079989,52.9359995 54.332,53.04 C54.5560011,53.1440005 54.8079986,53.196 55.088,53.196 C55.3680014,53.196 55.6219989,53.1440005 55.85,53.04 C56.0780011,52.9359995 56.2719992,52.7980009 56.432,52.626 C56.5920008,52.4539991 56.7159996,52.2520012 56.804,52.02 C56.8920004,51.7879988 56.936,51.5400013 56.936,51.276 C56.936,51.0119987 56.8920004,50.7640012 56.804,50.532 C56.7159996,50.2999988 56.5920008,50.0960009 56.432,49.92 C56.2719992,49.7439991 56.0780011,49.6040005 55.85,49.5 C55.6219989,49.3959995 55.3680014,49.344 55.088,49.344 Z M57.968,54.348 C57.968,54.8360024 57.9020007,55.2519983 57.77,55.596 C57.6379993,55.9400017 57.4460013,56.2219989 57.194,56.442 C56.9419987,56.6620011 56.6380018,56.8219995 56.282,56.922 C55.9259982,57.0220005 55.5200023,57.072 55.064,57.072 C54.5999977,57.072 54.1980017,57.0060007 53.858,56.874 C53.5179983,56.7419993 53.2360011,56.5660011 53.012,56.346 C52.7879989,56.1259989 52.6180006,55.8720014 52.502,55.584 C52.3859994,55.2959986 52.3200001,55.0000015 52.304,54.696 L53.36,54.696 C53.3760001,54.888001 53.4199996,55.0719991 53.492,55.248 C53.5640004,55.4240009 53.6679993,55.5779993 53.804,55.71 C53.9400007,55.8420007 54.111999,55.9479996 54.32,56.028 C54.528001,56.1080004 54.7759986,56.148 55.064,56.148 C55.6480029,56.148 56.1059983,56.0080014 56.438,55.728 C56.7700017,55.4479986 56.936,54.9880032 56.936,54.348 L56.936,53.052 C56.7599991,53.3880017 56.4980017,53.651999 56.15,53.844 C55.8019983,54.036001 55.428002,54.132 55.028,54.132 C54.6119979,54.132 54.2320017,54.0560008 53.888,53.904 C53.5439983,53.7519992 53.2500012,53.5440013 53.006,53.28 C52.7619988,53.0159987 52.5720007,52.7120017 52.436,52.368 C52.2999993,52.0239983 52.232,51.6600019 52.232,51.276 C52.232,50.8919981 52.2999993,50.5260017 52.436,50.178 C52.5720007,49.8299983 52.7619988,49.5240013 53.006,49.26 C53.2500012,48.9959987 53.5439983,48.7880008 53.888,48.636 C54.2320017,48.4839992 54.6119979,48.408 55.028,48.408 C55.428002,48.408 55.8019983,48.503999 56.15,48.696 C56.4980017,48.888001 56.7599991,49.1519983 56.936,49.488 L56.936,48.552 L57.968,48.552 L57.968,54.348 Z" id="Shipping" fill="#4C4C4C" fill-rule="evenodd"></path>
                                <g id="Group-30" stroke-width="1" fill="none" fill-rule="evenodd" transform="translate(24.000000, 14.000000)">
                                    <rect id="Rectangle-48" opacity="0.115772192" x="0" y="0" width="22" height="22"></rect>
                                    <path d="M14,17 L7,17 C7,18.3807119 5.88071187,19.5 4.5,19.5 C3.11928813,19.5 2,18.3807119 2,17 L1,17 C0.44771525,17 1.04869017e-15,16.5522847 0,16 L0,5 C-6.76353751e-17,4.44771525 0.44771525,4 1,4 L13,4 C13.5522847,4 14,4.44771525 14,5 L14,7 L18.6459341,7 C19.4637433,7 20.1991608,7.49790189 20.5028875,8.25721865 L22,12 L22,16 C22,16.5522847 21.5522847,17 21,17 L20,17 C20,18.3807119 18.8807119,19.5 17.5,19.5 C16.1192881,19.5 15,18.3807119 15,17 L14,17 Z M4.5,18 C5.05228475,18 5.5,17.5522847 5.5,17 C5.5,16.4477153 5.05228475,16 4.5,16 C3.94771525,16 3.5,16.4477153 3.5,17 C3.5,17.5522847 3.94771525,18 4.5,18 Z M17.5,18 C18.0522847,18 18.5,17.5522847 18.5,17 C18.5,16.4477153 18.0522847,16 17.5,16 C16.9477153,16 16.5,16.4477153 16.5,17 C16.5,17.5522847 16.9477153,18 17.5,18 Z M15,9 L15,12 L20,12 L19.2279241,9.68377223 C19.09181,9.27543009 18.7096712,9 18.2792408,9 L15,9 Z" id="Combined-Shape" fill="#333333"></path>
                                </g>
                            </g>
                        </g>
                    </g>
                </g>
            </g>
        </g>
    </g>
</svg>