<svg version="1.1" id="Layer_1" xmlns="http://www.w3.org/2000/svg" xmlns:xlink="http://www.w3.org/1999/xlink" x="0px" y="0px"
	 viewBox="0 0 22 10" style="enable-background:new 0 0 22 10;" xml:space="preserve">
<title>Combined Shape</title>
<desc>Created with Sketch.</desc>
<path id="Combined-Shape" d="M5.6,8.5c0.3,0.3,0.3,0.8,0,1.1c-0.3,0.3-0.8,0.3-1.1,0L0,5l4.5-4.5c0.3-0.3,0.8-0.3,1.1,0
	c0.3,0.3,0.3,0.8,0,1.1L2.1,5L5.6,8.5z M16.4,8.5L19.9,5l-3.5-3.5c-0.3-0.3-0.3-0.8,0-1.1c0.3-0.3,0.8-0.3,1.1,0L22,5l-4.5,4.5
	c-0.3,0.3-0.8,0.3-1.1,0C16.1,9.2,16.1,8.8,16.4,8.5z"/>
</svg>
