<svg xmlns="http://www.w3.org/2000/svg" viewBox="0 0 26 21">
	<g>
		<path fill="#F7F7F7" d="M23,20H3c-1.7,0-3-1.3-3-3v1c0,1.7,1.3,3,3,3h20c1.7,0,3-1.3,3-3v-1C26,18.7,24.7,20,23,20z"/>
	</g>
	<g>
		<g>
			<path fill="#FFFFFF" d="M3,19.5c-1.4,0-2.5-1.1-2.5-2.5V3c0-1.4,1.1-2.5,2.5-2.5h20c1.4,0,2.5,1.1,2.5,2.5v14c0,1.4-1.1,2.5-2.5,2.5
				H3z"/>
			<path fill="#E5E5E5" d="M23,1c1.1,0,2,0.9,2,2v14c0,1.1-0.9,2-2,2H3c-1.1,0-2-0.9-2-2V3c0-1.1,0.9-2,2-2H23 M23,0H3C1.3,0,0,1.3,0,3
				v14c0,1.7,1.3,3,3,3h20c1.7,0,3-1.3,3-3V3C26,1.3,24.7,0,23,0L23,0z"/>
		</g>
	</g>
	<polygon fill="#00579F" points="12.2,12 11,12 11.8,7 13,7 "/>
	<path fill="#00579F" d="M17,7.2C16.7,7.1,16.3,7,15.8,7c-1.3,0-2.2,0.7-2.2,1.6c0,0.7,0.7,1.1,1.2,1.3
		c0.5,0.2,0.7,0.4,0.7,0.6c0,0.3-0.4,0.5-0.8,0.5c-0.5,0-0.8-0.1-1.3-0.3l-0.2-0.1L13,11.7c0.3,0.1,0.9,0.3,1.5,0.3
		c1.4,0,2.3-0.6,2.3-1.7c0-0.6-0.4-1-1.1-1.3c-0.5-0.2-0.8-0.4-0.8-0.6c0-0.2,0.2-0.4,0.8-0.4c0.4,0,0.8,0.1,1,0.2l0.1,0.1L17,7.2z"/>
	<path fill="#00579F" d="M18.2,10.2c0.1-0.3,0.6-1.4,0.6-1.4c0,0,0.1-0.3,0.2-0.5L19,8.8c0,0,0.3,1.2,0.3,1.4
		C19.1,10.2,18.4,10.2,18.2,10.2z M19.9,7h-1.1c-0.3,0-0.6,0.1-0.7,0.4L16,12h1.5c0,0,0.2-0.6,0.3-0.8c0.2,0,1.6,0,1.8,0
		c0,0.2,0.2,0.8,0.2,0.8H21L19.9,7z"/>
	<path fill="#00579F" d="M9.5,7l-1.4,3.4L8,9.7C7.7,8.9,6.9,8.1,6,7.6L7.3,12h1.5L11,7H9.5z"/>
	<path fill="#FAA61A" d="M7,7H5l0,0.1C6.6,7.6,7.6,8.7,8,10L7.6,7.5C7.5,7.1,7.3,7,7,7z"/>
</svg>
