<?xml version="1.0" encoding="utf-8"?>
<!-- Generator: Adobe Illustrator 21.1.0, SVG Export Plug-In . SVG Version: 6.00 Build 0)  -->
<svg version="1.1" xmlns="http://www.w3.org/2000/svg" xmlns:xlink="http://www.w3.org/1999/xlink" x="0px" y="0px"
	 viewBox="0 0 48 96" style="enable-background:new 0 0 48 96;" xml:space="preserve">
<style type="text/css">
	.st0{fill:#FFFFFF;}
	.st1{fill:#AEA8B6;}
	.st2{fill:none;}
	.st3{fill:#5B5B5B;}
	.st4{fill:#363636;enable-background:new    ;}
</style>
<g id="active_1_">
	<path id="Combined-Shape" class="st0" d="M35.6,77.9l1.1,5.3c0.1,0.6-0.3,1.3-0.9,1.4c-0.2,0-0.3,0-0.5,0l-5.3-1.1
		C28.1,84.5,26.1,85,24,85c-7.2,0-13-5.8-13-13s5.8-13,13-13s13,5.8,13,13C37,74.1,36.5,76.1,35.6,77.9z"/>
	<path id="Combined-Shape_2_" class="st1" d="M18.5,74c-0.8,0-1.5-0.7-1.5-1.5s0.7-1.5,1.5-1.5s1.5,0.7,1.5,1.5S19.3,74,18.5,74z
		 M24.5,74c-0.8,0-1.5-0.7-1.5-1.5s0.7-1.5,1.5-1.5s1.5,0.7,1.5,1.5S25.3,74,24.5,74z M30.5,74c-0.8,0-1.5-0.7-1.5-1.5
		s0.7-1.5,1.5-1.5s1.5,0.7,1.5,1.5S31.3,74,30.5,74z"/>
</g>
<g id="normal">
	<title>Group 5</title>
	<desc>Created with Sketch.</desc>
	<rect id="Rectangle-2" x="11" y="11" class="st2" width="26" height="26"/>
	<path class="st3" d="M24,37c-7.2,0-13-5.8-13-13c0-7.2,5.8-13,13-13c7.2,0,13,5.8,13,13c0,2.1-0.5,4.1-1.4,5.9l1.1,5.3
		c0.1,0.3,0,0.6-0.2,0.9c-0.2,0.3-0.5,0.5-0.8,0.5l-0.2,0l-0.3,0l-5.3-1.1C28.1,36.5,26.1,37,24,37z M24,13c-6.1,0-11,4.9-11,11
		s4.9,11,11,11c1.8,0,3.4-0.4,5-1.2l0.6-0.3l4.8,1l-1-4.8l0.3-0.6c0.8-1.6,1.2-3.2,1.2-5C35,17.9,30.1,13,24,13z"/>
	<path id="Combined-Shape_1_" class="st4" d="M18.5,26c-0.8,0-1.5-0.7-1.5-1.5s0.7-1.5,1.5-1.5s1.5,0.7,1.5,1.5S19.3,26,18.5,26z
		 M24.5,26c-0.8,0-1.5-0.7-1.5-1.5s0.7-1.5,1.5-1.5s1.5,0.7,1.5,1.5S25.3,26,24.5,26z M30.5,26c-0.8,0-1.5-0.7-1.5-1.5
		s0.7-1.5,1.5-1.5s1.5,0.7,1.5,1.5S31.3,26,30.5,26z"/>
</g>
</svg>
