<?xml version="1.0" encoding="utf-8"?>
<!-- Generator: Adobe Illustrator 21.1.0, SVG Export Plug-In . SVG Version: 6.00 Build 0)  -->
<svg version="1.1" xmlns="http://www.w3.org/2000/svg" xmlns:xlink="http://www.w3.org/1999/xlink" x="0px" y="0px"
	 viewBox="0 0 48 96" style="enable-background:new 0 0 48 96;" xml:space="preserve">
<style type="text/css">
	.st0{fill:#363636;}
	.st1{fill:#5B5B5B;}
	.st2{fill:#FFFFFF;}
	.st3{opacity:0.5;fill:#AEA8B6;}
	.st4{fill:#A79D8E;}
</style>
<g id="normal">
	<rect id="Rectangle-9" x="13" y="22" class="st0" width="22" height="2"/>
	<g>
		<path class="st1" d="M33,15h-2v-2c0-1.1-0.9-2-2-2H19c-1.1,0-2,0.9-2,2v2h-2c-2.2,0-4,1.8-4,4v11c0,2.2,1.8,4,4,4h18
			c2.2,0,4-1.8,4-4V19C37,16.8,35.2,15,33,15z M19,13h10v2H19V13z M35,30c0,1.1-0.9,2-2,2H15c-1.1,0-2-0.9-2-2V19c0-1.1,0.9-2,2-2h2
			h14h2c1.1,0,2,0.9,2,2V30z"/>
		<path class="st1" d="M31,20c-0.6,0-1,0.4-1,1v4c0,0.6,0.4,1,1,1s1-0.4,1-1v-4C32,20.4,31.6,20,31,20z"/>
		<path class="st1" d="M17,20c-0.6,0-1,0.4-1,1v4c0,0.6,0.4,1,1,1s1-0.4,1-1v-4C18,20.4,17.6,20,17,20z"/>
	</g>
</g>
<g id="active">
	<path class="st2" d="M33,65h-2v-2c0-1.1-0.9-2-2-2H19c-1.1,0-2,0.9-2,2v2h-2c-2.2,0-4,1.8-4,4v11c0,2.2,1.8,4,4,4h18
		c2.2,0,4-1.8,4-4V69C37,66.8,35.2,65,33,65z M29,65H19v-2h10V65z"/>
	<rect id="Rectangle-9_1_" x="11" y="72" class="st3" width="26" height="2"/>
	<path class="st4" d="M31,70c-0.6,0-1,0.4-1,1v4c0,0.6,0.4,1,1,1s1-0.4,1-1v-4C32,70.4,31.6,70,31,70z"/>
	<path class="st4" d="M17,70c-0.6,0-1,0.4-1,1v4c0,0.6,0.4,1,1,1s1-0.4,1-1v-4C18,70.4,17.6,70,17,70z"/>
</g>
</svg>
