<?xml version="1.0" encoding="UTF-8"?>
<svg width="56px" height="52px" viewBox="0 0 56 52" version="1.1" xmlns="http://www.w3.org/2000/svg" xmlns:xlink="http://www.w3.org/1999/xlink">
    <!-- Generator: Sketch 48.2 (47327) - http://www.bohemiancoding.com/sketch -->
    <title>Group 15</title>
    <desc>Created with Sketch.</desc>
    <defs>
        <path d="M2.3940551,2.74009284 L14,0 L14,39.7760015 L8.71117528,40.9541797 C7.1357573,41.2402783 5.63343645,40.1568739 5.35564776,38.5343284 L0.0444894328,6.1959987 C-0.233299263,4.57345316 0.818637117,3.0261914 2.3940551,2.74009284 Z" id="path-1"></path>
        <path d="M2.47955707,3.25552367 L14.5,0.5 L14.5,40.5 L9.02228868,41.6848131 C7.39060577,41.9725228 5.83463061,40.8830173 5.54692089,39.2513344 L0.0460783411,6.73089146 C-0.24163138,5.09920855 0.847874157,3.54323339 2.47955707,3.25552367 Z" id="path-3"></path>
        <rect id="path-5" x="10" y="6" width="36" height="44" rx="3"></rect>
        <filter x="-19.4%" y="-11.4%" width="138.9%" height="131.8%" filterUnits="objectBoundingBox" id="filter-6">
            <feOffset dx="0" dy="2" in="SourceAlpha" result="shadowOffsetOuter1"></feOffset>
            <feGaussianBlur stdDeviation="2" in="shadowOffsetOuter1" result="shadowBlurOuter1"></feGaussianBlur>
            <feColorMatrix values="0 0 0 0 0.304156037   0 0 0 0 0.154484241   0 0 0 0 0.154484241  0 0 0 0.118942482 0" type="matrix" in="shadowBlurOuter1"></feColorMatrix>
        </filter>
    </defs>
    <g id="Icon/56px/Templates" stroke="none" stroke-width="1" fill="none" fill-rule="evenodd" transform="translate(0.000000, -4.000000)">
        <g id="Group-15">
            <rect id="Rectangle-11" opacity="0.149852808" x="0" y="0" width="56" height="56"></rect>
            <g id="Combined-Shape" transform="translate(0.000000, 7.000000)">
                <mask id="mask-2" fill="white">
                    <use xlink:href="#path-1"></use>
                </mask>
                <use id="Mask" fill="#001F67" xlink:href="#path-1"></use>
                <path d="M8,5 L32,5 L32,12 L8,12 L8,5 Z M8,15 L20,15 L20,37 L8,37 L8,15 Z M24,15 L32,15 L32,37 L24,37 L24,15 Z" fill="#244FB1" mask="url(#mask-2)" transform="translate(20.000000, 21.000000) rotate(-10.000000) translate(-20.000000, -21.000000) "></path>
            </g>
            <g id="Combined-Shape" transform="translate(48.500000, 27.000000) scale(-1, 1) translate(-48.500000, -27.000000) translate(41.000000, 6.000000)">
                <mask id="mask-4" fill="white">
                    <use xlink:href="#path-3"></use>
                </mask>
                <use id="Mask" fill="#001F67" xlink:href="#path-3"></use>
                <path d="M8,6 L32,6 L32,13 L8,13 L8,6 Z M8,16 L20,16 L20,38 L8,38 L8,16 Z M24,16 L32,16 L32,38 L24,38 L24,16 Z" fill="#244FB1" mask="url(#mask-4)" transform="translate(20.000000, 22.000000) rotate(-10.000000) translate(-20.000000, -22.000000) "></path>
            </g>
            <g id="Rectangle-12">
                <use fill="black" fill-opacity="1" filter="url(#filter-6)" xlink:href="#path-5"></use>
                <use fill="#001CBE" fill-rule="evenodd" xlink:href="#path-5"></use>
            </g>
            <path d="M16,12 L40,12 L40,19 L16,19 L16,12 Z M16,22 L28,22 L28,44 L16,44 L16,22 Z M32,22 L40,22 L40,44 L32,44 L32,22 Z" id="Combined-Shape" fill="#DD8CC6"></path>
        </g>
    </g>
</svg>