<?xml version="1.0" encoding="UTF-8"?>
<svg width="50px" height="64px" viewBox="0 0 50 64" version="1.1" xmlns="http://www.w3.org/2000/svg" xmlns:xlink="http://www.w3.org/1999/xlink">
    <!-- Generator: Sketch 48.2 (47327) - http://www.bohemiancoding.com/sketch -->
    <title>Group 9</title>
    <desc>Created with Sketch.</desc>
    <defs>
        <rect id="path-1" x="7" y="0" width="42" height="56" rx="4"></rect>
        <filter x="-16.7%" y="-8.9%" width="133.3%" height="125.0%" filterUnits="objectBoundingBox" id="filter-2">
            <feOffset dx="0" dy="2" in="SourceAlpha" result="shadowOffsetOuter1"></feOffset>
            <feGaussianBlur stdDeviation="2" in="shadowOffsetOuter1" result="shadowBlurOuter1"></feGaussianBlur>
            <feColorMatrix values="0 0 0 0 0.304156037   0 0 0 0 0.154484241   0 0 0 0 0.154484241  0 0 0 0.118942482 0" type="matrix" in="shadowBlurOuter1"></feColorMatrix>
        </filter>
        <path d="M26,42 C24.0104735,40.0830321 21.4049065,38.4544143 18.5894202,38.0994917 L18.0410072,32.8895685 C17.9876985,32.3831358 17.582164,32 17.0994331,32 L16.9005669,32 C16.417836,32 16.0123015,32.3831358 15.9589928,32.8895685 L15.4105798,38.0994917 C12.5950935,38.4544143 9.98952654,40.0830321 8,42 L0,42 L0,0 L34,0 L34,42 L26,42 Z" id="path-3"></path>
    </defs>
    <g id="Icon/56px/Mobile" stroke="none" stroke-width="1" fill="none" fill-rule="evenodd" transform="translate(-3.000000, 2.000000)">
        <g id="Group-9">
            <rect id="Rectangle-13" opacity="0.32348279" x="0" y="0" width="56" height="56"></rect>
            <g id="Rectangle-16">
                <use fill="black" fill-opacity="1" filter="url(#filter-2)" xlink:href="#path-1"></use>
                <use fill="#001F67" fill-rule="evenodd" xlink:href="#path-1"></use>
            </g>
            <circle id="Oval-8" fill="#E4E4E4" cx="28" cy="49.5" r="2.5"></circle>
            <g id="Oval-9" transform="translate(11.000000, 4.000000)">
                <mask id="mask-4" fill="white">
                    <use xlink:href="#path-3"></use>
                </mask>
                <use id="Combined-Shape" fill="#001CBE" xlink:href="#path-3"></use>
                <circle fill="#DD8CC6" mask="url(#mask-4)" cx="17" cy="38" r="19"></circle>
            </g>
            <path d="M19,39 C18.4477153,39 18,38.5522847 18,38 C18,37.4477153 18.4477153,37 19,37 C19.5522847,37 20,37.4477153 20,38 C20,38.5522847 19.5522847,39 19,39 Z M28,32 C27.4477153,32 27,31.5522847 27,31 C27,30.4477153 27.4477153,30 28,30 C28.5522847,30 29,30.4477153 29,31 C29,31.5522847 28.5522847,32 28,32 Z M37,39 C36.4477153,39 36,38.5522847 36,38 C36,37.4477153 36.4477153,37 37,37 C37.5522847,37 38,37.4477153 38,38 C38,38.5522847 37.5522847,39 37,39 Z" id="Combined-Shape" fill="#FFFFFF" opacity="0.359261775"></path>
        </g>
    </g>
</svg>