<svg xmlns="http://www.w3.org/2000/svg" viewBox="0 0 40 26">
<style type="text/css">
	.st0{opacity:0.2;}
	.st1{fill:#2545FC;}
	.st2{fill:#5C75FF;}
	.st3{fill:#AEBAFF;}
	.st4{opacity:0.5361;fill:#071566;enable-background:new;}
	.st5{fill:#FFFFFF;}
</style>
<g>
	<g class="st0">
		<path id="path-1_2_" d="M4,1h26c1.7,0,3,1.3,3,3v18c0,1.7-1.3,3-3,3H4c-1.7,0-3-1.3-3-3V4C1,2.3,2.3,1,4,1z"/>
	</g>
	<g>
		<path id="path-1_1_" class="st1" d="M4,0h26c1.7,0,3,1.3,3,3v18c0,1.7-1.3,3-3,3H4c-1.7,0-3-1.3-3-3V3C1,1.3,2.3,0,4,0z"/>
	</g>
	<rect id="Rectangle-7" x="4" y="11" class="st2" width="18" height="3"/>
	<rect id="Rectangle-7_1_" x="16" y="11" class="st3" width="6" height="3"/>
	<rect id="Rectangle-5" x="1" y="4" class="st4" width="32" height="5"/>
	<path id="Rectangle-5_1_" class="st2" d="M5,16h4c0.6,0,1,0.4,1,1v3c0,0.6-0.4,1-1,1H5c-0.6,0-1-0.4-1-1v-3C4,16.4,4.4,16,5,16z"/>
	<g id="Oval-2">
		<path class="st5" d="M19,18.5c-3.3,0-6-2.7-6-6s2.7-6,6-6s6,2.7,6,6S22.3,18.5,19,18.5z M19,8c-2.5,0-4.5,2-4.5,4.5s2,4.5,4.5,4.5
			s4.5-2,4.5-4.5S21.5,8,19,8z"/>
	</g>
	<rect id="Rectangle-9" x="24" y="11.5" class="st5" width="16" height="1.5"/>
</g>
</svg>
