<svg xmlns="http://www.w3.org/2000/svg" viewBox="0 0 26 21">
<g>
	<circle fill="#FFFFFF" cx="15.5" cy="10" r="4"/>
</g>
<g>
	<path fill="#F7F7F7" d="M23,20H3c-1.7,0-3-1.3-3-3v1c0,1.7,1.3,3,3,3h20c1.7,0,3-1.3,3-3v-1C26,18.7,24.7,20,23,20z"/>
</g>
<g>
	<g id="path-1_1_">
		<path fill="#FFFFFF" d="M3,19.5c-1.4,0-2.5-1.1-2.5-2.5V3c0-1.4,1.1-2.5,2.5-2.5h20c1.4,0,2.5,1.1,2.5,2.5v14c0,1.4-1.1,2.5-2.5,2.5
			H3z"/>
		<path fill="#E5E5E5" d="M23,1c1.1,0,2,0.9,2,2v14c0,1.1-0.9,2-2,2H3c-1.1,0-2-0.9-2-2V3c0-1.1,0.9-2,2-2H23 M23,0H3C1.3,0,0,1.3,0,3
			v14c0,1.7,1.3,3,3,3h20c1.7,0,3-1.3,3-3V3C26,1.3,24.7,0,23,0L23,0z"/>
	</g>
</g>
<circle fill="#ED0006" cx="10.5" cy="10" r="4"/>
<circle fill="#F8A82A" cx="15.5" cy="10" r="4"/>
<path fill="#FF5E00" d="M11.5,10c0,1.3,0.6,2.4,1.5,3.1c0.9-0.7,1.5-1.8,1.5-3.1S13.9,7.6,13,6.9C12.1,7.6,11.5,8.7,11.5,10z"/>
</svg>
