<?xml version="1.0" encoding="UTF-8"?>
<svg width="56px" height="56px" viewBox="0 0 56 56" version="1.1" xmlns="http://www.w3.org/2000/svg" xmlns:xlink="http://www.w3.org/1999/xlink">
    <!-- Generator: Sketch 48.2 (47327) - http://www.bohemiancoding.com/sketch -->
    <title>Group 32</title>
    <desc>Created with Sketch.</desc>
    <defs>
        <path d="M11.0142491,0.383252481 L17.8607509,4.45293475 C18.7204212,4.96393806 19.25,5.90831112 19.25,6.93031773 L19.25,15.0696823 C19.25,16.0916889 18.7204212,17.0360619 17.8607509,17.5470652 L11.0142491,21.6167475 C10.1545788,22.1277508 9.09542124,22.1277508 8.23575091,21.6167475 L1.38924909,17.5470652 C0.52957876,17.0360619 0,16.0916889 0,15.0696823 L0,6.93031773 C0,5.90831112 0.52957876,4.96393806 1.38924909,4.45293475 L8.23575091,0.383252481 C9.09542124,-0.127750827 10.1545788,-0.127750827 11.0142491,0.383252481 Z" id="path-1"></path>
    </defs>
    <g id="Icon/56px/Niches" stroke="none" stroke-width="1" fill="none" fill-rule="evenodd">
        <g id="Group-32">
            <rect id="Rectangle-19" opacity="0.448199728" x="0" y="0" width="56" height="56"></rect>
            <path d="M29,26 L55,26 C55.5522847,26 56,26.4477153 56,27 C56,27.5522847 55.5522847,28 55,28 L29,28 L29,55 C29,55.5522847 28.5522847,56 28,56 C27.4477153,56 27,55.5522847 27,55 L27,28 L1,28 C0.44771525,28 6.76353751e-17,27.5522847 0,27 C-6.76353751e-17,26.4477153 0.44771525,26 1,26 L27,26 L27,1 C27,0.44771525 27.4477153,1.01453063e-16 28,0 C28.5522847,-1.01453063e-16 29,0.44771525 29,1 L29,26 Z" id="Combined-Shape" fill="#001F67"></path>
            <g id="Group-15">
                <circle id="Oval-9" fill="#001CBE" cx="11" cy="11" r="11"></circle>
                <path d="M12.375,11.9624329 L16.5,11.9624329 L11.9722718,16.490161 C11.4353009,17.0271319 10.5646991,17.0271319 10.0277282,16.490161 L5.5,11.9624329 L9.625,11.9624329 L9.625,6.46243286 C9.625,5.70304133 10.2406085,5.08743286 11,5.08743286 C11.7593915,5.08743286 12.375,5.70304133 12.375,6.46243286 L12.375,11.9624329 Z" id="Combined-Shape" fill="#DD8CC6"></path>
            </g>
            <g id="Group-25" transform="translate(34.000000, 0.000000)">
                <rect id="Rectangle-27" x="0" y="0" width="22" height="22"></rect>
                <g id="Polygon-2" transform="translate(1.375000, 0.000000)">
                    <mask id="mask-2" fill="white">
                        <use xlink:href="#path-1"></use>
                    </mask>
                    <use id="Mask" fill="#001CBE" xlink:href="#path-1"></use>
                    <path d="M17.0684904,6.73200102 L11.2127132,10.9548543 C10.2302329,11.5388581 9.01976713,11.5388581 8.03728676,10.9548543 L2.18150962,6.73200102 L8.23575091,3.13325248 C9.09542124,2.62224917 10.1545788,2.62224917 11.0142491,3.13325248 L17.0684904,6.73200102 Z" id="Combined-Shape" fill="#DD8CC6" mask="url(#mask-2)"></path>
                </g>
            </g>
            <g id="Group-24" transform="translate(0.000000, 34.000000)">
                <rect id="Rectangle-27" x="0" y="0" width="22" height="22"></rect>
                <path d="M8.9375,2.97149843 L8.9375,2.75 L6.875,2.75 L6.875,0 L15.125,0 L15.125,2.75 L13.0625,2.75 L13.0625,2.97149843 C17.3871253,3.91566998 20.625,7.76721191 20.625,12.375 C20.625,17.6907407 16.3157407,22 11,22 C5.68425928,22 1.375,17.6907407 1.375,12.375 C1.375,7.76721191 4.61287474,3.91566998 8.9375,2.97149843 Z" id="Combined-Shape" fill="#001CBE"></path>
                <path d="M11,5.5 C14.7969577,5.5 17.875,8.57804235 17.875,12.375 C17.875,13.9999531 17.3112523,15.4932359 16.3686697,16.6699357 L11,12.375 L11,5.5 Z" id="Combined-Shape" fill="#DD8CC6"></path>
            </g>
            <g id="Group-23" transform="translate(34.000000, 34.000000)">
                <rect id="Rectangle-27" x="0" y="0" width="22" height="22"></rect>
                <path d="M8.9375,5.72149843 L8.9375,5.5 C8.9375,4.3609127 9.8609127,3.4375 11,3.4375 C12.1390873,3.4375 13.0625,4.3609127 13.0625,5.5 L13.0625,5.72149843 C17.3871253,6.66566998 20.625,10.5172119 20.625,15.125 C20.625,16.0805873 20.4857434,17.0036496 20.2264168,17.875 L1.77358318,17.875 C1.51425661,17.0036496 1.375,16.0805873 1.375,15.125 C1.375,10.5172119 4.61287474,6.66566998 8.9375,5.72149843 Z" id="Combined-Shape" fill="#001CBE"></path>
                <rect id="Rectangle-33" fill="#DD8CC6" x="0" y="15.125" width="22" height="4.125"></rect>
            </g>
        </g>
    </g>
</svg>