<?xml version="1.0" encoding="UTF-8"?>
<svg width="53px" height="58px" viewBox="0 0 53 58" version="1.1" xmlns="http://www.w3.org/2000/svg" xmlns:xlink="http://www.w3.org/1999/xlink">
    <!-- Generator: Sketch 48.2 (47327) - http://www.bohemiancoding.com/sketch -->
    <title>Group 15</title>
    <desc>Created with Sketch.</desc>
    <defs>
        <path d="M3,3.22973971e-16 L31.7573593,4.4408921e-16 C32.5530088,2.97930773e-16 33.3160705,0.316070521 33.8786797,0.878679656 L41.1213203,8.12132034 C41.6839295,8.68392948 42,9.44699122 42,10.2426407 L42,47 C42,48.6568542 40.6568542,50 39,50 L3,50 C1.34314575,50 2.02906125e-16,48.6568542 0,47 L-4.4408921e-16,3 C-6.46995335e-16,1.34314575 1.34314575,3.04359188e-16 3,0 Z" id="path-1"></path>
        <filter x="-16.7%" y="-10.0%" width="133.3%" height="128.0%" filterUnits="objectBoundingBox" id="filter-3">
            <feOffset dx="0" dy="2" in="SourceAlpha" result="shadowOffsetOuter1"></feOffset>
            <feGaussianBlur stdDeviation="2" in="shadowOffsetOuter1" result="shadowBlurOuter1"></feGaussianBlur>
            <feColorMatrix values="0 0 0 0 0.304156037   0 0 0 0 0.154484241   0 0 0 0 0.154484241  0 0 0 0.118942482 0" type="matrix" in="shadowBlurOuter1"></feColorMatrix>
        </filter>
    </defs>
    <g id="Icon/56px/License" stroke="none" stroke-width="1" fill="none" fill-rule="evenodd" transform="translate(0.000000, 2.000000)">
        <g id="Group-15">
            <rect id="Rectangle-11" opacity="0.149852808" x="0" y="0" width="56" height="56"></rect>
            <g id="Rectangle-55" transform="translate(4.000000, 0.000000)">
                <mask id="mask-2" fill="white">
                    <use xlink:href="#path-1"></use>
                </mask>
                <g id="Mask">
                    <use fill="black" fill-opacity="1" filter="url(#filter-3)" xlink:href="#path-1"></use>
                    <use fill="#001CBE" fill-rule="evenodd" xlink:href="#path-1"></use>
                </g>
                <rect fill="#0060E0" mask="url(#mask-2)" x="32" y="-4" width="14" height="14"></rect>
            </g>
            <path d="M12,8 L30,8 L30,10 L12,10 L12,8 Z M12,14 L36,14 L36,16 L12,16 L12,14 Z M12,26 L36,26 L36,28 L12,28 L12,26 Z M12,38 L36,38 L36,40 L12,40 L12,38 Z M12,20 L32,20 L32,22 L12,22 L12,20 Z M12,32 L32,32 L32,34 L12,34 L12,32 Z" id="Combined-Shape" fill="#0060E0"></path>
            <g id="Group-32" transform="translate(35.000000, 30.000000)">
                <polygon id="Rectangle-56" fill="#001F67" points="3 11 15 11 15 26 9 24 3 26"></polygon>
                <path d="M5.5,9.5 L5.5,22.3596118 L9,21.4846118 L12.5,22.3596118 L12.5,9.5 L5.5,9.5 Z" id="Rectangle-56" stroke="#264DAA" opacity="0.484488225"></path>
                <path d="M9,17.0617329 L7.29568959,17.7956027 C6.02812496,18.3414114 4.55809544,17.7563126 4.01228676,16.4887479 C4.00312719,16.4674761 3.9942638,16.446078 3.98569914,16.4245598 L3.29949401,14.700506 L1.57544024,14.0143009 C0.293191677,13.5039423 -0.332548833,12.0507472 0.177809695,10.7684986 C0.186374349,10.7469804 0.195237743,10.7255822 0.204397309,10.7043104 L0.938267119,9 L0.204397309,7.29568959 C-0.341411371,6.02812496 0.243687433,4.55809544 1.51125207,4.01228676 C1.53252388,4.00312719 1.55392201,3.9942638 1.57544024,3.98569914 L3.29949401,3.29949401 L3.98569914,1.57544024 C4.49605767,0.293191677 5.94925284,-0.332548833 7.23150141,0.177809695 C7.25301965,0.186374349 7.27441777,0.195237743 7.29568959,0.204397309 L9,0.938267119 L10.7043104,0.204397309 C11.971875,-0.341411371 13.4419046,0.243687433 13.9877132,1.51125207 C13.9968728,1.53252388 14.0057362,1.55392201 14.0143009,1.57544024 L14.700506,3.29949401 L16.4245598,3.98569914 C17.7068083,4.49605767 18.3325488,5.94925284 17.8221903,7.23150141 C17.8136257,7.25301965 17.8047623,7.27441777 17.7956027,7.29568959 L17.0617329,9 L17.7956027,10.7043104 C18.3414114,11.971875 17.7563126,13.4419046 16.4887479,13.9877132 C16.4674761,13.9968728 16.446078,14.0057362 16.4245598,14.0143009 L14.700506,14.700506 L14.0143009,16.4245598 C13.5039423,17.7068083 12.0507472,18.3325488 10.7684986,17.8221903 C10.7469804,17.8136257 10.7255822,17.8047623 10.7043104,17.7956027 L9,17.0617329 Z" id="Star" fill="#DD8CC6"></path>
                <circle id="Oval-12" stroke="#FFFFFF" opacity="0.232563406" cx="9" cy="9" r="5.5"></circle>
            </g>
        </g>
    </g>
</svg>