<?xml version="1.0" encoding="UTF-8"?>
<svg width="26px" height="26px" viewBox="0 0 26 26" version="1.1" xmlns="http://www.w3.org/2000/svg" xmlns:xlink="http://www.w3.org/1999/xlink">
    <!-- Generator: Sketch 48.2 (47327) - http://www.bohemiancoding.com/sketch -->
    <title>Group 4</title>
    <desc>Created with Sketch.</desc>
    <defs></defs>
    <g id="Component/Complex/Suite" stroke="none" stroke-width="1" fill="none" fill-rule="evenodd" transform="translate(-470.000000, -238.000000)">
        <g id="Group-3" transform="translate(10.000000, -437.000000)">
            <g id="Suite-(feature)" transform="translate(260.000000, 437.000000)">
                <g id="Group-9" transform="translate(200.000000, 238.000000)">
                    <g id="Group-4">
                        <circle id="Oval" fill="#FFFFFF" cx="13" cy="13" r="13"></circle>
                        <path d="M11.8108356,15.0994917 L12.3936643,9.88956847 C12.4503184,9.38313579 12.8813023,9 13.3943269,9 L13.6056731,9 C14.1186977,9 14.5496816,9.38313579 14.6063357,9.88956847 L15.1891644,15.0994917 C18.1813369,15.4544143 20.8856205,16.7403443 23,18.6573121 C21.0635578,21.8582725 17.5335985,24 13.5,24 C9.46640155,24 5.93644222,21.8582725 4,18.6573121 C6.11437948,16.7403443 8.81866313,15.4544143 11.8108356,15.0994917 Z" id="Combined-Shape" fill="#A79D8F"></path>
                        <path d="M4,13 C3.44771525,13 3,12.5522847 3,12 C3,11.4477153 3.44771525,11 4,11 C4.55228475,11 5,11.4477153 5,12 C5,12.5522847 4.55228475,13 4,13 Z M13,5 C12.4477153,5 12,4.55228475 12,4 C12,3.44771525 12.4477153,3 13,3 C13.5522847,3 14,3.44771525 14,4 C14,4.55228475 13.5522847,5 13,5 Z M22,13 C21.4477153,13 21,12.5522847 21,12 C21,11.4477153 21.4477153,11 22,11 C22.5522847,11 23,11.4477153 23,12 C23,12.5522847 22.5522847,13 22,13 Z" id="Combined-Shape" fill="#766C84" opacity="0.597826087"></path>
                    </g>
                </g>
            </g>
        </g>
    </g>
</svg>