<svg xmlns="http://www.w3.org/2000/svg" viewBox="0 0 36 30">
	<path fill="#FFFFFF" d="M0,19.4c0-3.8,1-7.5,2.9-11S7.4,2.2,10.4,0l4.8,3.9c-2.1,1.3-4,3.2-5.5,5.5S7.2,13.8,7,15.9
		l0.7-0.1c0.4-0.1,0.8-0.1,1-0.1c1.8,0,3.3,0.6,4.5,1.9c1.2,1.3,1.8,2.9,1.8,4.7c0,1.9-0.7,3.6-2,4.9s-3,2-4.9,2
		c-2.3,0-4.2-0.9-5.7-2.6C0.8,24.9,0,22.5,0,19.4z M20.7,19.4c0-3.8,1-7.5,2.9-11c2-3.5,4.5-6.3,7.6-8.4L36,3.9
		c-2.1,1.3-4,3.2-5.5,5.5s-2.5,4.5-2.8,6.5c0,0,0.3,0,0.7-0.1s0.7-0.1,0.9-0.1c1.8,0,3.3,0.6,4.6,1.9c1.2,1.3,1.8,2.9,1.8,4.7
		c0,1.9-0.7,3.6-2.1,4.9s-3,2-5,2c-2.3,0-4.2-0.9-5.7-2.6C21.5,24.9,20.7,22.5,20.7,19.4z"/>
</svg>
