<?xml version="1.0" encoding="UTF-8"?>
<svg width="52px" height="35px" viewBox="0 0 52 35" version="1.1" xmlns="http://www.w3.org/2000/svg" xmlns:xlink="http://www.w3.org/1999/xlink">
    <!-- Generator: Sketch 48.1 (47250) - http://www.bohemiancoding.com/sketch -->
    <title>Group 12</title>
    <desc>Created with Sketch.</desc>
    <defs></defs>
    <g id="Component/Complex/Editor" stroke="none" stroke-width="1" fill="none" fill-rule="evenodd" transform="translate(-912.000000, -509.000000)">
        <g id="Design-(sidebar)" transform="translate(770.000000, 61.000000)">
            <g id="Sidebar-(design)" transform="translate(60.000000, 0.000000)">
                <g id="Group-29" transform="translate(20.000000, 263.000000)">
                    <g id="Group-12" transform="translate(62.000000, 185.000000)">
                        <rect id="Mask" fill="#FFFFFF" x="0" y="0" width="52" height="35"></rect>
                        <g id="Group-26" opacity="0.5" transform="translate(14.000000, 9.000000)" fill="#D3D3D3">
                            <g id="Rectangle-31">
                                <path d="M9.41461396,9.58523265 L12,11.3166579 L14.363065,8.41533918 C15.0606191,7.55889771 16.3203815,7.43009408 17.1768229,8.12764822 C17.3077477,8.23428374 17.424641,8.35707033 17.5247133,8.49307758 L23.5384615,16.6663082 L0.461538462,16.6663082 L6.84459873,9.87705318 C7.51463489,9.16437836 8.60184997,9.04092708 9.41461396,9.58523265 Z M5.69230769,6.95454545 C3.90800312,6.95454545 2.46153846,5.50150596 2.46153846,3.70909091 C2.46153846,1.91667586 3.90800312,0.463636364 5.69230769,0.463636364 C7.47661227,0.463636364 8.92307692,1.91667586 8.92307692,3.70909091 C8.92307692,5.50150596 7.47661227,6.95454545 5.69230769,6.95454545 Z" id="Combined-Shape"></path>
                            </g>
                        </g>
                        <path d="M40,35 L34,35 L34,33 L40,33 L40,35 Z M45,35 L45,33 L50,33 L50,30 L52,30 L52,35 L45,35 Z M29,35 L23,35 L23,33 L29,33 L29,35 Z M18,35 L12,35 L12,33 L18,33 L18,35 Z M7,35 L0,35 L0,30 L2,30 L2,33 L7,33 L7,35 Z M40,0 L40,2 L34,2 L34,0 L40,0 Z M45,0 L52,0 L52,5 L50,5 L50,2 L45,2 L45,0 Z M29,0 L29,2 L23,2 L23,0 L29,0 Z M18,0 L18,2 L2,2 L2,5 L0,5 L0,0 L7,0 L7,2 L12,2 L12,0 L18,0 Z M52,25 L50,25 L50,20 L52,20 L52,25 Z M52,15 L50,15 L50,10 L52,10 L52,15 Z M0,25 L0,20 L2,20 L2,25 L0,25 Z M0,15 L0,10 L2,10 L2,15 L0,15 Z" id="Combined-Shape" fill="#E4E4E4" fill-rule="nonzero"></path>
                    </g>
                </g>
            </g>
        </g>
    </g>
</svg>
