<svg width="64" height="52" xmlns="http://www.w3.org/2000/svg" xmlns:xlink="http://www.w3.org/1999/xlink"><defs><path d="M0 0h64v44a4 4 0 0 1-4 4H0V0z" id="a"/></defs><g fill="none" fill-rule="evenodd"><path opacity=".289" d="M0-4h64v64H0z"/><g transform="translate(0 4)"><mask id="b" fill="#fff"><use xlink:href="#a"/></mask><use fill="#9CD251" xlink:href="#a"/><path stroke="#B8E777" stroke-width="3" d="M1.5 1.5v45H60a2.5 2.5 0 0 0 2.5-2.5V1.5h-61z"/><circle fill="#5F9E32" opacity=".406" mask="url(#b)" cx="32" cy="24" r="11"/><path d="M28 27.614l1.079-1.303c.414.4.871.701 1.37.906.5.205.982.307 1.446.307.46 0 .83-.105 1.112-.314.283-.21.424-.495.424-.854a1.2 1.2 0 0 0-.113-.536 1.077 1.077 0 0 0-.378-.408 3.318 3.318 0 0 0-.592-.315 9.958 9.958 0 0 0-.865-.3c-.29-.09-.532-.168-.726-.235a10.603 10.603 0 0 1-.663-.259 4.351 4.351 0 0 1-.615-.31 3.935 3.935 0 0 1-.501-.383 2.047 2.047 0 0 1-.409-.479 2.382 2.382 0 0 1-.243-.592 2.777 2.777 0 0 1-.094-.738c0-.784.254-1.438.76-1.962.507-.524 1.21-.827 2.11-.906V17h1.385v2.007a6.65 6.65 0 0 1 1.408.454c.465.207.867.448 1.206.723l-1.041 1.303a4.853 4.853 0 0 0-1.251-.656 3.71 3.71 0 0 0-1.199-.22c-.449 0-.804.093-1.063.28-.26.188-.39.451-.39.79 0 .33.145.594.435.79.29.198.759.402 1.408.611.255.08.47.149.644.206.175.058.37.126.584.206.215.08.394.156.536.229.142.072.296.16.46.262.166.102.3.205.405.307.105.103.21.222.315.36.105.137.186.283.243.438.058.155.104.327.139.517.035.19.052.394.052.614 0 .809-.257 1.474-.771 1.996-.515.522-1.221.838-2.12.948V31H31.1v-1.843c-1.188-.164-2.222-.679-3.101-1.543zM3 14.955V3h11.955c.03.33.045.663.045 1 0 6.075-4.925 11-11 11-.337 0-.67-.015-1-.045z" fill="#B8E777" mask="url(#b)"/><path d="M49 14.955V3h11.955c.03.33.045.663.045 1 0 6.075-4.925 11-11 11-.337 0-.67-.015-1-.045z" fill="#B8E777" mask="url(#b)" transform="matrix(-1 0 0 1 110 0)"/><path d="M3 44.955V33h11.955c.03.33.045.663.045 1 0 6.075-4.925 11-11 11-.337 0-.67-.015-1-.045z" fill="#B8E777" mask="url(#b)" transform="matrix(1 0 0 -1 0 78)"/><path d="M49 44.955V33h11.955c.03.33.045.663.045 1 0 6.075-4.925 11-11 11-.337 0-.67-.015-1-.045z" fill="#B8E777" mask="url(#b)" transform="rotate(180 55 39)"/><path d="M4 5.957l1.259-.908h.588v4.284H5.12V5.914l-.774.58L4 5.956zM6.706 7.19c0-.43.065-.811.195-1.141.13-.33.32-.588.57-.773A1.44 1.44 0 0 1 8.35 5c.242 0 .464.05.666.148.202.098.376.24.521.423.146.184.259.414.34.69.081.277.122.587.122.93 0 .433-.064.814-.193 1.143a1.7 1.7 0 0 1-.57.77c-.251.185-.546.278-.886.278a1.49 1.49 0 0 1-.664-.148 1.495 1.495 0 0 1-.52-.423 2.02 2.02 0 0 1-.34-.692 3.295 3.295 0 0 1-.121-.928zm.734 0c0 .471.083.843.247 1.114.165.27.387.407.667.407.287 0 .51-.135.67-.403.161-.268.242-.64.242-1.118 0-.477-.082-.85-.246-1.118-.163-.269-.385-.403-.666-.403-.284 0-.507.134-.67.403-.162.268-.244.64-.244 1.118zM4 39.577l1.259-.908h.588v4.284H5.12v-3.419l-.774.58L4 39.576zm2.706 1.234c0-.43.065-.811.195-1.141.13-.33.32-.588.57-.773a1.44 1.44 0 0 1 .88-.277c.242 0 .464.05.666.148.202.098.376.24.521.423.146.184.259.414.34.69.081.277.122.587.122.93 0 .433-.064.814-.193 1.143a1.7 1.7 0 0 1-.57.77c-.251.185-.546.278-.886.278a1.49 1.49 0 0 1-.664-.148 1.495 1.495 0 0 1-.52-.423 2.02 2.02 0 0 1-.34-.692 3.295 3.295 0 0 1-.121-.928zm.734 0c0 .471.083.843.247 1.114.165.27.387.407.667.407.287 0 .51-.135.67-.403.161-.268.242-.64.242-1.118 0-.477-.082-.85-.246-1.118-.163-.269-.385-.403-.666-.403-.284 0-.507.134-.67.403-.162.268-.244.64-.244 1.118zM54 5.957l1.259-.908h.588v4.284h-.726V5.914l-.774.58L54 5.956zm2.706 1.234c0-.43.065-.811.195-1.141.13-.33.32-.588.57-.773A1.44 1.44 0 0 1 58.35 5c.242 0 .464.05.666.148.202.098.376.24.521.423.146.184.259.414.34.69.081.277.122.587.122.93 0 .433-.064.814-.193 1.143a1.7 1.7 0 0 1-.57.77c-.251.185-.546.278-.886.278a1.49 1.49 0 0 1-.664-.148 1.495 1.495 0 0 1-.52-.423 2.02 2.02 0 0 1-.34-.692 3.295 3.295 0 0 1-.121-.928zm.734 0c0 .471.083.843.247 1.114.165.27.387.407.667.407.287 0 .51-.135.67-.403.161-.268.242-.64.242-1.118 0-.477-.082-.85-.246-1.118-.163-.269-.385-.403-.666-.403-.284 0-.507.134-.67.403-.162.268-.244.64-.244 1.118zM54 39.577l1.259-.908h.588v4.284h-.726v-3.419l-.774.58-.347-.537zm2.706 1.234c0-.43.065-.811.195-1.141.13-.33.32-.588.57-.773a1.44 1.44 0 0 1 .88-.277c.242 0 .464.05.666.148.202.098.376.24.521.423.146.184.259.414.34.69.081.277.122.587.122.93 0 .433-.064.814-.193 1.143a1.7 1.7 0 0 1-.57.77c-.251.185-.546.278-.886.278a1.49 1.49 0 0 1-.664-.148 1.495 1.495 0 0 1-.52-.423 2.02 2.02 0 0 1-.34-.692 3.295 3.295 0 0 1-.121-.928zm.734 0c0 .471.083.843.247 1.114.165.27.387.407.667.407.287 0 .51-.135.67-.403.161-.268.242-.64.242-1.118 0-.477-.082-.85-.246-1.118-.163-.269-.385-.403-.666-.403-.284 0-.507.134-.67.403-.162.268-.244.64-.244 1.118z" fill="#5F9E32" opacity=".476" mask="url(#b)"/><path fill="#5F9E32" opacity=".293" mask="url(#b)" d="M58 30h6v18h-6z"/></g><path d="M60 44h-3V0h3a4 4 0 0 1 4 4v45-1a4 4 0 0 0-4-4z" fill="#5F9E32"/></g></svg>
