<?xml version="1.0" encoding="UTF-8"?>
<svg width="60px" height="58px" viewBox="0 0 60 58" version="1.1" xmlns="http://www.w3.org/2000/svg" xmlns:xlink="http://www.w3.org/1999/xlink">
    <!-- Generator: Sketch 48.2 (47327) - http://www.bohemiancoding.com/sketch -->
    <title>Group 8</title>
    <desc>Created with Sketch.</desc>
    <defs>
        <rect id="path-1" x="0" y="0" width="36" height="36" rx="5"></rect>
        <filter x="-19.4%" y="-13.9%" width="138.9%" height="138.9%" filterUnits="objectBoundingBox" id="filter-2">
            <feOffset dx="0" dy="2" in="SourceAlpha" result="shadowOffsetOuter1"></feOffset>
            <feGaussianBlur stdDeviation="2" in="shadowOffsetOuter1" result="shadowBlurOuter1"></feGaussianBlur>
            <feColorMatrix values="0 0 0 0 0.304156037   0 0 0 0 0.154484241   0 0 0 0 0.154484241  0 0 0 0.118942482 0" type="matrix" in="shadowBlurOuter1"></feColorMatrix>
        </filter>
    </defs>
    <g id="Icon/56px/Shipping-&amp;-Payments" stroke="none" stroke-width="1" fill="none" fill-rule="evenodd" transform="translate(4.000000, 2.000000)">
        <g id="Group-8">
            <rect id="Rectangle-6" opacity="0.295346467" x="0" y="0" width="56" height="56"></rect>
            <g id="Group-7">
                <g id="Rectangle-57">
                    <use fill="black" fill-opacity="1" filter="url(#filter-2)" xlink:href="#path-1"></use>
                    <use fill="#001F67" fill-rule="evenodd" xlink:href="#path-1"></use>
                </g>
                <path d="M18.8980913,10.2669492 C19.6719911,10.3516953 20.3491432,10.5388404 20.929568,10.8283898 C21.5099929,11.1179393 21.9899523,11.4710431 22.3694609,11.8877119 C22.7489694,12.3043806 23.0317362,12.7740087 23.2177698,13.2966102 C23.4038034,13.8192117 23.4968188,14.3629915 23.4968188,14.9279661 L19.8803438,14.9279661 C19.8803438,14.264121 19.7129161,13.7415273 19.3780556,13.3601695 C19.0431951,12.9788117 18.5632356,12.7881356 17.9381627,12.7881356 C17.4172687,12.7881356 16.9707947,12.915253 16.5987275,13.1694915 C16.2266603,13.4237301 16.0406295,13.8050822 16.0406295,14.3135593 C16.0406295,14.8079121 16.2452634,15.1998573 16.6545373,15.4894068 C17.0638113,15.7789563 17.6033006,16.036722 18.2730215,16.2627119 C18.9129771,16.4745773 19.5603643,16.7040948 20.2152026,16.9512712 C20.8700409,17.1984476 21.4578982,17.5021168 21.9787923,17.8622881 C22.4996863,18.2224594 22.9275572,18.6603082 23.2624177,19.1758475 C23.5972782,19.6913868 23.7647059,20.3163805 23.7647059,21.0508475 C23.7647059,21.7288169 23.6456462,22.3432176 23.4075232,22.8940678 C23.1694002,23.444918 22.8382653,23.9180771 22.4141087,24.3135593 C21.9899521,24.7090415 21.4802277,25.026835 20.8849202,25.2669492 C20.2896127,25.5070633 19.627343,25.662429 18.8980913,25.7330508 L18.8980913,28 L16.9112624,28 L16.9112624,25.7330508 C16.1968934,25.6483047 15.5383443,25.4717528 14.9355955,25.2033898 C14.3328466,24.9350269 13.815681,24.5783921 13.384083,24.1334746 C12.9524851,23.6885571 12.613909,23.1624324 12.3683447,22.5550847 C12.1227803,21.9477371 12,21.2627157 12,20.5 L15.6164751,20.5 C15.6164751,21.3050888 15.8471533,21.9336136 16.3085166,22.3855932 C16.7698799,22.8375729 17.3726197,23.0635593 18.1167541,23.0635593 C18.6971789,23.0635593 19.1845796,22.9046626 19.5789709,22.5868644 C19.9733621,22.2690662 20.1705547,21.8488727 20.1705547,21.3262712 C20.1705547,21.0296595 20.1073043,20.7789558 19.9808014,20.5741525 C19.8542986,20.3693493 19.6831502,20.1892663 19.4673513,20.0338983 C19.2515523,19.8785303 18.9948298,19.7408198 18.697176,19.6207627 C18.3995223,19.5007056 18.0795493,19.3771193 17.7372475,19.25 C17.0228784,18.9957614 16.3420057,18.7415267 15.6946088,18.4872881 C15.0472119,18.2330496 14.4853988,17.9258493 14.0091528,17.565678 C13.5329068,17.2055067 13.153404,16.771189 12.8706329,16.2627119 C12.5878618,15.7542347 12.4464784,15.12571 12.4464784,14.3771186 C12.4464784,13.7838953 12.5655381,13.2471775 12.8036611,12.7669492 C13.0417841,12.2867208 13.3617571,11.8735893 13.7635897,11.5275424 C14.1654223,11.1814954 14.6379405,10.9025434 15.1811586,10.690678 C15.7243767,10.4788125 16.3010722,10.337571 16.9112624,10.2669492 L16.9112624,8 L18.8980913,8 L18.8980913,10.2669492 Z" id="$" fill="#FFFFFF"></path>
                <rect id="Rectangle-57" fill="#001CBE" x="20" y="20" width="36" height="36" rx="7"></rect>
                <rect id="Rectangle-58" opacity="0.703577899" x="28" y="28" width="20" height="20"></rect>
                <path d="M28,34 L31,34 C31.5522847,34 32,34.4477153 32,35 C32,35.5522847 31.5522847,36 31,36 L28,36 C27.4477153,36 27,35.5522847 27,35 C27,34.4477153 27.4477153,34 28,34 Z M24,38 L29,38 C29.5522847,38 30,38.4477153 30,39 C30,39.5522847 29.5522847,40 29,40 L24,40 C23.4477153,40 23,39.5522847 23,39 C23,38.4477153 23.4477153,38 24,38 Z M26,42 L31,42 C31.5522847,42 32,42.4477153 32,43 C32,43.5522847 31.5522847,44 31,44 L26,44 C25.4477153,44 25,43.5522847 25,43 C25,42.4477153 25.4477153,42 26,42 Z" id="Combined-Shape" fill="#0061E0" opacity="0.993716033"></path>
                <path d="M35,30.5121171 L35,30 L34,30 L34,28 L42,28 L42,30 L41,30 L41,30.5121171 C44.4955771,31.7476263 47,35.0813435 47,39 C47,43.9705627 42.9705627,48 38,48 C33.0294373,48 29,43.9705627 29,39 C29,35.0813435 31.5044229,31.7476263 35,30.5121171 Z M38,46 C41.8659932,46 45,42.8659932 45,39 C45,35.1340068 41.8659932,32 38,32 C34.1340068,32 31,35.1340068 31,39 C31,42.8659932 34.1340068,46 38,46 Z M41.7424417,41.3597951 C42.1352885,41.7840708 42.0715954,42.4146338 41.6001793,42.7681969 C41.1287631,43.1217599 40.4281396,43.064436 40.0352928,42.6401603 L37,39.362035 L37,34.9999972 C37,34.447714 37.4974586,34 38.1111049,34 C38.7247512,34 39.2222098,34.447714 39.2222098,34.9999972 L39.2222098,38.6379371 L41.7424417,41.3597951 Z" id="Combined-Shape" fill="#DD8CC6" fill-rule="nonzero"></path>
            </g>
        </g>
    </g>
</svg>