<?xml version="1.0" encoding="utf-8"?>
<!-- Generator: Adobe Illustrator 21.1.0, SVG Export Plug-In . SVG Version: 6.00 Build 0)  -->
<svg version="1.1" xmlns="http://www.w3.org/2000/svg" xmlns:xlink="http://www.w3.org/1999/xlink" x="0px" y="0px"
	 viewBox="0 0 48 96" style="enable-background:new 0 0 48 96;" xml:space="preserve">
<style type="text/css">
	.st0{fill:#5B5B5B;}
	.st1{fill:#363636;}
	.st2{fill:#FFFFFF;}
	.st3{fill:#A79D8F;}
	.st4{opacity:0.5978;fill:#766C84;enable-background:new    ;}
</style>
<g id="normal">
	<path id="Combined-Shape_3_" class="st0" d="M14.5,29.6c2.1-1.9,4.8-3.2,7.8-3.5l0.6-5.2c0.1-0.5,0.5-0.9,1-0.9h0.2
		c0.5,0,0.9,0.4,1,0.9l0.6,5.2c3,0.4,5.7,1.6,7.8,3.5c1-1.6,1.5-3.6,1.5-5.6c0-6.1-4.9-11-11-11s-11,4.9-11,11
		C13,26.1,13.6,28,14.5,29.6z M24,37c-7.2,0-13-5.8-13-13s5.8-13,13-13s13,5.8,13,13S31.2,37,24,37z"/>
	<path id="Combined-Shape_1_" class="st1" d="M16,24c-0.6,0-1-0.4-1-1s0.4-1,1-1s1,0.4,1,1S16.6,24,16,24z M24,17c-0.6,0-1-0.4-1-1
		s0.4-1,1-1s1,0.4,1,1S24.6,17,24,17z M32,24c-0.6,0-1-0.4-1-1s0.4-1,1-1s1,0.4,1,1S32.6,24,32,24z"/>
</g>
<g id="active">
	<circle id="Oval" class="st2" cx="24" cy="72" r="13"/>
	<path id="Combined-Shape" class="st3" d="M22.8,74.1l0.6-5.2c0.1-0.5,0.5-0.9,1-0.9h0.2c0.5,0,0.9,0.4,1,0.9l0.6,5.2
		c3,0.4,5.7,1.6,7.8,3.6c-1.9,3.2-5.5,5.3-9.5,5.3s-7.6-2.1-9.5-5.3C17.1,75.7,19.8,74.5,22.8,74.1z"/>
	<path id="Combined-Shape_2_" class="st4" d="M15,72c-0.6,0-1-0.4-1-1s0.4-1,1-1s1,0.4,1,1S15.6,72,15,72z M24,64c-0.6,0-1-0.4-1-1
		s0.4-1,1-1s1,0.4,1,1S24.6,64,24,64z M33,72c-0.6,0-1-0.4-1-1s0.4-1,1-1s1,0.4,1,1S33.6,72,33,72z"/>
</g>
</svg>
