<?xml version="1.0" encoding="UTF-8"?>
<svg width="26px" height="23px" viewBox="0 0 26 23" version="1.1" xmlns="http://www.w3.org/2000/svg" xmlns:xlink="http://www.w3.org/1999/xlink">
    <!-- Generator: Sketch 48.2 (47327) - http://www.bohemiancoding.com/sketch -->
    <title>Icon/26px/Management/Normal</title>
    <desc>Created with Sketch.</desc>
    <defs></defs>
    <g id="Component/Complex/Suite" stroke="none" stroke-width="1" fill="none" fill-rule="evenodd" transform="translate(-909.000000, -239.000000)" opacity="0.7">
        <g id="Group-3" transform="translate(10.000000, -437.000000)">
            <g id="Suite-(feature)" transform="translate(260.000000, 437.000000)">
                <g id="Group-7" transform="translate(639.000000, 238.000000)">
                    <g id="Icon/26px/Management/Normal">
                        <g id="Group-6">
                            <rect id="Rectangle-2" x="0" y="0" width="26" height="26"></rect>
                            <rect id="Rectangle-7" stroke="#5B5B5B" stroke-width="2" x="1" y="6" width="24" height="17" rx="3"></rect>
                            <rect id="Rectangle-9" fill="#363636" x="2" y="12" width="22" height="2"></rect>
                            <path d="M20,10 C20.5522847,10 21,10.4477153 21,11 L21,15 C21,15.5522847 20.5522847,16 20,16 C19.4477153,16 19,15.5522847 19,15 L19,11 C19,10.4477153 19.4477153,10 20,10 Z M6,10 C6.55228475,10 7,10.4477153 7,11 L7,15 C7,15.5522847 6.55228475,16 6,16 C5.44771525,16 5,15.5522847 5,15 L5,11 C5,10.4477153 5.44771525,10 6,10 Z" id="Combined-Shape" fill="#5B5B5B"></path>
                            <path d="M7,6 L19,6 L19,3 C19,2.44771525 18.5522847,2 18,2 L8,2 C7.44771525,2 7,2.44771525 7,3 L7,6 Z" id="Rectangle-8" stroke="#5B5B5B" stroke-width="2"></path>
                        </g>
                    </g>
                </g>
            </g>
        </g>
    </g>
</svg>