<svg xmlns="http://www.w3.org/2000/svg" viewBox="0 0 8 12">
<path fill="#000000" d="M0.8,1.5C1.1,1,1.6,0.6,2.1,0.4C2.7,0.1,3.3,0,3.9,0c0.4,0,0.8,0.1,1.2,0.2s0.7,0.3,1.1,0.6
	c0.3,0.2,0.6,0.6,0.7,1s0.3,0.8,0.3,1.3c0,0.3,0,0.6-0.1,0.9S6.9,4.5,6.8,4.7S6.5,5.1,6.3,5.3C6.2,5.5,6,5.7,5.8,5.9
	C5.7,6,5.6,6.1,5.4,6.2C5.3,6.4,5.1,6.5,5,6.6S4.9,6.8,4.8,6.9S4.6,7.1,4.5,7.3C4.5,7.4,4.4,7.5,4.4,7.6l0,0.7H2.8l0-0.8
	c0-0.1,0-0.2,0-0.3c0-0.1,0-0.2,0.1-0.3C2.9,6.8,3,6.7,3,6.6c0-0.1,0.1-0.2,0.2-0.3s0.1-0.2,0.2-0.2C3.4,6,3.4,6,3.5,5.8
	s0.2-0.2,0.2-0.2c0,0,0.1-0.1,0.2-0.2c0.1-0.1,0.2-0.2,0.2-0.2c0.3-0.4,0.6-0.7,0.8-1s0.3-0.6,0.3-1c0-0.4-0.1-0.8-0.4-1
	c-0.3-0.2-0.6-0.4-1-0.4C3.5,1.8,3.1,1.9,2.8,2C2.5,2.2,2.3,2.4,2.1,2.7L0.8,1.5z M2.4,10.8c0-0.3,0.1-0.6,0.4-0.8
	C3,9.7,3.3,9.6,3.6,9.6C4,9.6,4.2,9.7,4.5,10c0.2,0.2,0.4,0.5,0.4,0.8s-0.1,0.6-0.4,0.8C4.2,11.9,4,12,3.6,12
	c-0.3,0-0.6-0.1-0.9-0.3C2.5,11.4,2.4,11.1,2.4,10.8z"/>
</svg>
