<?xml version="1.0" encoding="utf-8"?>
<!-- Generator: Adobe Illustrator 21.1.0, SVG Export Plug-In . SVG Version: 6.00 Build 0)  -->
<svg version="1.1" id="Layer_1" xmlns="http://www.w3.org/2000/svg" xmlns:xlink="http://www.w3.org/1999/xlink" x="0px" y="0px"
	 viewBox="0 0 64 64" style="enable-background:new 0 0 64 64;" xml:space="preserve">
<style type="text/css">
	.st0{fill:#FFFFFF;}
	.st1{fill:#BDBDBD;}
</style>
<path class="st0" d="M8.4,36h52.1c1.7,0,3,1.3,3,3v22c0,1.7-1.3,3-3,3H8.4c-1.1,0-2.2-0.6-2.7-1.7L0.5,51.8c-0.6-1.1-0.6-2.5,0-3.6
	l5.3-10.5C6.3,36.6,7.3,36,8.4,36z"/>
<path class="st1" d="M8.4,0h52.1c1.7,0,3,1.3,3,3v22c0,1.7-1.3,3-3,3H8.4c-1.1,0-2.2-0.6-2.7-1.7L0.5,15.8c-0.6-1.1-0.6-2.5,0-3.6
	L5.8,1.7C6.3,0.6,7.3,0,8.4,0z"/>
</svg>
