<svg xmlns="http://www.w3.org/2000/svg" viewBox="0 0 53 22"><g fill="none" fill-rule="evenodd"><path d="M9.523 4.323c-4.465 0-8.098 3.633-8.098 8.099 0 4.465 3.633 8.099 8.098 8.099H43.28c4.465 0 8.098-3.634 8.098-8.1 0-4.465-3.633-8.098-8.098-8.098H9.523zM43.28 21.21H9.523c-4.846 0-8.788-3.942-8.788-8.788s3.942-8.789 8.788-8.789H43.28c4.846 0 8.788 3.943 8.788 8.789s-3.942 8.788-8.788 8.788z" fill="#B3B3B3"/><path d="M39.23 11.094a1.218 1.218 0 1 1 0-2.435 1.218 1.218 0 0 1 0 2.435m3.748-2.79c.395-.455.934-.8 1.565-.8 1.084 0 1.53.864 1.53 1.665v2.996h-1.34V9.208c0-.39-.325-.602-.677-.602-.376 0-.617.215-.829.444l-.07-.203.068.204v3.113h-1.3V7.611h.789l.264.694zm-3.747-.8a2.373 2.373 0 1 1 0 4.746 2.373 2.373 0 0 1 0-4.747zm-10.885 0a2.374 2.374 0 1 1 0 4.747 2.374 2.374 0 0 1 0-4.748zm8.359 3.657l.158.925c-.211.07-.563.167-1.022.167-.89 0-1.436-.397-1.436-1.462V8.527h-.732c-.7.02-1.29.658-1.29 1.656v1.982h-1.337V7.61h.783l.38.977c.3-.594.77-.974 1.391-.977H34.422l.23-1.296h1.092v1.296h.97v.916h-.97v2.192c0 .389.088.528.494.528.087 0 .317-.043.467-.086zm-15.95-5.199h1.49l2.048 3.9v-3.9h1.235v6.203h-1.351L21.99 7.877v4.288h-1.236V5.962zm7.591 5.132a1.217 1.217 0 1 0 .002-2.434 1.217 1.217 0 0 0-.002 2.434z" fill="#000"/><path fill="#C3C5DB" d="M50.024 3.633v.222h-.325v1.093h-.253V3.855h-.32v-.222h.898M50.206 4.948V3.633h.343l.228.861.232-.86h.346v1.314h-.209V3.919h-.006l-.265 1.029h-.186l-.268-1.029h-.006v1.029h-.209"/><path d="M20.382 17.662l.31-.481c.25.185.628.358 1.088.358.448 0 .724-.203.724-.555 0-.404-.35-.511-.922-.71-.515-.182-1.02-.44-1.02-1.17 0-.682.538-1.053 1.262-1.053.482 0 .836.094 1.122.263l-.248.512a1.847 1.847 0 0 0-.862-.21c-.404 0-.646.153-.646.473 0 .376.28.471.808.644.55.179 1.155.433 1.155 1.24 0 .683-.488 1.133-1.363 1.133-.65 0-1.127-.225-1.408-.444zm3.946-3.55h2.344v.545h-1.677v1.076h1.324v.533h-1.324v1.244h1.779v.544h-2.446v-3.941zm3.4 1.975c0-1.15.55-2.035 1.65-2.035.492 0 .881.155 1.155.474l-.389.45c-.235-.23-.435-.343-.755-.343-.646 0-.943.528-.943 1.504 0 .915.314 1.38.948 1.38.353 0 .6-.186.818-.416l.392.438c-.285.337-.643.567-1.215.567-1.134 0-1.661-.864-1.661-2.02zm3.963.458v-2.432h.672v2.541c0 .542.134.897.706.897.567 0 .707-.355.707-.897v-2.541h.68v2.432c0 .977-.377 1.56-1.392 1.56-.998 0-1.373-.583-1.373-1.56zm6.878 1.51h-.73l-.756-1.672h-.623v1.672h-.667v-3.942h1.285c.796 0 1.418.285 1.418 1.149 0 .59-.353.885-.747 1.026l.82 1.767zm1.14-3.942h2.345v.544h-1.678v1.076H41.7v.533h-1.323v1.244h1.778v.544H39.71v-3.941zm3.572 0h.984c1.285 0 1.903.695 1.903 1.956 0 1.285-.629 1.986-1.869 1.986h-1.018v-3.942zm-6.227 1.755c.5 0 .757-.162.757-.618 0-.437-.262-.593-.718-.593h-.633v1.211h.594zm7.173 1.642c.92 0 1.234-.425 1.234-1.44 0-.892-.247-1.413-1.151-1.413h-.359v2.853h.276zM9.483 5.939c-1.73 0-3.359.674-4.585 1.899A6.443 6.443 0 0 0 3 12.422c0 1.73.674 3.358 1.898 4.584a6.45 6.45 0 0 0 4.585 1.899 6.45 6.45 0 0 0 4.584-1.9 6.45 6.45 0 0 0 1.899-4.583c-.001-1.731-.676-3.36-1.9-4.585A6.448 6.448 0 0 0 9.484 5.94m0 15.965C4.255 21.904 0 17.65 0 12.422c0-5.229 4.255-9.483 9.483-9.483 5.228 0 9.481 4.254 9.482 9.483 0 5.228-4.254 9.482-9.482 9.482" fill="#B3B3B3"/><path d="M19.812 2.218V1.48h.74v.74h-.74zm0-1.472v-.74h.74v.74h-.74zm-2.08 2.189v-.722h.69v.722h-.69z" fill="#A7A9C1"/><path d="M16.363 4.321v.696h.697V4.32h.672v1.466h-.596v.58h-.619v.844h-.55l.002.7h-.687v-.707h-.701v.707h.701v.777h-.693v.806h-.58v.696h-.553v.771c-1.034 1.489-1.907 3.302-2.51 4.915-.283.764-1.694.647-2.009-.103-.595-1.421-1.211-3.204-3.168-5.356-.852-.88-.234-1.438.279-1.283.951.31 2.159 1.168 3.715 3.333.43-1.075 1.858-3.716 2.428-4.563h.507v-.693h.461v-.69h.695v-1.08h.735v.689h.691v-.69h-.691v-.618h.62v-.5h1.154V3.63h.697v.69h-.697zm2.06-.69v.69h-.691v-.69h.69v-.696h.775v.696h-.775zm-2.753 0v-.662h.693v.662h-.693zm3.41-2.152V.746h.732v.733h-.731zm-1.348.734V1.48h1.349v.734h-1.349zm-.672 1.418V2.213h.672v1.418h-.672z" fill="#000"/></g></svg>
