<svg xmlns="http://www.w3.org/2000/svg" viewBox="0 0 53 22">
<path d="M52.8,11.4c0-3.8-1.8-6.7-5.3-6.7c-3.5,0-5.6,3-5.6,6.7c0,4.4,2.5,6.6,6.1,6.6c1.7,0,3.1-0.4,4.1-1
	v-2.9c-1,0.5-2.1,0.8-3.6,0.8c-1.4,0-2.7-0.5-2.8-2.2h7.2C52.8,12.5,52.8,11.7,52.8,11.4z M45.6,10c0-1.7,1-2.3,1.9-2.3
	c0.9,0,1.8,0.7,1.8,2.3H45.6z M36.2,4.6c2.6,0,5,2.3,5,6.6c0,4.6-2.4,6.8-5,6.8c-1.3,0-2.1-0.5-2.6-0.9l0,4.2L29.9,22V4.9h3.2
	l0.2,0.9C33.9,5.3,34.8,4.6,36.2,4.6z M24.9,3.8v-3L28.6,0v3L24.9,3.8z M24.9,4.9h3.7v12.8h-3.7V4.9z M21,6c0.9-1.6,2.6-1.3,3.1-1.1
	v3.4c-0.5-0.2-1.9-0.4-2.8,0.8v8.7h-3.7V4.9h3.2L21,6z M13.6,1.7l0,3.2h2.8V8h-2.8v5.2c0,2.2,2.3,1.5,2.8,1.3v3
	C15.9,17.8,15,18,13.8,18c-2.2,0-3.8-1.6-3.8-3.8l0-11.7L13.6,1.7z M3.7,8.6c0,1.6,5.6,0.9,5.6,5.2c0,2.6-2.1,4.1-5.1,4.1
	c-1.3,0-2.6-0.2-4-0.8v-3.5c1.2,0.7,2.8,1.2,4,1.2c0.8,0,1.4-0.2,1.4-0.9c0-1.7-5.6-1.1-5.6-5.1c0-2.6,2-4.2,5-4.2
	c1.2,0,2.4,0.2,3.6,0.7v3.4C7.5,8.2,6.1,7.8,5,7.8C4.2,7.8,3.7,8,3.7,8.6z M35.4,14.7c1.3,0,2.3-1.5,2.3-3.4c0-1.9-0.9-3.4-2.3-3.4
	c-0.8,0-1.4,0.3-1.7,0.7l0,5.4C34,14.4,34.5,14.7,35.4,14.7z"/>
</svg>
