<?xml version="1.0" encoding="UTF-8"?>
<svg width="22px" height="16px" viewBox="0 0 22 16" version="1.1" xmlns="http://www.w3.org/2000/svg" xmlns:xlink="http://www.w3.org/1999/xlink">
    <!-- Generator: Sketch 48.2 (47327) - http://www.bohemiancoding.com/sketch -->
    <title>Group 30</title>
    <desc>Created with Sketch.</desc>
    <defs></defs>
    <g id="Component/Complex/Editor" stroke="none" stroke-width="1" fill="none" fill-rule="evenodd" transform="translate(-794.000000, -356.000000)">
        <g id="Details-(sidebar)" transform="translate(770.000000, 61.000000)">
            <g id="Toolbar-(details)" transform="translate(0.000000, 67.000000)">
                <g id="Details" transform="translate(0.000000, 210.000000)">
                    <g id="Group-30" transform="translate(24.000000, 14.000000)">
                        <rect id="Rectangle-48" opacity="0.115772192" x="0" y="0" width="22" height="22"></rect>
                        <path d="M14,17 L7,17 C7,18.3807119 5.88071187,19.5 4.5,19.5 C3.11928813,19.5 2,18.3807119 2,17 L1,17 C0.44771525,17 9.37667865e-16,16.5522847 -1.11022302e-16,16 L-1.11022302e-16,5 C-1.78657678e-16,4.44771525 0.44771525,4 1,4 L13,4 C13.5522847,4 14,4.44771525 14,5 L14,7 L18.6459341,7 C19.4637433,7 20.1991608,7.49790189 20.5028875,8.25721865 L22,12 L22,16 C22,16.5522847 21.5522847,17 21,17 L20,17 C20,18.3807119 18.8807119,19.5 17.5,19.5 C16.1192881,19.5 15,18.3807119 15,17 L14,17 Z M4.5,18 C5.05228475,18 5.5,17.5522847 5.5,17 C5.5,16.4477153 5.05228475,16 4.5,16 C3.94771525,16 3.5,16.4477153 3.5,17 C3.5,17.5522847 3.94771525,18 4.5,18 Z M17.5,18 C18.0522847,18 18.5,17.5522847 18.5,17 C18.5,16.4477153 18.0522847,16 17.5,16 C16.9477153,16 16.5,16.4477153 16.5,17 C16.5,17.5522847 16.9477153,18 17.5,18 Z M15,9 L15,12 L20,12 L19.2279241,9.68377223 C19.09181,9.27543009 18.7096712,9 18.2792408,9 L15,9 Z" id="Combined-Shape" fill="#333333"></path>
                    </g>
                </g>
            </g>
        </g>
    </g>
</svg>