<?xml version="1.0" encoding="UTF-8"?>
<svg width="18px" height="22px" viewBox="0 0 18 22" version="1.1" xmlns="http://www.w3.org/2000/svg" xmlns:xlink="http://www.w3.org/1999/xlink">
    <!-- Generator: Sketch 48.2 (47327) - http://www.bohemiancoding.com/sketch -->
    <title>Icon</title>
    <desc>Created with Sketch.</desc>
    <defs></defs>
    <g id="Component/Complex/Editor" stroke="none" stroke-width="1" fill="none" fill-rule="evenodd" transform="translate(-796.000000, -142.000000)">
        <g id="Details-(sidebar)" transform="translate(770.000000, 61.000000)">
            <g id="Toolbar-(details)" transform="translate(0.000000, 67.000000)">
                <g id="Details">
                    <g id="Icon" transform="translate(24.000000, 14.000000)">
                        <rect id="Rectangle-11" opacity="0.308140851" x="0" y="0" width="22" height="22"></rect>
                        <rect id="Rectangle-12" fill="#FFFFFF" x="2" y="0" width="18" height="22" rx="2"></rect>
                        <path d="M6,7 C5.44771525,7 5,6.55228475 5,6 C5,5.44771525 5.44771525,5 6,5 C6.55228475,5 7,5.44771525 7,6 C7,6.55228475 6.55228475,7 6,7 Z M9,5 L17,5 L17,7 L9,7 L9,5 Z M6,17 C5.44771525,17 5,16.5522847 5,16 C5,15.4477153 5.44771525,15 6,15 C6.55228475,15 7,15.4477153 7,16 C7,16.5522847 6.55228475,17 6,17 Z M9,15 L17,15 L17,17 L9,17 L9,15 Z M6,12 C5.44771525,12 5,11.5522847 5,11 C5,10.4477153 5.44771525,10 6,10 C6.55228475,10 7,10.4477153 7,11 C7,11.5522847 6.55228475,12 6,12 Z M9,10 L17,10 L17,12 L9,12 L9,10 Z" id="Combined-Shape" fill="#1D1D1D"></path>
                    </g>
                </g>
            </g>
        </g>
    </g>
</svg>