<?xml version="1.0" encoding="UTF-8"?>
<svg width="19px" height="22px" viewBox="0 0 19 22" version="1.1" xmlns="http://www.w3.org/2000/svg" xmlns:xlink="http://www.w3.org/1999/xlink">
    <!-- Generator: Sketch 48.2 (47327) - http://www.bohemiancoding.com/sketch -->
    <title>Group 44</title>
    <desc>Created with Sketch.</desc>
    <defs>
        <path d="M10.6761822,0.337885153 L17.9822512,4.92304957 C18.616052,5.32081213 19,6.01123232 19,6.75317828 L19,15.2468217 C19,15.9887677 18.616052,16.6791879 17.9822512,17.0769504 L10.6761822,21.6621148 C9.95832726,22.1126284 9.04167274,22.1126284 8.32381779,21.6621148 L1.01774881,17.0769504 C0.383948038,16.6791879 3.89720438e-15,15.9887677 0,15.2468217 L0,6.75317828 C0,6.01123232 0.383948038,5.32081213 1.01774881,4.92304957 L8.32381779,0.337885153 C9.04167274,-0.112628384 9.95832726,-0.112628384 10.6761822,0.337885153 Z" id="path-1"></path>
    </defs>
    <g id="Component/Complex/Editor" stroke="none" stroke-width="1" fill="none" fill-rule="evenodd" transform="translate(-796.000000, -282.000000)">
        <g id="Details-(sidebar)" transform="translate(770.000000, 61.000000)">
            <g id="Toolbar-(details)" transform="translate(0.000000, 67.000000)">
                <g id="Details" transform="translate(0.000000, 140.000000)">
                    <g id="Group-44" transform="translate(24.000000, 14.000000)">
                        <rect id="Rectangle-68" x="0" y="0" width="22" height="22"></rect>
                        <g id="Polygon-3" transform="translate(2.000000, 0.000000)">
                            <mask id="mask-2" fill="white">
                                <use xlink:href="#path-1"></use>
                            </mask>
                            <use id="Mask" fill="#333333" xlink:href="#path-1"></use>
                            <path d="M16.8663287,6.74704812 L10.75,10.2783122 C9.97649731,10.7248942 9.02350269,10.7248942 8.25,10.2783122 L2.13367127,6.74704812 C2.26831344,6.4232917 2.49949776,6.14280863 2.8034859,5.94897024 L8.5714351,2.27103087 C9.13816269,1.90965638 9.86183731,1.90965638 10.4285649,2.27103087 L16.1965141,5.94897024 C16.5005022,6.14280863 16.7316866,6.4232917 16.8663287,6.74704812 Z" id="Combined-Shape" fill="#000000" mask="url(#mask-2)"></path>
                        </g>
                    </g>
                </g>
            </g>
        </g>
    </g>
</svg>