<?xml version="1.0" encoding="UTF-8"?>
<svg width="22px" height="22px" viewBox="0 0 22 22" version="1.1" xmlns="http://www.w3.org/2000/svg" xmlns:xlink="http://www.w3.org/1999/xlink">
    <!-- Generator: Sketch 48.2 (47327) - http://www.bohemiancoding.com/sketch -->
    <title>Group 38</title>
    <desc>Created with Sketch.</desc>
    <defs></defs>
    <g id="Component/Complex/Editor" stroke="none" stroke-width="1" fill="none" fill-rule="evenodd" transform="translate(-794.000000, -212.000000)">
        <g id="Details-(sidebar)" transform="translate(770.000000, 61.000000)" fill="#FFFFFF">
            <g id="Toolbar-(details)" transform="translate(0.000000, 67.000000)">
                <g id="Details" transform="translate(0.000000, 70.000000)">
                    <g id="Group-38" transform="translate(24.000000, 14.000000)">
                        <path d="M14,22 L8,22 L8,20 L14,20 L14,22 Z M17,22 L17,20 L20,20 L20,17 L22,17 L22,20 C22,21.1045695 21.1045695,22 20,22 L17,22 Z M5,22 L2,22 C0.8954305,22 0,21.1045695 0,20 L0,17 L2,17 L2,20 L5,20 L5,22 Z M14,0 L14,2 L8,2 L8,0 L14,0 Z M17,0 L20,0 C21.1045695,0 22,0.8954305 22,2 L22,5 L20,5 L20,2 L17,2 L17,0 Z M5,0 L5,2 L2,2 L2,5 L0,5 L0,2 C0,0.8954305 0.8954305,0 2,0 L5,0 Z M22,14 L20,14 L20,8 L22,8 L22,14 Z M0,14 L0,8 L2,8 L2,14 L0,14 Z" id="Combined-Shape" fill-rule="nonzero" opacity="0.201030344"></path>
                        <path d="M13.0833333,10.5578828 L12.0397454,15.4847023 C11.9257472,16.0228924 11.3779093,16.4591818 10.8253775,16.4591818 L11.1746225,16.4591818 C10.6179439,16.4591818 10.0727135,16.0156252 9.96025459,15.4847023 L8.91666667,10.5578828 L6,10.5578828 L10.3256778,5.87173191 C10.6980956,5.46827919 11.2977991,5.46383184 11.6743222,5.87173191 L16,10.5578828 L13.0833333,10.5578828 Z" id="Combined-Shape" opacity="0.402909873"></path>
                    </g>
                </g>
            </g>
        </g>
    </g>
</svg>