<?xml version="1.0" encoding="utf-8"?>
<!-- Generator: Adobe Illustrator 21.1.0, SVG Export Plug-In . SVG Version: 6.00 Build 0)  -->
<svg version="1.1" id="Layer_1" xmlns="http://www.w3.org/2000/svg" xmlns:xlink="http://www.w3.org/1999/xlink" x="0px" y="0px"
	 viewBox="0 0 34 34" style="enable-background:new 0 0 34 34;" xml:space="preserve">
<style type="text/css">
	.st0{fill:#FFFFFF;}
</style>
<polygon points="0,0 33.9,0 34,33.9 0,33.9 "/>
<path class="st0" d="M6.7,7.5l3.4,10.8c0.1,0.2,0.2,0.5,0.4,0.8c0.3,0.6,0.7,1.1,1.1,1.7c1.3,1.6,3.1,2.6,5.3,2.6s4-1,5.3-2.6
	c0.4-0.5,0.8-1.1,1.1-1.7c0.2-0.4,0.3-0.6,0.4-0.8l3-9.7l0.4-1.2l-2.3-0.7l-3.4,10.8c0,0.1-0.1,0.2-0.2,0.5
	c-0.2,0.4-0.5,0.8-0.8,1.2c-0.9,1.1-2,1.7-3.5,1.7s-2.6-0.6-3.5-1.7c-0.3-0.4-0.6-0.8-0.8-1.2c-0.1-0.2-0.2-0.4-0.2-0.5l-3-9.7
	L9.1,6.7L6.7,7.5z"/>
<path d="M8.3,11.3c-1.7,0-3-1.4-3-3s1.4-3,3-3s3,1.4,3,3S9.9,11.3,8.3,11.3z M25.6,11.3c-1.7,0-3-1.4-3-3s1.4-3,3-3c1.7,0,3,1.4,3,3
	S27.3,11.3,25.6,11.3z"/>
<path class="st0" d="M8.3,11.3c-1.7,0-3-1.4-3-3s1.4-3,3-3s3,1.4,3,3S9.9,11.3,8.3,11.3z M25.6,11.3c-1.7,0-3-1.4-3-3s1.4-3,3-3
	c1.7,0,3,1.4,3,3S27.3,11.3,25.6,11.3z"/>
</svg>
