<svg xmlns="http://www.w3.org/2000/svg" viewBox="0 0 160 34">
<polygon fill="#FFFFFF" points="0,0 33.9,0 34,33.9 0,33.9 "/>
<path fill="#000000" d="M6.7,7.5l3.4,10.8c0.1,0.2,0.2,0.5,0.4,0.8c0.3,0.6,0.7,1.1,1.1,1.7c1.3,1.6,3.1,2.6,5.3,2.6s4-1,5.3-2.6c0.4-0.5,0.8-1.1,1.1-1.7c0.2-0.4,0.3-0.6,0.4-0.8l3-9.7l0.4-1.2l-2.3-0.7l-3.4,10.8c0,0.1-0.1,0.2-0.2,0.5c-0.2,0.4-0.5,0.8-0.8,1.2c-0.9,1.1-2,1.7-3.5,1.7s-2.6-0.6-3.5-1.7c-0.3-0.4-0.6-0.8-0.8-1.2c-0.1-0.2-0.2-0.4-0.2-0.5l-3-9.7L9.1,6.7L6.7,7.5z"/>
<path fill="#FFFFFF" d="M8.3,11.3c-1.7,0-3-1.4-3-3s1.4-3,3-3s3,1.4,3,3S9.9,11.3,8.3,11.3z M25.6,11.3c-1.7,0-3-1.4-3-3s1.4-3,3-3c1.7,0,3,1.4,3,3S27.3,11.3,25.6,11.3z"/>
<path fill="#000000" d="M8.3,11.3c-1.7,0-3-1.4-3-3s1.4-3,3-3s3,1.4,3,3S9.9,11.3,8.3,11.3z M25.6,11.3c-1.7,0-3-1.4-3-3s1.4-3,3-3c1.7,0,3,1.4,3,3S27.3,11.3,25.6,11.3z"/>
<path fill="#FFFFFF" d="M52.4,26.9h1.4l7.4-16.7h-1.8L53.1,25l-6.3-14.7H45L52.4,26.9z M71.5,27.1c-4.3,0-8.1-3.5-8.1-8.6
	v-0.1c0-4.8,3.4-8.6,7.8-8.6c4.6,0,7.6,3.8,7.6,8.6c0,0.3,0,0.4,0,0.6H65.1c0.3,4.1,3.2,6.5,6.5,6.5c2.6,0,4.3-1.1,5.7-2.6l1.1,1
	C76.7,25.8,74.7,27.1,71.5,27.1z M65.1,17.7h12c-0.2-3.3-2.1-6.4-5.9-6.4C67.9,11.3,65.4,14,65.1,17.7z M83.5,26.7h1.6v-9.6
	c0-3.4,2.5-5.9,5.7-5.9c3.3,0,5.2,2.2,5.2,5.6v9.8h1.6V16.6c0-4-2.4-6.8-6.6-6.8c-3,0-4.9,1.5-6,3.5v-3.1h-1.6V26.7z M110.3,27.1
	c-4,0-8-3.2-8-8.6v-0.1c0-5.4,4-8.6,8-8.6c3.3,0,5.4,1.9,6.8,4V3.1h1.6v23.6h-1.6v-3.7C115.7,25.2,113.6,27.1,110.3,27.1z
	 M110.5,25.6c3.4,0,6.7-2.9,6.7-7.1v-0.1c0-4.2-3.3-7.1-6.7-7.1c-3.6,0-6.5,2.6-6.5,7.1v0.1C104,22.8,107,25.6,110.5,25.6z
	 M124.8,5.9h2V3.7h-2V5.9z M125,26.7h1.6V10.2H125V26.7z M133.8,26.7h1.6V11.7h5.8v-1.5h-5.8V8.6c0-2.8,1.1-4.2,3.3-4.2
	c0.8,0,1.5,0.1,2.5,0.4V3.4c-0.7-0.3-1.5-0.4-2.5-0.4c-1.5,0-2.6,0.5-3.5,1.3c-0.9,0.9-1.5,2.4-1.5,4.3v1.6h-2.4v1.5h2.4V26.7z
	 M146.5,32c2.4,0,4-1.2,5.5-4.7l7.2-17.1h-1.7l-6,14.8l-6.9-14.8h-1.8l7.9,16.4c-1.2,2.9-2.4,3.9-4.1,3.9c-1.2,0-1.9-0.2-2.8-0.6
	l-0.6,1.4C144.4,31.8,145.3,32,146.5,32z"/>
</svg>
